M48
;DRILL file {KiCad 4.0.3-stable} date 11/30/17 23:19:11
;FORMAT={-:-/ absolute / inch / decimal}
FMAT,2
INCH,TZ
T1C0.013
T2C0.031
T3C0.035
T4C0.039
T5C0.043
T6C0.126
%
G90
G05
M72
T1
X2.6637Y-3.879
X2.6637Y-3.929
X2.7137Y-3.879
X2.7137Y-3.929
X2.7637Y-3.979
X2.7637Y-4.029
X2.8137Y-3.979
X2.8137Y-4.029
X2.8637Y-3.979
X2.8637Y-4.029
X2.9037Y-4.174
X2.9037Y-4.224
X2.9037Y-4.274
X2.9037Y-4.324
X2.9537Y-4.174
X2.9537Y-4.224
X2.9537Y-4.274
X2.9537Y-4.324
X3.24Y-4.9
X3.24Y-4.98
X3.24Y-5.06
X3.29Y-4.9
X3.29Y-4.98
X3.29Y-5.06
X3.34Y-4.9
X3.34Y-4.98
X3.34Y-5.06
X3.39Y-4.9
X3.39Y-4.98
X3.39Y-5.06
X3.44Y-4.9
X3.44Y-4.98
X3.44Y-5.06
X3.49Y-4.9
X3.49Y-4.98
X3.49Y-5.06
X3.55Y-4.25
X3.6Y-1.875
X3.68Y-3.34
X3.71Y-2.11
X3.72Y-2.58
X3.72Y-3.24
X3.76Y-4.46
X3.8Y-4.325
X3.83Y-3.29
X3.95Y-4.9
X3.975Y-2.625
X4.02Y-2.14
X4.06Y-2.14
X4.1Y-2.78
X4.13Y-2.25
X4.22Y-5.06
X4.25Y-4.325
X4.36Y-4.42
X4.38Y-3.16
X4.415Y-3.225
X4.42Y-4.42
X4.475Y-4.94
X4.5Y-5.
X4.51Y-1.74
X4.51Y-2.28
X4.58Y-4.64
X4.62Y-4.68
X4.64Y-2.34
X4.64Y-2.62
X4.65Y-1.79
X4.66Y-2.72
X4.66Y-4.7
X4.68Y-2.38
X4.68Y-2.82
X4.7Y-2.92
X4.7Y-3.075
X4.72Y-2.42
X4.74Y-2.56
X4.76Y-1.82
X4.76Y-2.62
X4.79Y-3.73
X4.79Y-4.05
X4.82Y-3.6
X4.84Y-2.0136
X4.84Y-2.62
X4.84Y-2.88
X4.84Y-3.52
X4.84Y-4.15
X4.85Y-1.85
X4.86Y-2.92
X4.88Y-3.42
X4.9Y-2.16
X4.9Y-2.94
X4.9Y-3.
X4.9Y-3.32
X4.92Y-4.28
X4.923Y-3.68
X4.95Y-1.82
X4.95Y-3.88
X4.98Y-3.1
X4.98Y-3.32
X4.98Y-3.69
X4.98Y-3.95
X5.Y-3.02
X5.Y-4.025
X5.Y-4.515
X5.02Y-2.92
X5.02Y-2.98
X5.04Y-2.86
X5.05Y-1.82
X5.11Y-1.83
X5.17Y-1.84
X5.2Y-3.955
X5.205Y-3.545
X5.22Y-2.34
X5.2433Y-2.3633
X5.25Y-3.42
X5.25Y-4.43
X5.27Y-1.84
X5.27Y-4.22
X5.3Y-3.96
X5.33Y-4.525
X5.335Y-4.605
X5.3575Y-3.99
X5.36Y-3.66
X5.39Y-3.72
X5.4Y-2.46
X5.4Y-2.52
X5.4Y-3.12
X5.4Y-3.92
X5.42Y-2.92
X5.42Y-4.68
X5.44Y-3.54
X5.44Y-4.02
X5.44Y-4.41
X5.45Y-2.46
X5.45Y-2.52
X5.46Y-1.78
X5.46Y-2.88
X5.49Y-2.92
X5.495Y-4.56
X5.5Y-1.84
X5.5Y-2.46
X5.5Y-2.52
X5.5Y-2.84
X5.51Y-2.63
X5.51Y-3.365
X5.52Y-2.
X5.52Y-2.77
X5.52Y-2.88
X5.55Y-2.46
X5.55Y-2.52
X5.55Y-3.76
X5.55Y-3.92
X5.55Y-4.04
X5.555Y-4.165
X5.56Y-2.84
X5.685Y-4.61
X5.78Y-4.38
X5.795Y-4.295
X5.82Y-1.9
X5.84Y-2.66
X5.865Y-4.55
X5.92Y-2.74
X5.94Y-3.92
X5.945Y-4.295
X5.9655Y-4.905
X5.975Y-4.605
X5.98Y-3.82
X6.02Y-3.62
X6.02Y-3.72
X6.02Y-4.14
X6.02Y-4.22
X6.04Y-2.32
X6.06Y-3.04
X6.06Y-4.583
X6.1Y-1.84
X6.1Y-2.64
X6.16Y-3.0845
X6.18Y-4.643
X6.2Y-1.84
X6.225Y-4.9
X6.26Y-1.84
X6.275Y-4.515
X6.36Y-1.76
X6.36Y-4.43
X6.5Y-1.8
X6.505Y-3.525
X6.57Y-1.72
X6.58Y-2.
X6.58Y-2.57
X6.59Y-3.475
X6.6Y-1.84
X6.615Y-4.735
X6.625Y-4.25
X6.63Y-1.78
X6.64Y-3.1425
X6.645Y-4.51
X6.655Y-4.715
X6.695Y-4.49
X6.695Y-4.785
X6.7Y-5.
X6.74Y-2.32
X6.74Y-2.353
X6.74Y-2.386
X6.74Y-2.42
X6.74Y-3.22
X6.84Y-1.84
X6.84Y-4.495
X6.87Y-4.8
X6.9Y-4.88
X6.92Y-1.84
X7.Y-1.84
X7.Y-2.76
X7.01Y-4.13
X7.035Y-4.405
X7.04Y-4.28
X7.06Y-1.84
X7.1Y-4.54
X7.1Y-5.22
X7.15Y-4.12
X7.155Y-4.325
X7.17Y-3.01
X7.18Y-4.465
X7.18Y-4.695
X7.2Y-1.82
X7.2Y-3.7
X7.215Y-4.93
X7.23Y-2.84
X7.245Y-4.995
X7.28Y-1.77
X7.28Y-1.82
X7.28Y-4.4
X7.28Y-4.67
X7.3Y-2.
X7.3Y-2.97
X7.31Y-2.88
X7.32Y-3.18
X7.35Y-3.52
X7.36Y-2.64
X7.38Y-2.74
X7.4Y-2.82
X7.4Y-3.1
X7.4Y-4.245
X7.405Y-4.465
X7.42Y-4.145
X7.42Y-4.88
X7.5Y-4.08
X7.5Y-4.48
X7.52Y-4.58
X7.54Y-1.84
X7.6Y-1.84
X7.62Y-2.6
X7.7Y-1.82
X7.74Y-4.51
X7.78Y-2.
X7.8Y-1.84
X7.8Y-4.43
X7.805Y-4.335
X7.815Y-4.3
X7.82Y-4.385
X7.84Y-4.
X7.8443Y-3.66
X7.93Y-4.41
X7.95Y-2.62
X7.95Y-4.115
X7.98Y-1.76
X7.98Y-3.01
X7.98Y-3.3
X7.99Y-3.42
X7.99Y-3.71
X8.02Y-3.87
X8.04Y-4.0125
X8.12Y-4.1
X8.21Y-4.23
X8.26Y-4.04
X8.27Y-4.57
X8.31Y-3.6
X8.34Y-4.83
X8.36Y-3.54
X8.37Y-2.64
X8.4Y-3.76
X8.4Y-4.3
X8.44Y-3.87
X8.45Y-4.03
X8.48Y-4.54
X8.5Y-2.85
X8.5Y-3.35
X8.52Y-2.53
X8.54Y-4.85
X8.56Y-3.24
X8.6Y-2.6
X8.6Y-4.82
X8.62Y-3.96
X8.63Y-2.935
X8.65Y-3.85
X8.66Y-2.46
X8.66Y-2.69
X8.66Y-3.3
X8.66Y-3.425
X8.88Y-3.52
X9.Y-2.76
T2
X3.18Y-2.74
X3.22Y-2.38
X3.28Y-2.74
X3.32Y-2.38
X3.9Y-2.525
X3.9Y-2.625
X3.9Y-2.725
X3.9Y-2.825
X3.9Y-2.925
X3.9Y-3.025
X3.9Y-3.125
X3.9Y-3.225
X3.9Y-3.325
X3.9Y-3.625
X3.9Y-3.725
X3.9Y-3.825
X3.9Y-3.925
X3.9Y-4.025
X3.9Y-4.125
X3.9Y-4.225
X4.125Y-4.84
X4.125Y-4.94
X4.2Y-2.525
X4.2Y-2.625
X4.2Y-2.725
X4.2Y-2.825
X4.2Y-2.925
X4.2Y-3.025
X4.2Y-3.125
X4.2Y-3.225
X4.2Y-3.325
X4.2Y-3.625
X4.2Y-3.725
X4.2Y-3.825
X4.2Y-3.925
X4.2Y-4.025
X4.2Y-4.125
X4.2Y-4.225
X4.375Y-4.84
X4.375Y-4.94
X4.5Y-2.525
X4.5Y-2.625
X4.5Y-2.725
X4.5Y-2.825
X4.5Y-2.925
X4.5Y-3.025
X4.5Y-3.125
X4.5Y-3.225
X4.5Y-3.325
X4.5Y-3.425
X4.5Y-3.525
X4.5Y-3.625
X4.5Y-3.725
X4.5Y-3.825
X4.5Y-3.925
X4.5Y-4.025
X4.5Y-4.125
X4.5Y-4.225
X4.5Y-4.325
X4.5Y-4.425
X4.5Y-4.775
X4.5Y-5.075
X4.6Y-4.775
X4.6Y-5.075
X4.7Y-4.775
X4.7Y-5.075
X4.8Y-4.775
X4.8Y-5.075
X4.9Y-4.775
X4.9Y-5.075
X5.Y-4.775
X5.Y-5.075
X5.1Y-2.525
X5.1Y-2.625
X5.1Y-2.725
X5.1Y-2.825
X5.1Y-2.925
X5.1Y-3.025
X5.1Y-3.125
X5.1Y-3.225
X5.1Y-3.325
X5.1Y-3.425
X5.1Y-3.525
X5.1Y-3.625
X5.1Y-3.725
X5.1Y-3.825
X5.1Y-3.925
X5.1Y-4.025
X5.1Y-4.125
X5.1Y-4.225
X5.1Y-4.325
X5.1Y-4.425
X5.1Y-4.775
X5.1Y-5.075
X5.2Y-4.775
X5.2Y-5.075
X5.525Y-4.76
X5.525Y-5.06
X5.625Y-4.76
X5.625Y-5.06
X5.65Y-2.525
X5.65Y-2.625
X5.65Y-2.725
X5.65Y-2.825
X5.65Y-2.925
X5.65Y-3.025
X5.65Y-3.125
X5.65Y-3.225
X5.65Y-3.325
X5.65Y-3.425
X5.65Y-3.525
X5.65Y-3.625
X5.65Y-3.725
X5.65Y-3.825
X5.65Y-3.925
X5.65Y-4.025
X5.65Y-4.125
X5.65Y-4.225
X5.65Y-4.325
X5.65Y-4.425
X5.725Y-4.76
X5.725Y-5.06
X5.825Y-4.76
X5.825Y-5.06
X5.925Y-4.76
X5.925Y-5.06
X6.025Y-4.76
X6.025Y-5.06
X6.125Y-4.76
X6.125Y-5.06
X6.225Y-4.76
X6.225Y-5.06
X6.25Y-2.525
X6.25Y-2.625
X6.25Y-2.725
X6.25Y-2.825
X6.25Y-2.925
X6.25Y-3.025
X6.25Y-3.125
X6.25Y-3.225
X6.25Y-3.325
X6.25Y-3.425
X6.25Y-3.525
X6.25Y-3.625
X6.25Y-3.725
X6.25Y-3.825
X6.25Y-3.925
X6.25Y-4.025
X6.25Y-4.125
X6.25Y-4.225
X6.25Y-4.325
X6.25Y-4.425
X6.325Y-4.76
X6.325Y-5.06
X6.425Y-4.76
X6.425Y-5.06
X6.95Y-2.525
X6.95Y-2.625
X6.95Y-2.725
X6.95Y-2.825
X6.95Y-2.925
X6.95Y-3.025
X6.95Y-3.125
X6.95Y-3.225
X6.95Y-3.325
X6.95Y-3.425
X6.95Y-3.525
X6.95Y-3.625
X6.95Y-3.725
X6.95Y-3.825
X6.95Y-3.925
X6.95Y-4.025
X6.95Y-4.125
X6.95Y-4.225
X6.95Y-4.325
X6.95Y-4.425
X6.95Y-4.775
X6.95Y-5.075
X7.05Y-4.775
X7.05Y-5.075
X7.15Y-4.775
X7.15Y-5.075
X7.25Y-4.775
X7.25Y-5.075
X7.35Y-4.775
X7.35Y-5.075
X7.45Y-4.775
X7.45Y-5.075
X7.55Y-2.525
X7.55Y-2.625
X7.55Y-2.725
X7.55Y-2.825
X7.55Y-2.925
X7.55Y-3.025
X7.55Y-3.125
X7.55Y-3.225
X7.55Y-3.325
X7.55Y-3.425
X7.55Y-3.525
X7.55Y-3.625
X7.55Y-3.725
X7.55Y-3.825
X7.55Y-3.925
X7.55Y-4.025
X7.55Y-4.125
X7.55Y-4.225
X7.55Y-4.325
X7.55Y-4.425
X7.55Y-4.775
X7.55Y-5.075
X7.9Y-4.175
X7.9Y-4.475
X7.9Y-4.625
X7.9Y-4.925
X8.Y-4.175
X8.Y-4.475
X8.Y-4.625
X8.Y-4.925
X8.1Y-4.175
X8.1Y-4.475
X8.1Y-4.625
X8.1Y-4.925
X8.2Y-2.525
X8.2Y-2.625
X8.2Y-2.725
X8.2Y-2.825
X8.2Y-2.925
X8.2Y-3.025
X8.2Y-3.125
X8.2Y-3.225
X8.2Y-3.325
X8.2Y-3.425
X8.2Y-3.525
X8.2Y-3.625
X8.2Y-3.725
X8.2Y-3.825
X8.2Y-4.175
X8.2Y-4.475
X8.2Y-4.625
X8.2Y-4.925
X8.3Y-4.175
X8.3Y-4.475
X8.3Y-4.625
X8.3Y-4.925
X8.4Y-4.175
X8.4Y-4.475
X8.4Y-4.625
X8.4Y-4.925
X8.5Y-4.175
X8.5Y-4.475
X8.5Y-4.625
X8.5Y-4.925
X8.6Y-4.175
X8.6Y-4.475
X8.6Y-4.625
X8.6Y-4.925
X8.7Y-4.175
X8.7Y-4.475
X8.7Y-4.625
X8.7Y-4.925
X8.8Y-2.525
X8.8Y-2.625
X8.8Y-2.725
X8.8Y-2.825
X8.8Y-2.925
X8.8Y-3.025
X8.8Y-3.125
X8.8Y-3.225
X8.8Y-3.325
X8.8Y-3.425
X8.8Y-3.525
X8.8Y-3.625
X8.8Y-3.725
X8.8Y-3.825
T3
X3.765Y-5.0001
X3.765Y-5.13
X3.865Y-5.0001
X3.865Y-5.13
X3.965Y-5.0001
X3.965Y-5.13
T4
X4.15Y-4.575
X4.15Y-4.68
X4.25Y-4.575
X4.25Y-4.68
X4.325Y-2.525
X4.325Y-2.625
X4.325Y-2.725
X4.325Y-2.825
X4.325Y-2.925
X4.325Y-3.025
X4.325Y-3.125
X4.325Y-3.225
X4.325Y-3.325
X4.325Y-3.425
X4.325Y-3.525
X4.325Y-3.625
X4.325Y-3.725
X4.325Y-3.825
X4.325Y-3.925
X4.325Y-4.025
X4.35Y-4.575
X4.35Y-4.68
X4.505Y-5.215
X4.605Y-5.215
X4.705Y-5.215
X4.805Y-5.215
X4.905Y-5.215
X5.005Y-5.215
X5.105Y-5.215
X5.205Y-5.215
X5.3Y-2.635
X5.3Y-2.735
X5.3Y-2.835
X5.3Y-2.935
X5.3Y-3.035
X5.3Y-3.175
X5.3Y-3.275
X5.3Y-3.375
X5.3Y-3.475
X5.3Y-3.575
X5.53Y-5.215
X5.63Y-5.215
X5.73Y-5.215
X5.83Y-5.215
X5.93Y-5.215
X6.03Y-5.215
X6.13Y-5.215
X6.23Y-5.215
X6.4Y-2.6
X6.4Y-2.7
X6.4Y-2.8
X6.4Y-2.9
X6.4Y-3.
X6.4Y-3.1
X6.4Y-3.2
X6.4Y-3.3
X6.4Y-3.55
X6.4Y-3.65
X6.4Y-3.75
X6.4Y-3.85
X6.4Y-3.95
X6.4Y-4.05
X6.4Y-4.15
X6.4Y-4.25
X6.8Y-2.6
X6.8Y-2.7
X6.8Y-2.8
X6.8Y-2.9
X6.8Y-3.
X6.8Y-3.1
X7.7Y-2.75
X7.7Y-2.85
X7.7Y-2.95
X7.7Y-3.05
X7.7Y-3.15
X7.7Y-3.25
X7.7Y-3.35
X7.7Y-3.45
X7.7Y-3.7
X7.7Y-3.8
X7.7Y-3.9
X7.7Y-4.
X7.7Y-4.1
X7.7Y-4.2
X7.7Y-4.3
X7.7Y-4.4
X8.275Y-1.775
X8.275Y-1.875
X8.375Y-1.775
X8.375Y-1.875
X8.48Y-1.775
X8.48Y-1.875
X8.58Y-1.775
X8.58Y-1.875
X8.68Y-1.775
X8.68Y-1.875
X8.78Y-1.775
X8.78Y-1.875
X9.Y-3.42
X9.Y-3.52
X9.Y-3.62
X9.Y-3.72
X9.Y-3.82
X9.Y-3.92
X9.Y-4.02
X9.Y-4.12
T5
X2.6941Y-2.35
X2.6941Y-2.5272
X2.6941Y-2.725
X2.6941Y-2.9022
X2.95Y-2.35
X2.95Y-2.5272
X2.95Y-2.725
X2.95Y-2.9022
T6
X2.8Y-2.05
X2.8Y-4.55
X8.95Y-2.05
X8.95Y-4.55
T0
M30
