G04 #@! TF.FileFunction,Other,Fab,Top*
%FSLAX46Y46*%
G04 Gerber Fmt 4.6, Leading zero omitted, Abs format (unit mm)*
G04 Created by KiCad (PCBNEW 4.0.3-stable) date 10/01/17 01:55:27*
%MOMM*%
%LPD*%
G01*
G04 APERTURE LIST*
%ADD10C,0.100000*%
%ADD11C,0.150000*%
%ADD12C,0.075000*%
G04 APERTURE END LIST*
D10*
X223012000Y-43815000D02*
X226822000Y-43815000D01*
X226822000Y-43815000D02*
X226822000Y-48895000D01*
X226822000Y-48895000D02*
X221742000Y-48895000D01*
X221742000Y-48895000D02*
X221742000Y-45085000D01*
X221742000Y-45085000D02*
X223012000Y-43815000D01*
X216662000Y-43815000D02*
X220472000Y-43815000D01*
X220472000Y-43815000D02*
X220472000Y-48895000D01*
X220472000Y-48895000D02*
X215392000Y-48895000D01*
X215392000Y-48895000D02*
X215392000Y-45085000D01*
X215392000Y-45085000D02*
X216662000Y-43815000D01*
X185274268Y-50272284D02*
X185674268Y-50872284D01*
X185674268Y-50872284D02*
X184874268Y-50872284D01*
X184874268Y-50872284D02*
X185274268Y-50272284D01*
X185674268Y-50222284D02*
X184874268Y-50222284D01*
X184474268Y-49072284D02*
X186074268Y-49072284D01*
X184474268Y-52272284D02*
X184474268Y-49072284D01*
X186074268Y-52272284D02*
X184474268Y-52272284D01*
X186074268Y-49072284D02*
X186074268Y-52272284D01*
X164954268Y-50272284D02*
X165354268Y-50872284D01*
X165354268Y-50872284D02*
X164554268Y-50872284D01*
X164554268Y-50872284D02*
X164954268Y-50272284D01*
X165354268Y-50222284D02*
X164554268Y-50222284D01*
X164154268Y-49072284D02*
X165754268Y-49072284D01*
X164154268Y-52272284D02*
X164154268Y-49072284D01*
X165754268Y-52272284D02*
X164154268Y-52272284D01*
X165754268Y-49072284D02*
X165754268Y-52272284D01*
X135854168Y-50241108D02*
X136254168Y-50841108D01*
X136254168Y-50841108D02*
X135454168Y-50841108D01*
X135454168Y-50841108D02*
X135854168Y-50241108D01*
X136254168Y-50191108D02*
X135454168Y-50191108D01*
X135054168Y-49041108D02*
X136654168Y-49041108D01*
X135054168Y-52241108D02*
X135054168Y-49041108D01*
X136654168Y-52241108D02*
X135054168Y-52241108D01*
X136654168Y-49041108D02*
X136654168Y-52241108D01*
X115555000Y-62865000D02*
X129285000Y-62865000D01*
X129285000Y-62865000D02*
X129285000Y-113665000D01*
X129285000Y-113665000D02*
X114555000Y-113665000D01*
X114555000Y-113665000D02*
X114555000Y-63865000D01*
X114555000Y-63865000D02*
X115555000Y-62865000D01*
X113030000Y-62805000D02*
X113030000Y-113725000D01*
X113030000Y-113725000D02*
X130810000Y-113725000D01*
X130810000Y-113725000D02*
X130810000Y-62805000D01*
X130810000Y-62805000D02*
X113030000Y-62805000D01*
X92568000Y-89900000D02*
X91328000Y-89900000D01*
X92568000Y-87900000D02*
X92568000Y-89900000D01*
X91328000Y-87900000D02*
X92568000Y-87900000D01*
X91328000Y-89900000D02*
X91328000Y-87900000D01*
X92568000Y-75168000D02*
X91328000Y-75168000D01*
X92568000Y-73168000D02*
X92568000Y-75168000D01*
X91328000Y-73168000D02*
X92568000Y-73168000D01*
X91328000Y-75168000D02*
X91328000Y-73168000D01*
X93964000Y-54752000D02*
X93964000Y-55992000D01*
X91964000Y-54752000D02*
X93964000Y-54752000D01*
X91964000Y-55992000D02*
X91964000Y-54752000D01*
X93964000Y-55992000D02*
X91964000Y-55992000D01*
X91836000Y-102398000D02*
X93076000Y-102398000D01*
X91836000Y-104398000D02*
X91836000Y-102398000D01*
X93076000Y-104398000D02*
X91836000Y-104398000D01*
X93076000Y-102398000D02*
X93076000Y-104398000D01*
X85868000Y-99680000D02*
X85868000Y-98440000D01*
X87868000Y-99680000D02*
X85868000Y-99680000D01*
X87868000Y-98440000D02*
X87868000Y-99680000D01*
X85868000Y-98440000D02*
X87868000Y-98440000D01*
X89598000Y-119300000D02*
X81398000Y-119300000D01*
X81398000Y-119300000D02*
X81398000Y-121300000D01*
X81398000Y-121300000D02*
X80998000Y-121300000D01*
X80998000Y-121300000D02*
X80998000Y-133800000D01*
X80998000Y-133800000D02*
X89998000Y-133800000D01*
X89998000Y-133800000D02*
X89998000Y-121300000D01*
X89998000Y-121300000D02*
X89598000Y-121300000D01*
X89598000Y-121300000D02*
X89598000Y-119300000D01*
X107950000Y-125476000D02*
X107950000Y-122936000D01*
X108950000Y-125476000D02*
G75*
G03X108950000Y-125476000I-1000000J0D01*
G01*
X82296000Y-102108000D02*
X82296000Y-99568000D01*
X83296000Y-102108000D02*
G75*
G03X83296000Y-102108000I-1000000J0D01*
G01*
X203054268Y-50272284D02*
X203454268Y-50872284D01*
X203454268Y-50872284D02*
X202654268Y-50872284D01*
X202654268Y-50872284D02*
X203054268Y-50272284D01*
X203454268Y-50222284D02*
X202654268Y-50222284D01*
X202254268Y-49072284D02*
X203854268Y-49072284D01*
X202254268Y-52272284D02*
X202254268Y-49072284D01*
X203854268Y-52272284D02*
X202254268Y-52272284D01*
X203854268Y-49072284D02*
X203854268Y-52272284D01*
X182734268Y-50272284D02*
X183134268Y-50872284D01*
X183134268Y-50872284D02*
X182334268Y-50872284D01*
X182334268Y-50872284D02*
X182734268Y-50272284D01*
X183134268Y-50222284D02*
X182334268Y-50222284D01*
X181934268Y-49072284D02*
X183534268Y-49072284D01*
X181934268Y-52272284D02*
X181934268Y-49072284D01*
X183534268Y-52272284D02*
X181934268Y-52272284D01*
X183534268Y-49072284D02*
X183534268Y-52272284D01*
X200514268Y-50272284D02*
X200914268Y-50872284D01*
X200914268Y-50872284D02*
X200114268Y-50872284D01*
X200114268Y-50872284D02*
X200514268Y-50272284D01*
X200914268Y-50222284D02*
X200114268Y-50222284D01*
X199714268Y-49072284D02*
X201314268Y-49072284D01*
X199714268Y-52272284D02*
X199714268Y-49072284D01*
X201314268Y-52272284D02*
X199714268Y-52272284D01*
X201314268Y-49072284D02*
X201314268Y-52272284D01*
X180194268Y-50272284D02*
X180594268Y-50872284D01*
X180594268Y-50872284D02*
X179794268Y-50872284D01*
X179794268Y-50872284D02*
X180194268Y-50272284D01*
X180594268Y-50222284D02*
X179794268Y-50222284D01*
X179394268Y-49072284D02*
X180994268Y-49072284D01*
X179394268Y-52272284D02*
X179394268Y-49072284D01*
X180994268Y-52272284D02*
X179394268Y-52272284D01*
X180994268Y-49072284D02*
X180994268Y-52272284D01*
X197974268Y-50272284D02*
X198374268Y-50872284D01*
X198374268Y-50872284D02*
X197574268Y-50872284D01*
X197574268Y-50872284D02*
X197974268Y-50272284D01*
X198374268Y-50222284D02*
X197574268Y-50222284D01*
X197174268Y-49072284D02*
X198774268Y-49072284D01*
X197174268Y-52272284D02*
X197174268Y-49072284D01*
X198774268Y-52272284D02*
X197174268Y-52272284D01*
X198774268Y-49072284D02*
X198774268Y-52272284D01*
X177654268Y-50272284D02*
X178054268Y-50872284D01*
X178054268Y-50872284D02*
X177254268Y-50872284D01*
X177254268Y-50872284D02*
X177654268Y-50272284D01*
X178054268Y-50222284D02*
X177254268Y-50222284D01*
X176854268Y-49072284D02*
X178454268Y-49072284D01*
X176854268Y-52272284D02*
X176854268Y-49072284D01*
X178454268Y-52272284D02*
X176854268Y-52272284D01*
X178454268Y-49072284D02*
X178454268Y-52272284D01*
X195434268Y-50272284D02*
X195834268Y-50872284D01*
X195834268Y-50872284D02*
X195034268Y-50872284D01*
X195034268Y-50872284D02*
X195434268Y-50272284D01*
X195834268Y-50222284D02*
X195034268Y-50222284D01*
X194634268Y-49072284D02*
X196234268Y-49072284D01*
X194634268Y-52272284D02*
X194634268Y-49072284D01*
X196234268Y-52272284D02*
X194634268Y-52272284D01*
X196234268Y-49072284D02*
X196234268Y-52272284D01*
X175114268Y-50272284D02*
X175514268Y-50872284D01*
X175514268Y-50872284D02*
X174714268Y-50872284D01*
X174714268Y-50872284D02*
X175114268Y-50272284D01*
X175514268Y-50222284D02*
X174714268Y-50222284D01*
X174314268Y-49072284D02*
X175914268Y-49072284D01*
X174314268Y-52272284D02*
X174314268Y-49072284D01*
X175914268Y-52272284D02*
X174314268Y-52272284D01*
X175914268Y-49072284D02*
X175914268Y-52272284D01*
X192894268Y-50272284D02*
X193294268Y-50872284D01*
X193294268Y-50872284D02*
X192494268Y-50872284D01*
X192494268Y-50872284D02*
X192894268Y-50272284D01*
X193294268Y-50222284D02*
X192494268Y-50222284D01*
X192094268Y-49072284D02*
X193694268Y-49072284D01*
X192094268Y-52272284D02*
X192094268Y-49072284D01*
X193694268Y-52272284D02*
X192094268Y-52272284D01*
X193694268Y-49072284D02*
X193694268Y-52272284D01*
X172574268Y-50272284D02*
X172974268Y-50872284D01*
X172974268Y-50872284D02*
X172174268Y-50872284D01*
X172174268Y-50872284D02*
X172574268Y-50272284D01*
X172974268Y-50222284D02*
X172174268Y-50222284D01*
X171774268Y-49072284D02*
X173374268Y-49072284D01*
X171774268Y-52272284D02*
X171774268Y-49072284D01*
X173374268Y-52272284D02*
X171774268Y-52272284D01*
X173374268Y-49072284D02*
X173374268Y-52272284D01*
X190354268Y-50272284D02*
X190754268Y-50872284D01*
X190754268Y-50872284D02*
X189954268Y-50872284D01*
X189954268Y-50872284D02*
X190354268Y-50272284D01*
X190754268Y-50222284D02*
X189954268Y-50222284D01*
X189554268Y-49072284D02*
X191154268Y-49072284D01*
X189554268Y-52272284D02*
X189554268Y-49072284D01*
X191154268Y-52272284D02*
X189554268Y-52272284D01*
X191154268Y-49072284D02*
X191154268Y-52272284D01*
X170034268Y-50272284D02*
X170434268Y-50872284D01*
X170434268Y-50872284D02*
X169634268Y-50872284D01*
X169634268Y-50872284D02*
X170034268Y-50272284D01*
X170434268Y-50222284D02*
X169634268Y-50222284D01*
X169234268Y-49072284D02*
X170834268Y-49072284D01*
X169234268Y-52272284D02*
X169234268Y-49072284D01*
X170834268Y-52272284D02*
X169234268Y-52272284D01*
X170834268Y-49072284D02*
X170834268Y-52272284D01*
X187814268Y-50272284D02*
X188214268Y-50872284D01*
X188214268Y-50872284D02*
X187414268Y-50872284D01*
X187414268Y-50872284D02*
X187814268Y-50272284D01*
X188214268Y-50222284D02*
X187414268Y-50222284D01*
X187014268Y-49072284D02*
X188614268Y-49072284D01*
X187014268Y-52272284D02*
X187014268Y-49072284D01*
X188614268Y-52272284D02*
X187014268Y-52272284D01*
X188614268Y-49072284D02*
X188614268Y-52272284D01*
X167494268Y-50272284D02*
X167894268Y-50872284D01*
X167894268Y-50872284D02*
X167094268Y-50872284D01*
X167094268Y-50872284D02*
X167494268Y-50272284D01*
X167894268Y-50222284D02*
X167094268Y-50222284D01*
X166694268Y-49072284D02*
X168294268Y-49072284D01*
X166694268Y-52272284D02*
X166694268Y-49072284D01*
X168294268Y-52272284D02*
X166694268Y-52272284D01*
X168294268Y-49072284D02*
X168294268Y-52272284D01*
X162414268Y-50272284D02*
X162814268Y-50872284D01*
X162814268Y-50872284D02*
X162014268Y-50872284D01*
X162014268Y-50872284D02*
X162414268Y-50272284D01*
X162814268Y-50222284D02*
X162014268Y-50222284D01*
X161614268Y-49072284D02*
X163214268Y-49072284D01*
X161614268Y-52272284D02*
X161614268Y-49072284D01*
X163214268Y-52272284D02*
X161614268Y-52272284D01*
X163214268Y-49072284D02*
X163214268Y-52272284D01*
X159874268Y-50272284D02*
X160274268Y-50872284D01*
X160274268Y-50872284D02*
X159474268Y-50872284D01*
X159474268Y-50872284D02*
X159874268Y-50272284D01*
X160274268Y-50222284D02*
X159474268Y-50222284D01*
X159074268Y-49072284D02*
X160674268Y-49072284D01*
X159074268Y-52272284D02*
X159074268Y-49072284D01*
X160674268Y-52272284D02*
X159074268Y-52272284D01*
X160674268Y-49072284D02*
X160674268Y-52272284D01*
X133314168Y-50241108D02*
X133714168Y-50841108D01*
X133714168Y-50841108D02*
X132914168Y-50841108D01*
X132914168Y-50841108D02*
X133314168Y-50241108D01*
X133714168Y-50191108D02*
X132914168Y-50191108D01*
X132514168Y-49041108D02*
X134114168Y-49041108D01*
X132514168Y-52241108D02*
X132514168Y-49041108D01*
X134114168Y-52241108D02*
X132514168Y-52241108D01*
X134114168Y-49041108D02*
X134114168Y-52241108D01*
X157334268Y-50272284D02*
X157734268Y-50872284D01*
X157734268Y-50872284D02*
X156934268Y-50872284D01*
X156934268Y-50872284D02*
X157334268Y-50272284D01*
X157734268Y-50222284D02*
X156934268Y-50222284D01*
X156534268Y-49072284D02*
X158134268Y-49072284D01*
X156534268Y-52272284D02*
X156534268Y-49072284D01*
X158134268Y-52272284D02*
X156534268Y-52272284D01*
X158134268Y-49072284D02*
X158134268Y-52272284D01*
X130774168Y-50241108D02*
X131174168Y-50841108D01*
X131174168Y-50841108D02*
X130374168Y-50841108D01*
X130374168Y-50841108D02*
X130774168Y-50241108D01*
X131174168Y-50191108D02*
X130374168Y-50191108D01*
X129974168Y-49041108D02*
X131574168Y-49041108D01*
X129974168Y-52241108D02*
X129974168Y-49041108D01*
X131574168Y-52241108D02*
X129974168Y-52241108D01*
X131574168Y-49041108D02*
X131574168Y-52241108D01*
X154794268Y-50272284D02*
X155194268Y-50872284D01*
X155194268Y-50872284D02*
X154394268Y-50872284D01*
X154394268Y-50872284D02*
X154794268Y-50272284D01*
X155194268Y-50222284D02*
X154394268Y-50222284D01*
X153994268Y-49072284D02*
X155594268Y-49072284D01*
X153994268Y-52272284D02*
X153994268Y-49072284D01*
X155594268Y-52272284D02*
X153994268Y-52272284D01*
X155594268Y-49072284D02*
X155594268Y-52272284D01*
X128234168Y-50241108D02*
X128634168Y-50841108D01*
X128634168Y-50841108D02*
X127834168Y-50841108D01*
X127834168Y-50841108D02*
X128234168Y-50241108D01*
X128634168Y-50191108D02*
X127834168Y-50191108D01*
X127434168Y-49041108D02*
X129034168Y-49041108D01*
X127434168Y-52241108D02*
X127434168Y-49041108D01*
X129034168Y-52241108D02*
X127434168Y-52241108D01*
X129034168Y-49041108D02*
X129034168Y-52241108D01*
X123154168Y-50241108D02*
X123554168Y-50841108D01*
X123554168Y-50841108D02*
X122754168Y-50841108D01*
X122754168Y-50841108D02*
X123154168Y-50241108D01*
X123554168Y-50191108D02*
X122754168Y-50191108D01*
X122354168Y-49041108D02*
X123954168Y-49041108D01*
X122354168Y-52241108D02*
X122354168Y-49041108D01*
X123954168Y-52241108D02*
X122354168Y-52241108D01*
X123954168Y-49041108D02*
X123954168Y-52241108D01*
X125694168Y-50241108D02*
X126094168Y-50841108D01*
X126094168Y-50841108D02*
X125294168Y-50841108D01*
X125294168Y-50841108D02*
X125694168Y-50241108D01*
X126094168Y-50191108D02*
X125294168Y-50191108D01*
X124894168Y-49041108D02*
X126494168Y-49041108D01*
X124894168Y-52241108D02*
X124894168Y-49041108D01*
X126494168Y-52241108D02*
X124894168Y-52241108D01*
X126494168Y-49041108D02*
X126494168Y-52241108D01*
X120614168Y-50241108D02*
X121014168Y-50841108D01*
X121014168Y-50841108D02*
X120214168Y-50841108D01*
X120214168Y-50841108D02*
X120614168Y-50241108D01*
X121014168Y-50191108D02*
X120214168Y-50191108D01*
X119814168Y-49041108D02*
X121414168Y-49041108D01*
X119814168Y-52241108D02*
X119814168Y-49041108D01*
X121414168Y-52241108D02*
X119814168Y-52241108D01*
X121414168Y-49041108D02*
X121414168Y-52241108D01*
X118074168Y-50241108D02*
X118474168Y-50841108D01*
X118474168Y-50841108D02*
X117674168Y-50841108D01*
X117674168Y-50841108D02*
X118074168Y-50241108D01*
X118474168Y-50191108D02*
X117674168Y-50191108D01*
X117274168Y-49041108D02*
X118874168Y-49041108D01*
X117274168Y-52241108D02*
X117274168Y-49041108D01*
X118874168Y-52241108D02*
X117274168Y-52241108D01*
X118874168Y-49041108D02*
X118874168Y-52241108D01*
X146014168Y-50241108D02*
X146414168Y-50841108D01*
X146414168Y-50841108D02*
X145614168Y-50841108D01*
X145614168Y-50841108D02*
X146014168Y-50241108D01*
X146414168Y-50191108D02*
X145614168Y-50191108D01*
X145214168Y-49041108D02*
X146814168Y-49041108D01*
X145214168Y-52241108D02*
X145214168Y-49041108D01*
X146814168Y-52241108D02*
X145214168Y-52241108D01*
X146814168Y-49041108D02*
X146814168Y-52241108D01*
X143474168Y-50241108D02*
X143874168Y-50841108D01*
X143874168Y-50841108D02*
X143074168Y-50841108D01*
X143074168Y-50841108D02*
X143474168Y-50241108D01*
X143874168Y-50191108D02*
X143074168Y-50191108D01*
X142674168Y-49041108D02*
X144274168Y-49041108D01*
X142674168Y-52241108D02*
X142674168Y-49041108D01*
X144274168Y-52241108D02*
X142674168Y-52241108D01*
X144274168Y-49041108D02*
X144274168Y-52241108D01*
X140934168Y-50241108D02*
X141334168Y-50841108D01*
X141334168Y-50841108D02*
X140534168Y-50841108D01*
X140534168Y-50841108D02*
X140934168Y-50241108D01*
X141334168Y-50191108D02*
X140534168Y-50191108D01*
X140134168Y-49041108D02*
X141734168Y-49041108D01*
X140134168Y-52241108D02*
X140134168Y-49041108D01*
X141734168Y-52241108D02*
X140134168Y-52241108D01*
X141734168Y-49041108D02*
X141734168Y-52241108D01*
X138394168Y-50241108D02*
X138794168Y-50841108D01*
X138794168Y-50841108D02*
X137994168Y-50841108D01*
X137994168Y-50841108D02*
X138394168Y-50241108D01*
X138794168Y-50191108D02*
X137994168Y-50191108D01*
X137594168Y-49041108D02*
X139194168Y-49041108D01*
X137594168Y-52241108D02*
X137594168Y-49041108D01*
X139194168Y-52241108D02*
X137594168Y-52241108D01*
X139194168Y-49041108D02*
X139194168Y-52241108D01*
X79248000Y-108604000D02*
X78848000Y-108004000D01*
X78848000Y-108004000D02*
X79648000Y-108004000D01*
X79648000Y-108004000D02*
X79248000Y-108604000D01*
X78848000Y-108654000D02*
X79648000Y-108654000D01*
X80048000Y-109804000D02*
X78448000Y-109804000D01*
X80048000Y-106604000D02*
X80048000Y-109804000D01*
X78448000Y-106604000D02*
X80048000Y-106604000D01*
X78448000Y-109804000D02*
X78448000Y-106604000D01*
X104140000Y-116840000D02*
X104140000Y-114935000D01*
X104140000Y-114935000D02*
X111760000Y-114935000D01*
X111760000Y-114935000D02*
X111760000Y-117475000D01*
X111760000Y-117475000D02*
X104775000Y-117475000D01*
X104775000Y-117475000D02*
X104140000Y-116840000D01*
X163195000Y-109220000D02*
X161290000Y-109220000D01*
X161290000Y-109220000D02*
X161290000Y-88900000D01*
X161290000Y-88900000D02*
X163830000Y-88900000D01*
X163830000Y-88900000D02*
X163830000Y-108585000D01*
X163830000Y-108585000D02*
X163195000Y-109220000D01*
X163195000Y-85090000D02*
X161290000Y-85090000D01*
X161290000Y-85090000D02*
X161290000Y-64770000D01*
X161290000Y-64770000D02*
X163830000Y-64770000D01*
X163830000Y-64770000D02*
X163830000Y-84455000D01*
X163830000Y-84455000D02*
X163195000Y-85090000D01*
X229235000Y-88265000D02*
X227330000Y-88265000D01*
X227330000Y-88265000D02*
X227330000Y-83185000D01*
X227330000Y-83185000D02*
X229870000Y-83185000D01*
X229870000Y-83185000D02*
X229870000Y-87630000D01*
X229870000Y-87630000D02*
X229235000Y-88265000D01*
X173355000Y-80010000D02*
X171450000Y-80010000D01*
X171450000Y-80010000D02*
X171450000Y-64770000D01*
X171450000Y-64770000D02*
X173990000Y-64770000D01*
X173990000Y-64770000D02*
X173990000Y-79375000D01*
X173990000Y-79375000D02*
X173355000Y-80010000D01*
X196215000Y-113030000D02*
X194310000Y-113030000D01*
X194310000Y-113030000D02*
X194310000Y-92710000D01*
X194310000Y-92710000D02*
X196850000Y-92710000D01*
X196850000Y-92710000D02*
X196850000Y-112395000D01*
X196850000Y-112395000D02*
X196215000Y-113030000D01*
X196215000Y-88900000D02*
X194310000Y-88900000D01*
X194310000Y-88900000D02*
X194310000Y-68580000D01*
X194310000Y-68580000D02*
X196850000Y-68580000D01*
X196850000Y-68580000D02*
X196850000Y-88265000D01*
X196850000Y-88265000D02*
X196215000Y-88900000D01*
X210185000Y-43815000D02*
X213995000Y-43815000D01*
X213995000Y-43815000D02*
X213995000Y-48895000D01*
X213995000Y-48895000D02*
X208915000Y-48895000D01*
X208915000Y-48895000D02*
X208915000Y-45085000D01*
X208915000Y-45085000D02*
X210185000Y-43815000D01*
X95235000Y-72835000D02*
X93995000Y-72835000D01*
X95235000Y-70835000D02*
X95235000Y-72835000D01*
X93995000Y-70835000D02*
X95235000Y-70835000D01*
X93995000Y-72835000D02*
X93995000Y-70835000D01*
X94630000Y-90360000D02*
X95870000Y-90360000D01*
X94630000Y-92360000D02*
X94630000Y-90360000D01*
X95870000Y-92360000D02*
X94630000Y-92360000D01*
X95870000Y-90360000D02*
X95870000Y-92360000D01*
X93995000Y-75755000D02*
X95235000Y-75755000D01*
X93995000Y-77755000D02*
X93995000Y-75755000D01*
X95235000Y-77755000D02*
X93995000Y-77755000D01*
X95235000Y-75755000D02*
X95235000Y-77755000D01*
X94630000Y-84010000D02*
X95870000Y-84010000D01*
X94630000Y-86010000D02*
X94630000Y-84010000D01*
X95870000Y-86010000D02*
X94630000Y-86010000D01*
X95870000Y-84010000D02*
X95870000Y-86010000D01*
X203820000Y-57468000D02*
X202580000Y-57468000D01*
X203820000Y-55468000D02*
X203820000Y-57468000D01*
X202580000Y-55468000D02*
X203820000Y-55468000D01*
X202580000Y-57468000D02*
X202580000Y-55468000D01*
X183500000Y-57468000D02*
X182260000Y-57468000D01*
X183500000Y-55468000D02*
X183500000Y-57468000D01*
X182260000Y-55468000D02*
X183500000Y-55468000D01*
X182260000Y-57468000D02*
X182260000Y-55468000D01*
X201280000Y-57468000D02*
X200040000Y-57468000D01*
X201280000Y-55468000D02*
X201280000Y-57468000D01*
X200040000Y-55468000D02*
X201280000Y-55468000D01*
X200040000Y-57468000D02*
X200040000Y-55468000D01*
X180960000Y-57468000D02*
X179720000Y-57468000D01*
X180960000Y-55468000D02*
X180960000Y-57468000D01*
X179720000Y-55468000D02*
X180960000Y-55468000D01*
X179720000Y-57468000D02*
X179720000Y-55468000D01*
X198740000Y-57468000D02*
X197500000Y-57468000D01*
X198740000Y-55468000D02*
X198740000Y-57468000D01*
X197500000Y-55468000D02*
X198740000Y-55468000D01*
X197500000Y-57468000D02*
X197500000Y-55468000D01*
X178420000Y-57468000D02*
X177180000Y-57468000D01*
X178420000Y-55468000D02*
X178420000Y-57468000D01*
X177180000Y-55468000D02*
X178420000Y-55468000D01*
X177180000Y-57468000D02*
X177180000Y-55468000D01*
X196200000Y-57468000D02*
X194960000Y-57468000D01*
X196200000Y-55468000D02*
X196200000Y-57468000D01*
X194960000Y-55468000D02*
X196200000Y-55468000D01*
X194960000Y-57468000D02*
X194960000Y-55468000D01*
X175880000Y-57468000D02*
X174640000Y-57468000D01*
X175880000Y-55468000D02*
X175880000Y-57468000D01*
X174640000Y-55468000D02*
X175880000Y-55468000D01*
X174640000Y-57468000D02*
X174640000Y-55468000D01*
X193660000Y-57468000D02*
X192420000Y-57468000D01*
X193660000Y-55468000D02*
X193660000Y-57468000D01*
X192420000Y-55468000D02*
X193660000Y-55468000D01*
X192420000Y-57468000D02*
X192420000Y-55468000D01*
X173340000Y-57468000D02*
X172100000Y-57468000D01*
X173340000Y-55468000D02*
X173340000Y-57468000D01*
X172100000Y-55468000D02*
X173340000Y-55468000D01*
X172100000Y-57468000D02*
X172100000Y-55468000D01*
X191120000Y-57468000D02*
X189880000Y-57468000D01*
X191120000Y-55468000D02*
X191120000Y-57468000D01*
X189880000Y-55468000D02*
X191120000Y-55468000D01*
X189880000Y-57468000D02*
X189880000Y-55468000D01*
X170800000Y-57468000D02*
X169560000Y-57468000D01*
X170800000Y-55468000D02*
X170800000Y-57468000D01*
X169560000Y-55468000D02*
X170800000Y-55468000D01*
X169560000Y-57468000D02*
X169560000Y-55468000D01*
X188580000Y-57468000D02*
X187340000Y-57468000D01*
X188580000Y-55468000D02*
X188580000Y-57468000D01*
X187340000Y-55468000D02*
X188580000Y-55468000D01*
X187340000Y-57468000D02*
X187340000Y-55468000D01*
X168260000Y-57468000D02*
X167020000Y-57468000D01*
X168260000Y-55468000D02*
X168260000Y-57468000D01*
X167020000Y-55468000D02*
X168260000Y-55468000D01*
X167020000Y-57468000D02*
X167020000Y-55468000D01*
X186040000Y-57468000D02*
X184800000Y-57468000D01*
X186040000Y-55468000D02*
X186040000Y-57468000D01*
X184800000Y-55468000D02*
X186040000Y-55468000D01*
X184800000Y-57468000D02*
X184800000Y-55468000D01*
X165720000Y-57468000D02*
X164480000Y-57468000D01*
X165720000Y-55468000D02*
X165720000Y-57468000D01*
X164480000Y-55468000D02*
X165720000Y-55468000D01*
X164480000Y-57468000D02*
X164480000Y-55468000D01*
X163180000Y-57468000D02*
X161940000Y-57468000D01*
X163180000Y-55468000D02*
X163180000Y-57468000D01*
X161940000Y-55468000D02*
X163180000Y-55468000D01*
X161940000Y-57468000D02*
X161940000Y-55468000D01*
X136510000Y-57468000D02*
X135270000Y-57468000D01*
X136510000Y-55468000D02*
X136510000Y-57468000D01*
X135270000Y-55468000D02*
X136510000Y-55468000D01*
X135270000Y-57468000D02*
X135270000Y-55468000D01*
X160386000Y-57468000D02*
X159146000Y-57468000D01*
X160386000Y-55468000D02*
X160386000Y-57468000D01*
X159146000Y-55468000D02*
X160386000Y-55468000D01*
X159146000Y-57468000D02*
X159146000Y-55468000D01*
X133970000Y-57468000D02*
X132730000Y-57468000D01*
X133970000Y-55468000D02*
X133970000Y-57468000D01*
X132730000Y-55468000D02*
X133970000Y-55468000D01*
X132730000Y-57468000D02*
X132730000Y-55468000D01*
X157846000Y-57468000D02*
X156606000Y-57468000D01*
X157846000Y-55468000D02*
X157846000Y-57468000D01*
X156606000Y-55468000D02*
X157846000Y-55468000D01*
X156606000Y-57468000D02*
X156606000Y-55468000D01*
X131430000Y-57468000D02*
X130190000Y-57468000D01*
X131430000Y-55468000D02*
X131430000Y-57468000D01*
X130190000Y-55468000D02*
X131430000Y-55468000D01*
X130190000Y-57468000D02*
X130190000Y-55468000D01*
X155560000Y-57468000D02*
X154320000Y-57468000D01*
X155560000Y-55468000D02*
X155560000Y-57468000D01*
X154320000Y-55468000D02*
X155560000Y-55468000D01*
X154320000Y-57468000D02*
X154320000Y-55468000D01*
X128890000Y-57468000D02*
X127650000Y-57468000D01*
X128890000Y-55468000D02*
X128890000Y-57468000D01*
X127650000Y-55468000D02*
X128890000Y-55468000D01*
X127650000Y-57468000D02*
X127650000Y-55468000D01*
X123810000Y-57468000D02*
X122570000Y-57468000D01*
X123810000Y-55468000D02*
X123810000Y-57468000D01*
X122570000Y-55468000D02*
X123810000Y-55468000D01*
X122570000Y-57468000D02*
X122570000Y-55468000D01*
X126350000Y-57468000D02*
X125110000Y-57468000D01*
X126350000Y-55468000D02*
X126350000Y-57468000D01*
X125110000Y-55468000D02*
X126350000Y-55468000D01*
X125110000Y-57468000D02*
X125110000Y-55468000D01*
X121270000Y-57468000D02*
X120030000Y-57468000D01*
X121270000Y-55468000D02*
X121270000Y-57468000D01*
X120030000Y-55468000D02*
X121270000Y-55468000D01*
X120030000Y-57468000D02*
X120030000Y-55468000D01*
X118730000Y-57468000D02*
X117490000Y-57468000D01*
X118730000Y-55468000D02*
X118730000Y-57468000D01*
X117490000Y-55468000D02*
X118730000Y-55468000D01*
X117490000Y-57468000D02*
X117490000Y-55468000D01*
X146670000Y-57468000D02*
X145430000Y-57468000D01*
X146670000Y-55468000D02*
X146670000Y-57468000D01*
X145430000Y-55468000D02*
X146670000Y-55468000D01*
X145430000Y-57468000D02*
X145430000Y-55468000D01*
X144130000Y-57468000D02*
X142890000Y-57468000D01*
X144130000Y-55468000D02*
X144130000Y-57468000D01*
X142890000Y-55468000D02*
X144130000Y-55468000D01*
X142890000Y-57468000D02*
X142890000Y-55468000D01*
X141590000Y-57468000D02*
X140350000Y-57468000D01*
X141590000Y-55468000D02*
X141590000Y-57468000D01*
X140350000Y-55468000D02*
X141590000Y-55468000D01*
X140350000Y-57468000D02*
X140350000Y-55468000D01*
X139050000Y-57468000D02*
X137810000Y-57468000D01*
X139050000Y-55468000D02*
X139050000Y-57468000D01*
X137810000Y-55468000D02*
X139050000Y-55468000D01*
X137810000Y-57468000D02*
X137810000Y-55468000D01*
X79868000Y-103442000D02*
X78628000Y-103442000D01*
X79868000Y-101442000D02*
X79868000Y-103442000D01*
X78628000Y-101442000D02*
X79868000Y-101442000D01*
X78628000Y-103442000D02*
X78628000Y-101442000D01*
X100695000Y-62865000D02*
X106045000Y-62865000D01*
X106045000Y-62865000D02*
X106045000Y-85725000D01*
X106045000Y-85725000D02*
X99695000Y-85725000D01*
X99695000Y-85725000D02*
X99695000Y-63865000D01*
X99695000Y-63865000D02*
X100695000Y-62865000D01*
X97790000Y-62805000D02*
X97790000Y-85785000D01*
X97790000Y-85785000D02*
X107950000Y-85785000D01*
X107950000Y-85785000D02*
X107950000Y-62805000D01*
X107950000Y-62805000D02*
X97790000Y-62805000D01*
X144765000Y-62865000D02*
X158495000Y-62865000D01*
X158495000Y-62865000D02*
X158495000Y-113665000D01*
X158495000Y-113665000D02*
X143765000Y-113665000D01*
X143765000Y-113665000D02*
X143765000Y-63865000D01*
X143765000Y-63865000D02*
X144765000Y-62865000D01*
X142240000Y-62805000D02*
X142240000Y-113725000D01*
X142240000Y-113725000D02*
X160020000Y-113725000D01*
X160020000Y-113725000D02*
X160020000Y-62805000D01*
X160020000Y-62805000D02*
X142240000Y-62805000D01*
X177785000Y-62865000D02*
X191515000Y-62865000D01*
X191515000Y-62865000D02*
X191515000Y-113665000D01*
X191515000Y-113665000D02*
X176785000Y-113665000D01*
X176785000Y-113665000D02*
X176785000Y-63865000D01*
X176785000Y-63865000D02*
X177785000Y-62865000D01*
X175260000Y-62805000D02*
X175260000Y-113725000D01*
X175260000Y-113725000D02*
X193040000Y-113725000D01*
X193040000Y-113725000D02*
X193040000Y-62805000D01*
X193040000Y-62805000D02*
X175260000Y-62805000D01*
X209535000Y-62865000D02*
X223265000Y-62865000D01*
X223265000Y-62865000D02*
X223265000Y-98425000D01*
X223265000Y-98425000D02*
X208535000Y-98425000D01*
X208535000Y-98425000D02*
X208535000Y-63865000D01*
X208535000Y-63865000D02*
X209535000Y-62865000D01*
X207010000Y-62805000D02*
X207010000Y-98485000D01*
X207010000Y-98485000D02*
X224790000Y-98485000D01*
X224790000Y-98485000D02*
X224790000Y-62805000D01*
X224790000Y-62805000D02*
X207010000Y-62805000D01*
X193040000Y-122920000D02*
X193040000Y-128270000D01*
X193040000Y-128270000D02*
X175260000Y-128270000D01*
X175260000Y-128270000D02*
X175260000Y-121920000D01*
X175260000Y-121920000D02*
X192040000Y-121920000D01*
X192040000Y-121920000D02*
X193040000Y-122920000D01*
X193100000Y-120015000D02*
X175200000Y-120015000D01*
X175200000Y-120015000D02*
X175200000Y-130175000D01*
X175200000Y-130175000D02*
X193100000Y-130175000D01*
X193100000Y-130175000D02*
X193100000Y-120015000D01*
X133350000Y-122920000D02*
X133350000Y-128270000D01*
X133350000Y-128270000D02*
X113030000Y-128270000D01*
X113030000Y-128270000D02*
X113030000Y-121920000D01*
X113030000Y-121920000D02*
X132350000Y-121920000D01*
X132350000Y-121920000D02*
X133350000Y-122920000D01*
X133410000Y-120015000D02*
X112970000Y-120015000D01*
X112970000Y-120015000D02*
X112970000Y-130175000D01*
X112970000Y-130175000D02*
X133410000Y-130175000D01*
X133410000Y-130175000D02*
X133410000Y-120015000D01*
X199390000Y-123460000D02*
X199390000Y-118110000D01*
X199390000Y-118110000D02*
X222250000Y-118110000D01*
X222250000Y-118110000D02*
X222250000Y-124460000D01*
X222250000Y-124460000D02*
X200390000Y-124460000D01*
X200390000Y-124460000D02*
X199390000Y-123460000D01*
X199330000Y-126365000D02*
X222310000Y-126365000D01*
X222310000Y-126365000D02*
X222310000Y-116205000D01*
X222310000Y-116205000D02*
X199330000Y-116205000D01*
X199330000Y-116205000D02*
X199330000Y-126365000D01*
X199390000Y-112030000D02*
X199390000Y-106680000D01*
X199390000Y-106680000D02*
X222250000Y-106680000D01*
X222250000Y-106680000D02*
X222250000Y-113030000D01*
X222250000Y-113030000D02*
X200390000Y-113030000D01*
X200390000Y-113030000D02*
X199390000Y-112030000D01*
X199330000Y-114935000D02*
X222310000Y-114935000D01*
X222310000Y-114935000D02*
X222310000Y-104775000D01*
X222310000Y-104775000D02*
X199330000Y-104775000D01*
X199330000Y-104775000D02*
X199330000Y-114935000D01*
X105045000Y-108585000D02*
X99695000Y-108585000D01*
X99695000Y-108585000D02*
X99695000Y-90805000D01*
X99695000Y-90805000D02*
X106045000Y-90805000D01*
X106045000Y-90805000D02*
X106045000Y-107585000D01*
X106045000Y-107585000D02*
X105045000Y-108585000D01*
X107950000Y-108645000D02*
X107950000Y-90745000D01*
X107950000Y-90745000D02*
X97790000Y-90745000D01*
X97790000Y-90745000D02*
X97790000Y-108645000D01*
X97790000Y-108645000D02*
X107950000Y-108645000D01*
X90584000Y-110639000D02*
X90584000Y-111639000D01*
X90584000Y-111639000D02*
X85184000Y-111639000D01*
X85184000Y-111639000D02*
X85184000Y-110639000D01*
X91134000Y-110639000D02*
X84634000Y-110639000D01*
X84634000Y-110639000D02*
X84634000Y-104419000D01*
X84634000Y-104419000D02*
X90134000Y-104419000D01*
X90134000Y-104419000D02*
X91134000Y-105419000D01*
X91134000Y-105419000D02*
X91134000Y-110639000D01*
X90539000Y-104824000D02*
X90539000Y-101719000D01*
X90539000Y-101719000D02*
X89789000Y-101719000D01*
X89789000Y-101719000D02*
X89789000Y-104419000D01*
X88259000Y-104419000D02*
X88259000Y-101719000D01*
X88259000Y-101719000D02*
X87509000Y-101719000D01*
X87509000Y-101719000D02*
X87509000Y-104419000D01*
X85979000Y-104419000D02*
X85979000Y-101719000D01*
X85979000Y-101719000D02*
X85229000Y-101719000D01*
X85229000Y-101719000D02*
X85229000Y-104419000D01*
X92090000Y-56705000D02*
X92090000Y-61405000D01*
X92090000Y-61405000D02*
X103490000Y-61405000D01*
X103490000Y-61405000D02*
X103490000Y-56705000D01*
X103490000Y-56705000D02*
X92090000Y-56705000D01*
X94775000Y-56940000D02*
X100805000Y-56940000D01*
X94775000Y-61170000D02*
X100805000Y-61170000D01*
X94775000Y-61170000D02*
G75*
G02X94775000Y-56940000I0J2115000D01*
G01*
X100805000Y-61170000D02*
G75*
G03X100805000Y-56940000I0J2115000D01*
G01*
X104140000Y-120523000D02*
X104140000Y-118618000D01*
X104140000Y-118618000D02*
X111760000Y-118618000D01*
X111760000Y-118618000D02*
X111760000Y-121158000D01*
X111760000Y-121158000D02*
X104775000Y-121158000D01*
X104775000Y-121158000D02*
X104140000Y-120523000D01*
X227965000Y-90678000D02*
X229870000Y-90678000D01*
X229870000Y-90678000D02*
X229870000Y-105918000D01*
X229870000Y-105918000D02*
X227330000Y-105918000D01*
X227330000Y-105918000D02*
X227330000Y-91313000D01*
X227330000Y-91313000D02*
X227965000Y-90678000D01*
X110490000Y-103505000D02*
X108585000Y-103505000D01*
X108585000Y-103505000D02*
X108585000Y-65405000D01*
X108585000Y-65405000D02*
X111125000Y-65405000D01*
X111125000Y-65405000D02*
X111125000Y-102870000D01*
X111125000Y-102870000D02*
X110490000Y-103505000D01*
X133985000Y-79375000D02*
X135890000Y-79375000D01*
X135890000Y-79375000D02*
X135890000Y-92075000D01*
X135890000Y-92075000D02*
X133350000Y-92075000D01*
X133350000Y-92075000D02*
X133350000Y-80010000D01*
X133350000Y-80010000D02*
X133985000Y-79375000D01*
X133985000Y-65659000D02*
X135890000Y-65659000D01*
X135890000Y-65659000D02*
X135890000Y-78359000D01*
X135890000Y-78359000D02*
X133350000Y-78359000D01*
X133350000Y-78359000D02*
X133350000Y-66294000D01*
X133350000Y-66294000D02*
X133985000Y-65659000D01*
X139192000Y-133096000D02*
X139192000Y-131191000D01*
X139192000Y-131191000D02*
X159512000Y-131191000D01*
X159512000Y-131191000D02*
X159512000Y-133731000D01*
X159512000Y-133731000D02*
X139827000Y-133731000D01*
X139827000Y-133731000D02*
X139192000Y-133096000D01*
X133477000Y-131826000D02*
X133477000Y-133731000D01*
X133477000Y-133731000D02*
X113157000Y-133731000D01*
X113157000Y-133731000D02*
X113157000Y-131191000D01*
X113157000Y-131191000D02*
X132842000Y-131191000D01*
X132842000Y-131191000D02*
X133477000Y-131826000D01*
X139065000Y-126889000D02*
X139065000Y-121539000D01*
X139065000Y-121539000D02*
X164465000Y-121539000D01*
X164465000Y-121539000D02*
X164465000Y-127889000D01*
X164465000Y-127889000D02*
X140065000Y-127889000D01*
X140065000Y-127889000D02*
X139065000Y-126889000D01*
X139005000Y-129794000D02*
X164525000Y-129794000D01*
X164525000Y-129794000D02*
X164525000Y-119634000D01*
X164525000Y-119634000D02*
X139005000Y-119634000D01*
X139005000Y-119634000D02*
X139005000Y-129794000D01*
X111125000Y-125476000D02*
X111125000Y-122936000D01*
X112125000Y-125476000D02*
G75*
G03X112125000Y-125476000I-1000000J0D01*
G01*
X104775000Y-125476000D02*
X104775000Y-122936000D01*
X105775000Y-125476000D02*
G75*
G03X105775000Y-125476000I-1000000J0D01*
G01*
D11*
X223520096Y-49455000D02*
X223424858Y-49407381D01*
X223282001Y-49407381D01*
X223139143Y-49455000D01*
X223043905Y-49550238D01*
X222996286Y-49645476D01*
X222948667Y-49835952D01*
X222948667Y-49978810D01*
X222996286Y-50169286D01*
X223043905Y-50264524D01*
X223139143Y-50359762D01*
X223282001Y-50407381D01*
X223377239Y-50407381D01*
X223520096Y-50359762D01*
X223567715Y-50312143D01*
X223567715Y-49978810D01*
X223377239Y-49978810D01*
X223996286Y-50407381D02*
X223996286Y-49407381D01*
X224567715Y-50407381D01*
X224567715Y-49407381D01*
X225043905Y-50407381D02*
X225043905Y-49407381D01*
X225282000Y-49407381D01*
X225424858Y-49455000D01*
X225520096Y-49550238D01*
X225567715Y-49645476D01*
X225615334Y-49835952D01*
X225615334Y-49978810D01*
X225567715Y-50169286D01*
X225520096Y-50264524D01*
X225424858Y-50359762D01*
X225282000Y-50407381D01*
X225043905Y-50407381D01*
X223782000Y-47116904D02*
X223734381Y-47212142D01*
X223734381Y-47354999D01*
X223782000Y-47497857D01*
X223877238Y-47593095D01*
X223972476Y-47640714D01*
X224162952Y-47688333D01*
X224305810Y-47688333D01*
X224496286Y-47640714D01*
X224591524Y-47593095D01*
X224686762Y-47497857D01*
X224734381Y-47354999D01*
X224734381Y-47259761D01*
X224686762Y-47116904D01*
X224639143Y-47069285D01*
X224305810Y-47069285D01*
X224305810Y-47259761D01*
X224734381Y-46640714D02*
X223734381Y-46640714D01*
X224734381Y-46069285D01*
X223734381Y-46069285D01*
X224734381Y-45593095D02*
X223734381Y-45593095D01*
X223734381Y-45355000D01*
X223782000Y-45212142D01*
X223877238Y-45116904D01*
X223972476Y-45069285D01*
X224162952Y-45021666D01*
X224305810Y-45021666D01*
X224496286Y-45069285D01*
X224591524Y-45116904D01*
X224686762Y-45212142D01*
X224734381Y-45355000D01*
X224734381Y-45593095D01*
X217170096Y-49455000D02*
X217074858Y-49407381D01*
X216932001Y-49407381D01*
X216789143Y-49455000D01*
X216693905Y-49550238D01*
X216646286Y-49645476D01*
X216598667Y-49835952D01*
X216598667Y-49978810D01*
X216646286Y-50169286D01*
X216693905Y-50264524D01*
X216789143Y-50359762D01*
X216932001Y-50407381D01*
X217027239Y-50407381D01*
X217170096Y-50359762D01*
X217217715Y-50312143D01*
X217217715Y-49978810D01*
X217027239Y-49978810D01*
X217646286Y-50407381D02*
X217646286Y-49407381D01*
X218217715Y-50407381D01*
X218217715Y-49407381D01*
X218693905Y-50407381D02*
X218693905Y-49407381D01*
X218932000Y-49407381D01*
X219074858Y-49455000D01*
X219170096Y-49550238D01*
X219217715Y-49645476D01*
X219265334Y-49835952D01*
X219265334Y-49978810D01*
X219217715Y-50169286D01*
X219170096Y-50264524D01*
X219074858Y-50359762D01*
X218932000Y-50407381D01*
X218693905Y-50407381D01*
X217432000Y-47116904D02*
X217384381Y-47212142D01*
X217384381Y-47354999D01*
X217432000Y-47497857D01*
X217527238Y-47593095D01*
X217622476Y-47640714D01*
X217812952Y-47688333D01*
X217955810Y-47688333D01*
X218146286Y-47640714D01*
X218241524Y-47593095D01*
X218336762Y-47497857D01*
X218384381Y-47354999D01*
X218384381Y-47259761D01*
X218336762Y-47116904D01*
X218289143Y-47069285D01*
X217955810Y-47069285D01*
X217955810Y-47259761D01*
X218384381Y-46640714D02*
X217384381Y-46640714D01*
X218384381Y-46069285D01*
X217384381Y-46069285D01*
X218384381Y-45593095D02*
X217384381Y-45593095D01*
X217384381Y-45355000D01*
X217432000Y-45212142D01*
X217527238Y-45116904D01*
X217622476Y-45069285D01*
X217812952Y-45021666D01*
X217955810Y-45021666D01*
X218146286Y-45069285D01*
X218241524Y-45116904D01*
X218336762Y-45212142D01*
X218384381Y-45355000D01*
X218384381Y-45593095D01*
X120396190Y-114605952D02*
X120300952Y-114558333D01*
X120253333Y-114510714D01*
X120205714Y-114415476D01*
X120205714Y-114367857D01*
X120253333Y-114272619D01*
X120300952Y-114225000D01*
X120396190Y-114177381D01*
X120586667Y-114177381D01*
X120681905Y-114225000D01*
X120729524Y-114272619D01*
X120777143Y-114367857D01*
X120777143Y-114415476D01*
X120729524Y-114510714D01*
X120681905Y-114558333D01*
X120586667Y-114605952D01*
X120396190Y-114605952D01*
X120300952Y-114653571D01*
X120253333Y-114701190D01*
X120205714Y-114796429D01*
X120205714Y-114986905D01*
X120253333Y-115082143D01*
X120300952Y-115129762D01*
X120396190Y-115177381D01*
X120586667Y-115177381D01*
X120681905Y-115129762D01*
X120729524Y-115082143D01*
X120777143Y-114986905D01*
X120777143Y-114796429D01*
X120729524Y-114701190D01*
X120681905Y-114653571D01*
X120586667Y-114605952D01*
X121396190Y-114177381D02*
X121491429Y-114177381D01*
X121586667Y-114225000D01*
X121634286Y-114272619D01*
X121681905Y-114367857D01*
X121729524Y-114558333D01*
X121729524Y-114796429D01*
X121681905Y-114986905D01*
X121634286Y-115082143D01*
X121586667Y-115129762D01*
X121491429Y-115177381D01*
X121396190Y-115177381D01*
X121300952Y-115129762D01*
X121253333Y-115082143D01*
X121205714Y-114986905D01*
X121158095Y-114796429D01*
X121158095Y-114558333D01*
X121205714Y-114367857D01*
X121253333Y-114272619D01*
X121300952Y-114225000D01*
X121396190Y-114177381D01*
X122300952Y-114605952D02*
X122205714Y-114558333D01*
X122158095Y-114510714D01*
X122110476Y-114415476D01*
X122110476Y-114367857D01*
X122158095Y-114272619D01*
X122205714Y-114225000D01*
X122300952Y-114177381D01*
X122491429Y-114177381D01*
X122586667Y-114225000D01*
X122634286Y-114272619D01*
X122681905Y-114367857D01*
X122681905Y-114415476D01*
X122634286Y-114510714D01*
X122586667Y-114558333D01*
X122491429Y-114605952D01*
X122300952Y-114605952D01*
X122205714Y-114653571D01*
X122158095Y-114701190D01*
X122110476Y-114796429D01*
X122110476Y-114986905D01*
X122158095Y-115082143D01*
X122205714Y-115129762D01*
X122300952Y-115177381D01*
X122491429Y-115177381D01*
X122586667Y-115129762D01*
X122634286Y-115082143D01*
X122681905Y-114986905D01*
X122681905Y-114796429D01*
X122634286Y-114701190D01*
X122586667Y-114653571D01*
X122491429Y-114605952D01*
X123253333Y-114605952D02*
X123158095Y-114558333D01*
X123110476Y-114510714D01*
X123062857Y-114415476D01*
X123062857Y-114367857D01*
X123110476Y-114272619D01*
X123158095Y-114225000D01*
X123253333Y-114177381D01*
X123443810Y-114177381D01*
X123539048Y-114225000D01*
X123586667Y-114272619D01*
X123634286Y-114367857D01*
X123634286Y-114415476D01*
X123586667Y-114510714D01*
X123539048Y-114558333D01*
X123443810Y-114605952D01*
X123253333Y-114605952D01*
X123158095Y-114653571D01*
X123110476Y-114701190D01*
X123062857Y-114796429D01*
X123062857Y-114986905D01*
X123110476Y-115082143D01*
X123158095Y-115129762D01*
X123253333Y-115177381D01*
X123443810Y-115177381D01*
X123539048Y-115129762D01*
X123586667Y-115082143D01*
X123634286Y-114986905D01*
X123634286Y-114796429D01*
X123586667Y-114701190D01*
X123539048Y-114653571D01*
X123443810Y-114605952D01*
X121158095Y-87717381D02*
X121158095Y-88526905D01*
X121205714Y-88622143D01*
X121253333Y-88669762D01*
X121348571Y-88717381D01*
X121539048Y-88717381D01*
X121634286Y-88669762D01*
X121681905Y-88622143D01*
X121729524Y-88526905D01*
X121729524Y-87717381D01*
X122158095Y-87812619D02*
X122205714Y-87765000D01*
X122300952Y-87717381D01*
X122539048Y-87717381D01*
X122634286Y-87765000D01*
X122681905Y-87812619D01*
X122729524Y-87907857D01*
X122729524Y-88003095D01*
X122681905Y-88145952D01*
X122110476Y-88717381D01*
X122729524Y-88717381D01*
X92289334Y-86209143D02*
X92241715Y-86256762D01*
X92098858Y-86304381D01*
X92003620Y-86304381D01*
X91860762Y-86256762D01*
X91765524Y-86161524D01*
X91717905Y-86066286D01*
X91670286Y-85875810D01*
X91670286Y-85732952D01*
X91717905Y-85542476D01*
X91765524Y-85447238D01*
X91860762Y-85352000D01*
X92003620Y-85304381D01*
X92098858Y-85304381D01*
X92241715Y-85352000D01*
X92289334Y-85399619D01*
X93241715Y-86304381D02*
X92670286Y-86304381D01*
X92956000Y-86304381D02*
X92956000Y-85304381D01*
X92860762Y-85447238D01*
X92765524Y-85542476D01*
X92670286Y-85590095D01*
X92289334Y-71477143D02*
X92241715Y-71524762D01*
X92098858Y-71572381D01*
X92003620Y-71572381D01*
X91860762Y-71524762D01*
X91765524Y-71429524D01*
X91717905Y-71334286D01*
X91670286Y-71143810D01*
X91670286Y-71000952D01*
X91717905Y-70810476D01*
X91765524Y-70715238D01*
X91860762Y-70620000D01*
X92003620Y-70572381D01*
X92098858Y-70572381D01*
X92241715Y-70620000D01*
X92289334Y-70667619D01*
X92670286Y-70667619D02*
X92717905Y-70620000D01*
X92813143Y-70572381D01*
X93051239Y-70572381D01*
X93146477Y-70620000D01*
X93194096Y-70667619D01*
X93241715Y-70762857D01*
X93241715Y-70858095D01*
X93194096Y-71000952D01*
X92622667Y-71572381D01*
X93241715Y-71572381D01*
X92321143Y-53074381D02*
X91844952Y-53074381D01*
X91797333Y-53550571D01*
X91844952Y-53502952D01*
X91940190Y-53455333D01*
X92178286Y-53455333D01*
X92273524Y-53502952D01*
X92321143Y-53550571D01*
X92368762Y-53645810D01*
X92368762Y-53883905D01*
X92321143Y-53979143D01*
X92273524Y-54026762D01*
X92178286Y-54074381D01*
X91940190Y-54074381D01*
X91844952Y-54026762D01*
X91797333Y-53979143D01*
X92797333Y-53407714D02*
X92797333Y-54407714D01*
X92797333Y-53455333D02*
X92892571Y-53407714D01*
X93083048Y-53407714D01*
X93178286Y-53455333D01*
X93225905Y-53502952D01*
X93273524Y-53598190D01*
X93273524Y-53883905D01*
X93225905Y-53979143D01*
X93178286Y-54026762D01*
X93083048Y-54074381D01*
X92892571Y-54074381D01*
X92797333Y-54026762D01*
X94035429Y-53550571D02*
X93702095Y-53550571D01*
X93702095Y-54074381D02*
X93702095Y-53074381D01*
X94178286Y-53074381D01*
X92797334Y-57479143D02*
X92749715Y-57526762D01*
X92606858Y-57574381D01*
X92511620Y-57574381D01*
X92368762Y-57526762D01*
X92273524Y-57431524D01*
X92225905Y-57336286D01*
X92178286Y-57145810D01*
X92178286Y-57002952D01*
X92225905Y-56812476D01*
X92273524Y-56717238D01*
X92368762Y-56622000D01*
X92511620Y-56574381D01*
X92606858Y-56574381D01*
X92749715Y-56622000D01*
X92797334Y-56669619D01*
X93130667Y-56574381D02*
X93749715Y-56574381D01*
X93416381Y-56955333D01*
X93559239Y-56955333D01*
X93654477Y-57002952D01*
X93702096Y-57050571D01*
X93749715Y-57145810D01*
X93749715Y-57383905D01*
X93702096Y-57479143D01*
X93654477Y-57526762D01*
X93559239Y-57574381D01*
X93273524Y-57574381D01*
X93178286Y-57526762D01*
X93130667Y-57479143D01*
X91158381Y-103993238D02*
X91158381Y-104564667D01*
X91158381Y-104278953D02*
X90158381Y-104278953D01*
X90301238Y-104374191D01*
X90396476Y-104469429D01*
X90444095Y-104564667D01*
X90491714Y-103136095D02*
X91158381Y-103136095D01*
X90491714Y-103564667D02*
X91015524Y-103564667D01*
X91110762Y-103517048D01*
X91158381Y-103421810D01*
X91158381Y-103278952D01*
X91110762Y-103183714D01*
X91063143Y-103136095D01*
X90634571Y-102326571D02*
X90634571Y-102659905D01*
X91158381Y-102659905D02*
X90158381Y-102659905D01*
X90158381Y-102183714D01*
X94563143Y-103564666D02*
X94610762Y-103612285D01*
X94658381Y-103755142D01*
X94658381Y-103850380D01*
X94610762Y-103993238D01*
X94515524Y-104088476D01*
X94420286Y-104136095D01*
X94229810Y-104183714D01*
X94086952Y-104183714D01*
X93896476Y-104136095D01*
X93801238Y-104088476D01*
X93706000Y-103993238D01*
X93658381Y-103850380D01*
X93658381Y-103755142D01*
X93706000Y-103612285D01*
X93753619Y-103564666D01*
X93991714Y-102707523D02*
X94658381Y-102707523D01*
X93610762Y-102945619D02*
X94325048Y-103183714D01*
X94325048Y-102564666D01*
X86701334Y-97667143D02*
X86653715Y-97714762D01*
X86510858Y-97762381D01*
X86415620Y-97762381D01*
X86272762Y-97714762D01*
X86177524Y-97619524D01*
X86129905Y-97524286D01*
X86082286Y-97333810D01*
X86082286Y-97190952D01*
X86129905Y-97000476D01*
X86177524Y-96905238D01*
X86272762Y-96810000D01*
X86415620Y-96762381D01*
X86510858Y-96762381D01*
X86653715Y-96810000D01*
X86701334Y-96857619D01*
X87606096Y-96762381D02*
X87129905Y-96762381D01*
X87082286Y-97238571D01*
X87129905Y-97190952D01*
X87225143Y-97143333D01*
X87463239Y-97143333D01*
X87558477Y-97190952D01*
X87606096Y-97238571D01*
X87653715Y-97333810D01*
X87653715Y-97571905D01*
X87606096Y-97667143D01*
X87558477Y-97714762D01*
X87463239Y-97762381D01*
X87225143Y-97762381D01*
X87129905Y-97714762D01*
X87082286Y-97667143D01*
X83164667Y-123252381D02*
X83831334Y-123252381D01*
X83402762Y-124252381D01*
X84212286Y-123871429D02*
X84974191Y-123871429D01*
X85402762Y-123347619D02*
X85450381Y-123300000D01*
X85545619Y-123252381D01*
X85783715Y-123252381D01*
X85878953Y-123300000D01*
X85926572Y-123347619D01*
X85974191Y-123442857D01*
X85974191Y-123538095D01*
X85926572Y-123680952D01*
X85355143Y-124252381D01*
X85974191Y-124252381D01*
X86878953Y-123252381D02*
X86402762Y-123252381D01*
X86355143Y-123728571D01*
X86402762Y-123680952D01*
X86498000Y-123633333D01*
X86736096Y-123633333D01*
X86831334Y-123680952D01*
X86878953Y-123728571D01*
X86926572Y-123823810D01*
X86926572Y-124061905D01*
X86878953Y-124157143D01*
X86831334Y-124204762D01*
X86736096Y-124252381D01*
X86498000Y-124252381D01*
X86402762Y-124204762D01*
X86355143Y-124157143D01*
X87212286Y-123252381D02*
X87545619Y-124252381D01*
X87878953Y-123252381D01*
X108402381Y-124944095D02*
X107402381Y-124944095D01*
X107402381Y-124706000D01*
X107450000Y-124563142D01*
X107545238Y-124467904D01*
X107640476Y-124420285D01*
X107830952Y-124372666D01*
X107973810Y-124372666D01*
X108164286Y-124420285D01*
X108259524Y-124467904D01*
X108354762Y-124563142D01*
X108402381Y-124706000D01*
X108402381Y-124944095D01*
X108402381Y-123420285D02*
X108402381Y-123991714D01*
X108402381Y-123706000D02*
X107402381Y-123706000D01*
X107545238Y-123801238D01*
X107640476Y-123896476D01*
X107688095Y-123991714D01*
X82748381Y-101576095D02*
X81748381Y-101576095D01*
X81748381Y-101338000D01*
X81796000Y-101195142D01*
X81891238Y-101099904D01*
X81986476Y-101052285D01*
X82176952Y-101004666D01*
X82319810Y-101004666D01*
X82510286Y-101052285D01*
X82605524Y-101099904D01*
X82700762Y-101195142D01*
X82748381Y-101338000D01*
X82748381Y-101576095D01*
X81843619Y-100623714D02*
X81796000Y-100576095D01*
X81748381Y-100480857D01*
X81748381Y-100242761D01*
X81796000Y-100147523D01*
X81843619Y-100099904D01*
X81938857Y-100052285D01*
X82034095Y-100052285D01*
X82176952Y-100099904D01*
X82748381Y-100671333D01*
X82748381Y-100052285D01*
X81600381Y-109537333D02*
X80600381Y-109537333D01*
X80600381Y-109156380D01*
X80648000Y-109061142D01*
X80695619Y-109013523D01*
X80790857Y-108965904D01*
X80933714Y-108965904D01*
X81028952Y-109013523D01*
X81076571Y-109061142D01*
X81124190Y-109156380D01*
X81124190Y-109537333D01*
X80600381Y-108632571D02*
X81600381Y-108394476D01*
X80886095Y-108203999D01*
X81600381Y-108013523D01*
X80600381Y-107775428D01*
X81600381Y-106823047D02*
X81124190Y-107156381D01*
X81600381Y-107394476D02*
X80600381Y-107394476D01*
X80600381Y-107013523D01*
X80648000Y-106918285D01*
X80695619Y-106870666D01*
X80790857Y-106823047D01*
X80933714Y-106823047D01*
X81028952Y-106870666D01*
X81076571Y-106918285D01*
X81124190Y-107013523D01*
X81124190Y-107394476D01*
X105640476Y-116562143D02*
X105592857Y-116609762D01*
X105450000Y-116657381D01*
X105354762Y-116657381D01*
X105211904Y-116609762D01*
X105116666Y-116514524D01*
X105069047Y-116419286D01*
X105021428Y-116228810D01*
X105021428Y-116085952D01*
X105069047Y-115895476D01*
X105116666Y-115800238D01*
X105211904Y-115705000D01*
X105354762Y-115657381D01*
X105450000Y-115657381D01*
X105592857Y-115705000D01*
X105640476Y-115752619D01*
X106545238Y-116657381D02*
X106069047Y-116657381D01*
X106069047Y-115657381D01*
X106878571Y-116657381D02*
X106878571Y-115657381D01*
X107450000Y-116657381D02*
X107021428Y-116085952D01*
X107450000Y-115657381D02*
X106878571Y-116228810D01*
X107640476Y-116752619D02*
X108402381Y-116752619D01*
X108592857Y-116609762D02*
X108735714Y-116657381D01*
X108973810Y-116657381D01*
X109069048Y-116609762D01*
X109116667Y-116562143D01*
X109164286Y-116466905D01*
X109164286Y-116371667D01*
X109116667Y-116276429D01*
X109069048Y-116228810D01*
X108973810Y-116181190D01*
X108783333Y-116133571D01*
X108688095Y-116085952D01*
X108640476Y-116038333D01*
X108592857Y-115943095D01*
X108592857Y-115847857D01*
X108640476Y-115752619D01*
X108688095Y-115705000D01*
X108783333Y-115657381D01*
X109021429Y-115657381D01*
X109164286Y-115705000D01*
X109592857Y-116133571D02*
X109926191Y-116133571D01*
X110069048Y-116657381D02*
X109592857Y-116657381D01*
X109592857Y-115657381D01*
X110069048Y-115657381D01*
X110973810Y-116657381D02*
X110497619Y-116657381D01*
X110497619Y-115657381D01*
X160869524Y-87292381D02*
X160869524Y-88101905D01*
X160917143Y-88197143D01*
X160964762Y-88244762D01*
X161060000Y-88292381D01*
X161250477Y-88292381D01*
X161345715Y-88244762D01*
X161393334Y-88197143D01*
X161440953Y-88101905D01*
X161440953Y-87292381D01*
X161821905Y-87292381D02*
X162440953Y-87292381D01*
X162107619Y-87673333D01*
X162250477Y-87673333D01*
X162345715Y-87720952D01*
X162393334Y-87768571D01*
X162440953Y-87863810D01*
X162440953Y-88101905D01*
X162393334Y-88197143D01*
X162345715Y-88244762D01*
X162250477Y-88292381D01*
X161964762Y-88292381D01*
X161869524Y-88244762D01*
X161821905Y-88197143D01*
X162869524Y-88292381D02*
X162869524Y-87292381D01*
X163250477Y-87292381D01*
X163345715Y-87340000D01*
X163393334Y-87387619D01*
X163440953Y-87482857D01*
X163440953Y-87625714D01*
X163393334Y-87720952D01*
X163345715Y-87768571D01*
X163250477Y-87816190D01*
X162869524Y-87816190D01*
X163821905Y-88006667D02*
X164298096Y-88006667D01*
X163726667Y-88292381D02*
X164060000Y-87292381D01*
X164393334Y-88292381D01*
X162012381Y-100750476D02*
X162821905Y-100750476D01*
X162917143Y-100702857D01*
X162964762Y-100655238D01*
X163012381Y-100560000D01*
X163012381Y-100369523D01*
X162964762Y-100274285D01*
X162917143Y-100226666D01*
X162821905Y-100179047D01*
X162012381Y-100179047D01*
X162012381Y-99798095D02*
X162012381Y-99179047D01*
X162393333Y-99512381D01*
X162393333Y-99369523D01*
X162440952Y-99274285D01*
X162488571Y-99226666D01*
X162583810Y-99179047D01*
X162821905Y-99179047D01*
X162917143Y-99226666D01*
X162964762Y-99274285D01*
X163012381Y-99369523D01*
X163012381Y-99655238D01*
X162964762Y-99750476D01*
X162917143Y-99798095D01*
X163012381Y-98750476D02*
X162012381Y-98750476D01*
X162012381Y-98369523D01*
X162060000Y-98274285D01*
X162107619Y-98226666D01*
X162202857Y-98179047D01*
X162345714Y-98179047D01*
X162440952Y-98226666D01*
X162488571Y-98274285D01*
X162536190Y-98369523D01*
X162536190Y-98750476D01*
X162726667Y-97798095D02*
X162726667Y-97321904D01*
X163012381Y-97893333D02*
X162012381Y-97560000D01*
X163012381Y-97226666D01*
X160798095Y-63162381D02*
X160798095Y-63971905D01*
X160845714Y-64067143D01*
X160893333Y-64114762D01*
X160988571Y-64162381D01*
X161179048Y-64162381D01*
X161274286Y-64114762D01*
X161321905Y-64067143D01*
X161369524Y-63971905D01*
X161369524Y-63162381D01*
X161750476Y-63162381D02*
X162369524Y-63162381D01*
X162036190Y-63543333D01*
X162179048Y-63543333D01*
X162274286Y-63590952D01*
X162321905Y-63638571D01*
X162369524Y-63733810D01*
X162369524Y-63971905D01*
X162321905Y-64067143D01*
X162274286Y-64114762D01*
X162179048Y-64162381D01*
X161893333Y-64162381D01*
X161798095Y-64114762D01*
X161750476Y-64067143D01*
X162798095Y-64162381D02*
X162798095Y-63162381D01*
X163179048Y-63162381D01*
X163274286Y-63210000D01*
X163321905Y-63257619D01*
X163369524Y-63352857D01*
X163369524Y-63495714D01*
X163321905Y-63590952D01*
X163274286Y-63638571D01*
X163179048Y-63686190D01*
X162798095Y-63686190D01*
X164131429Y-63638571D02*
X164274286Y-63686190D01*
X164321905Y-63733810D01*
X164369524Y-63829048D01*
X164369524Y-63971905D01*
X164321905Y-64067143D01*
X164274286Y-64114762D01*
X164179048Y-64162381D01*
X163798095Y-64162381D01*
X163798095Y-63162381D01*
X164131429Y-63162381D01*
X164226667Y-63210000D01*
X164274286Y-63257619D01*
X164321905Y-63352857D01*
X164321905Y-63448095D01*
X164274286Y-63543333D01*
X164226667Y-63590952D01*
X164131429Y-63638571D01*
X163798095Y-63638571D01*
X162012381Y-76691905D02*
X162821905Y-76691905D01*
X162917143Y-76644286D01*
X162964762Y-76596667D01*
X163012381Y-76501429D01*
X163012381Y-76310952D01*
X162964762Y-76215714D01*
X162917143Y-76168095D01*
X162821905Y-76120476D01*
X162012381Y-76120476D01*
X162012381Y-75739524D02*
X162012381Y-75120476D01*
X162393333Y-75453810D01*
X162393333Y-75310952D01*
X162440952Y-75215714D01*
X162488571Y-75168095D01*
X162583810Y-75120476D01*
X162821905Y-75120476D01*
X162917143Y-75168095D01*
X162964762Y-75215714D01*
X163012381Y-75310952D01*
X163012381Y-75596667D01*
X162964762Y-75691905D01*
X162917143Y-75739524D01*
X163012381Y-74691905D02*
X162012381Y-74691905D01*
X162012381Y-74310952D01*
X162060000Y-74215714D01*
X162107619Y-74168095D01*
X162202857Y-74120476D01*
X162345714Y-74120476D01*
X162440952Y-74168095D01*
X162488571Y-74215714D01*
X162536190Y-74310952D01*
X162536190Y-74691905D01*
X162488571Y-73358571D02*
X162536190Y-73215714D01*
X162583810Y-73168095D01*
X162679048Y-73120476D01*
X162821905Y-73120476D01*
X162917143Y-73168095D01*
X162964762Y-73215714D01*
X163012381Y-73310952D01*
X163012381Y-73691905D01*
X162012381Y-73691905D01*
X162012381Y-73358571D01*
X162060000Y-73263333D01*
X162107619Y-73215714D01*
X162202857Y-73168095D01*
X162298095Y-73168095D01*
X162393333Y-73215714D01*
X162440952Y-73263333D01*
X162488571Y-73358571D01*
X162488571Y-73691905D01*
X229052381Y-87272619D02*
X228576190Y-87605953D01*
X229052381Y-87844048D02*
X228052381Y-87844048D01*
X228052381Y-87463095D01*
X228100000Y-87367857D01*
X228147619Y-87320238D01*
X228242857Y-87272619D01*
X228385714Y-87272619D01*
X228480952Y-87320238D01*
X228528571Y-87367857D01*
X228576190Y-87463095D01*
X228576190Y-87844048D01*
X228052381Y-86939286D02*
X229052381Y-86272619D01*
X228052381Y-86272619D02*
X229052381Y-86939286D01*
X228004762Y-85177381D02*
X229290476Y-86034524D01*
X228052381Y-84986905D02*
X228052381Y-84415476D01*
X229052381Y-84701191D02*
X228052381Y-84701191D01*
X228052381Y-84177381D02*
X229052381Y-83510714D01*
X228052381Y-83510714D02*
X229052381Y-84177381D01*
X170958095Y-63162381D02*
X170958095Y-63971905D01*
X171005714Y-64067143D01*
X171053333Y-64114762D01*
X171148571Y-64162381D01*
X171339048Y-64162381D01*
X171434286Y-64114762D01*
X171481905Y-64067143D01*
X171529524Y-63971905D01*
X171529524Y-63162381D01*
X172434286Y-63495714D02*
X172434286Y-64162381D01*
X172196190Y-63114762D02*
X171958095Y-63829048D01*
X172577143Y-63829048D01*
X172958095Y-64162381D02*
X172958095Y-63162381D01*
X173339048Y-63162381D01*
X173434286Y-63210000D01*
X173481905Y-63257619D01*
X173529524Y-63352857D01*
X173529524Y-63495714D01*
X173481905Y-63590952D01*
X173434286Y-63638571D01*
X173339048Y-63686190D01*
X172958095Y-63686190D01*
X174529524Y-64067143D02*
X174481905Y-64114762D01*
X174339048Y-64162381D01*
X174243810Y-64162381D01*
X174100952Y-64114762D01*
X174005714Y-64019524D01*
X173958095Y-63924286D01*
X173910476Y-63733810D01*
X173910476Y-63590952D01*
X173958095Y-63400476D01*
X174005714Y-63305238D01*
X174100952Y-63210000D01*
X174243810Y-63162381D01*
X174339048Y-63162381D01*
X174481905Y-63210000D01*
X174529524Y-63257619D01*
X172172381Y-74151905D02*
X172981905Y-74151905D01*
X173077143Y-74104286D01*
X173124762Y-74056667D01*
X173172381Y-73961429D01*
X173172381Y-73770952D01*
X173124762Y-73675714D01*
X173077143Y-73628095D01*
X172981905Y-73580476D01*
X172172381Y-73580476D01*
X172505714Y-72675714D02*
X173172381Y-72675714D01*
X172124762Y-72913810D02*
X172839048Y-73151905D01*
X172839048Y-72532857D01*
X173172381Y-72151905D02*
X172172381Y-72151905D01*
X172172381Y-71770952D01*
X172220000Y-71675714D01*
X172267619Y-71628095D01*
X172362857Y-71580476D01*
X172505714Y-71580476D01*
X172600952Y-71628095D01*
X172648571Y-71675714D01*
X172696190Y-71770952D01*
X172696190Y-72151905D01*
X173077143Y-70580476D02*
X173124762Y-70628095D01*
X173172381Y-70770952D01*
X173172381Y-70866190D01*
X173124762Y-71009048D01*
X173029524Y-71104286D01*
X172934286Y-71151905D01*
X172743810Y-71199524D01*
X172600952Y-71199524D01*
X172410476Y-71151905D01*
X172315238Y-71104286D01*
X172220000Y-71009048D01*
X172172381Y-70866190D01*
X172172381Y-70770952D01*
X172220000Y-70628095D01*
X172267619Y-70580476D01*
X193889524Y-91102381D02*
X193889524Y-91911905D01*
X193937143Y-92007143D01*
X193984762Y-92054762D01*
X194080000Y-92102381D01*
X194270477Y-92102381D01*
X194365715Y-92054762D01*
X194413334Y-92007143D01*
X194460953Y-91911905D01*
X194460953Y-91102381D01*
X195365715Y-91435714D02*
X195365715Y-92102381D01*
X195127619Y-91054762D02*
X194889524Y-91769048D01*
X195508572Y-91769048D01*
X195889524Y-92102381D02*
X195889524Y-91102381D01*
X196270477Y-91102381D01*
X196365715Y-91150000D01*
X196413334Y-91197619D01*
X196460953Y-91292857D01*
X196460953Y-91435714D01*
X196413334Y-91530952D01*
X196365715Y-91578571D01*
X196270477Y-91626190D01*
X195889524Y-91626190D01*
X196841905Y-91816667D02*
X197318096Y-91816667D01*
X196746667Y-92102381D02*
X197080000Y-91102381D01*
X197413334Y-92102381D01*
X195032381Y-104560476D02*
X195841905Y-104560476D01*
X195937143Y-104512857D01*
X195984762Y-104465238D01*
X196032381Y-104370000D01*
X196032381Y-104179523D01*
X195984762Y-104084285D01*
X195937143Y-104036666D01*
X195841905Y-103989047D01*
X195032381Y-103989047D01*
X195365714Y-103084285D02*
X196032381Y-103084285D01*
X194984762Y-103322381D02*
X195699048Y-103560476D01*
X195699048Y-102941428D01*
X196032381Y-102560476D02*
X195032381Y-102560476D01*
X195032381Y-102179523D01*
X195080000Y-102084285D01*
X195127619Y-102036666D01*
X195222857Y-101989047D01*
X195365714Y-101989047D01*
X195460952Y-102036666D01*
X195508571Y-102084285D01*
X195556190Y-102179523D01*
X195556190Y-102560476D01*
X195746667Y-101608095D02*
X195746667Y-101131904D01*
X196032381Y-101703333D02*
X195032381Y-101370000D01*
X196032381Y-101036666D01*
X193818095Y-66972381D02*
X193818095Y-67781905D01*
X193865714Y-67877143D01*
X193913333Y-67924762D01*
X194008571Y-67972381D01*
X194199048Y-67972381D01*
X194294286Y-67924762D01*
X194341905Y-67877143D01*
X194389524Y-67781905D01*
X194389524Y-66972381D01*
X195294286Y-67305714D02*
X195294286Y-67972381D01*
X195056190Y-66924762D02*
X194818095Y-67639048D01*
X195437143Y-67639048D01*
X195818095Y-67972381D02*
X195818095Y-66972381D01*
X196199048Y-66972381D01*
X196294286Y-67020000D01*
X196341905Y-67067619D01*
X196389524Y-67162857D01*
X196389524Y-67305714D01*
X196341905Y-67400952D01*
X196294286Y-67448571D01*
X196199048Y-67496190D01*
X195818095Y-67496190D01*
X197151429Y-67448571D02*
X197294286Y-67496190D01*
X197341905Y-67543810D01*
X197389524Y-67639048D01*
X197389524Y-67781905D01*
X197341905Y-67877143D01*
X197294286Y-67924762D01*
X197199048Y-67972381D01*
X196818095Y-67972381D01*
X196818095Y-66972381D01*
X197151429Y-66972381D01*
X197246667Y-67020000D01*
X197294286Y-67067619D01*
X197341905Y-67162857D01*
X197341905Y-67258095D01*
X197294286Y-67353333D01*
X197246667Y-67400952D01*
X197151429Y-67448571D01*
X196818095Y-67448571D01*
X195032381Y-80501905D02*
X195841905Y-80501905D01*
X195937143Y-80454286D01*
X195984762Y-80406667D01*
X196032381Y-80311429D01*
X196032381Y-80120952D01*
X195984762Y-80025714D01*
X195937143Y-79978095D01*
X195841905Y-79930476D01*
X195032381Y-79930476D01*
X195365714Y-79025714D02*
X196032381Y-79025714D01*
X194984762Y-79263810D02*
X195699048Y-79501905D01*
X195699048Y-78882857D01*
X196032381Y-78501905D02*
X195032381Y-78501905D01*
X195032381Y-78120952D01*
X195080000Y-78025714D01*
X195127619Y-77978095D01*
X195222857Y-77930476D01*
X195365714Y-77930476D01*
X195460952Y-77978095D01*
X195508571Y-78025714D01*
X195556190Y-78120952D01*
X195556190Y-78501905D01*
X195508571Y-77168571D02*
X195556190Y-77025714D01*
X195603810Y-76978095D01*
X195699048Y-76930476D01*
X195841905Y-76930476D01*
X195937143Y-76978095D01*
X195984762Y-77025714D01*
X196032381Y-77120952D01*
X196032381Y-77501905D01*
X195032381Y-77501905D01*
X195032381Y-77168571D01*
X195080000Y-77073333D01*
X195127619Y-77025714D01*
X195222857Y-76978095D01*
X195318095Y-76978095D01*
X195413333Y-77025714D01*
X195460952Y-77073333D01*
X195508571Y-77168571D01*
X195508571Y-77501905D01*
X210693096Y-49455000D02*
X210597858Y-49407381D01*
X210455001Y-49407381D01*
X210312143Y-49455000D01*
X210216905Y-49550238D01*
X210169286Y-49645476D01*
X210121667Y-49835952D01*
X210121667Y-49978810D01*
X210169286Y-50169286D01*
X210216905Y-50264524D01*
X210312143Y-50359762D01*
X210455001Y-50407381D01*
X210550239Y-50407381D01*
X210693096Y-50359762D01*
X210740715Y-50312143D01*
X210740715Y-49978810D01*
X210550239Y-49978810D01*
X211169286Y-50407381D02*
X211169286Y-49407381D01*
X211740715Y-50407381D01*
X211740715Y-49407381D01*
X212216905Y-50407381D02*
X212216905Y-49407381D01*
X212455000Y-49407381D01*
X212597858Y-49455000D01*
X212693096Y-49550238D01*
X212740715Y-49645476D01*
X212788334Y-49835952D01*
X212788334Y-49978810D01*
X212740715Y-50169286D01*
X212693096Y-50264524D01*
X212597858Y-50359762D01*
X212455000Y-50407381D01*
X212216905Y-50407381D01*
X210955000Y-47116904D02*
X210907381Y-47212142D01*
X210907381Y-47354999D01*
X210955000Y-47497857D01*
X211050238Y-47593095D01*
X211145476Y-47640714D01*
X211335952Y-47688333D01*
X211478810Y-47688333D01*
X211669286Y-47640714D01*
X211764524Y-47593095D01*
X211859762Y-47497857D01*
X211907381Y-47354999D01*
X211907381Y-47259761D01*
X211859762Y-47116904D01*
X211812143Y-47069285D01*
X211478810Y-47069285D01*
X211478810Y-47259761D01*
X211907381Y-46640714D02*
X210907381Y-46640714D01*
X211907381Y-46069285D01*
X210907381Y-46069285D01*
X211907381Y-45593095D02*
X210907381Y-45593095D01*
X210907381Y-45355000D01*
X210955000Y-45212142D01*
X211050238Y-45116904D01*
X211145476Y-45069285D01*
X211335952Y-45021666D01*
X211478810Y-45021666D01*
X211669286Y-45069285D01*
X211764524Y-45116904D01*
X211859762Y-45212142D01*
X211907381Y-45355000D01*
X211907381Y-45593095D01*
X95817381Y-73382619D02*
X95817381Y-72715952D01*
X96817381Y-73144524D01*
X96722143Y-72335000D02*
X96769762Y-72287381D01*
X96817381Y-72335000D01*
X96769762Y-72382619D01*
X96722143Y-72335000D01*
X96817381Y-72335000D01*
X95817381Y-71382619D02*
X95817381Y-71858810D01*
X96293571Y-71906429D01*
X96245952Y-71858810D01*
X96198333Y-71763572D01*
X96198333Y-71525476D01*
X96245952Y-71430238D01*
X96293571Y-71382619D01*
X96388810Y-71335000D01*
X96626905Y-71335000D01*
X96722143Y-71382619D01*
X96769762Y-71430238D01*
X96817381Y-71525476D01*
X96817381Y-71763572D01*
X96769762Y-71858810D01*
X96722143Y-71906429D01*
X96817381Y-70906429D02*
X95817381Y-70906429D01*
X96817381Y-70335000D02*
X96245952Y-70763572D01*
X95817381Y-70335000D02*
X96388810Y-70906429D01*
D12*
X94841190Y-71918333D02*
X94603095Y-72085000D01*
X94841190Y-72204047D02*
X94341190Y-72204047D01*
X94341190Y-72013571D01*
X94365000Y-71965952D01*
X94388810Y-71942143D01*
X94436429Y-71918333D01*
X94507857Y-71918333D01*
X94555476Y-71942143D01*
X94579286Y-71965952D01*
X94603095Y-72013571D01*
X94603095Y-72204047D01*
X94841190Y-71442143D02*
X94841190Y-71727857D01*
X94841190Y-71585000D02*
X94341190Y-71585000D01*
X94412619Y-71632619D01*
X94460238Y-71680238D01*
X94484048Y-71727857D01*
D11*
X92952381Y-92907619D02*
X92952381Y-92240952D01*
X93952381Y-92669524D01*
X93857143Y-91860000D02*
X93904762Y-91812381D01*
X93952381Y-91860000D01*
X93904762Y-91907619D01*
X93857143Y-91860000D01*
X93952381Y-91860000D01*
X92952381Y-90907619D02*
X92952381Y-91383810D01*
X93428571Y-91431429D01*
X93380952Y-91383810D01*
X93333333Y-91288572D01*
X93333333Y-91050476D01*
X93380952Y-90955238D01*
X93428571Y-90907619D01*
X93523810Y-90860000D01*
X93761905Y-90860000D01*
X93857143Y-90907619D01*
X93904762Y-90955238D01*
X93952381Y-91050476D01*
X93952381Y-91288572D01*
X93904762Y-91383810D01*
X93857143Y-91431429D01*
X93952381Y-90431429D02*
X92952381Y-90431429D01*
X93952381Y-89860000D02*
X93380952Y-90288572D01*
X92952381Y-89860000D02*
X93523810Y-90431429D01*
D12*
X95476190Y-91443333D02*
X95238095Y-91610000D01*
X95476190Y-91729047D02*
X94976190Y-91729047D01*
X94976190Y-91538571D01*
X95000000Y-91490952D01*
X95023810Y-91467143D01*
X95071429Y-91443333D01*
X95142857Y-91443333D01*
X95190476Y-91467143D01*
X95214286Y-91490952D01*
X95238095Y-91538571D01*
X95238095Y-91729047D01*
X95023810Y-91252857D02*
X95000000Y-91229047D01*
X94976190Y-91181428D01*
X94976190Y-91062381D01*
X95000000Y-91014762D01*
X95023810Y-90990952D01*
X95071429Y-90967143D01*
X95119048Y-90967143D01*
X95190476Y-90990952D01*
X95476190Y-91276666D01*
X95476190Y-90967143D01*
X94841190Y-76838333D02*
X94603095Y-77005000D01*
X94841190Y-77124047D02*
X94341190Y-77124047D01*
X94341190Y-76933571D01*
X94365000Y-76885952D01*
X94388810Y-76862143D01*
X94436429Y-76838333D01*
X94507857Y-76838333D01*
X94555476Y-76862143D01*
X94579286Y-76885952D01*
X94603095Y-76933571D01*
X94603095Y-77124047D01*
X94341190Y-76671666D02*
X94341190Y-76362143D01*
X94531667Y-76528809D01*
X94531667Y-76457381D01*
X94555476Y-76409762D01*
X94579286Y-76385952D01*
X94626905Y-76362143D01*
X94745952Y-76362143D01*
X94793571Y-76385952D01*
X94817381Y-76409762D01*
X94841190Y-76457381D01*
X94841190Y-76600238D01*
X94817381Y-76647857D01*
X94793571Y-76671666D01*
D11*
X92952381Y-86557619D02*
X92952381Y-85890952D01*
X93952381Y-86319524D01*
X93857143Y-85510000D02*
X93904762Y-85462381D01*
X93952381Y-85510000D01*
X93904762Y-85557619D01*
X93857143Y-85510000D01*
X93952381Y-85510000D01*
X92952381Y-84557619D02*
X92952381Y-85033810D01*
X93428571Y-85081429D01*
X93380952Y-85033810D01*
X93333333Y-84938572D01*
X93333333Y-84700476D01*
X93380952Y-84605238D01*
X93428571Y-84557619D01*
X93523810Y-84510000D01*
X93761905Y-84510000D01*
X93857143Y-84557619D01*
X93904762Y-84605238D01*
X93952381Y-84700476D01*
X93952381Y-84938572D01*
X93904762Y-85033810D01*
X93857143Y-85081429D01*
X93952381Y-84081429D02*
X92952381Y-84081429D01*
X93952381Y-83510000D02*
X93380952Y-83938572D01*
X92952381Y-83510000D02*
X93523810Y-84081429D01*
D12*
X95476190Y-85093333D02*
X95238095Y-85260000D01*
X95476190Y-85379047D02*
X94976190Y-85379047D01*
X94976190Y-85188571D01*
X95000000Y-85140952D01*
X95023810Y-85117143D01*
X95071429Y-85093333D01*
X95142857Y-85093333D01*
X95190476Y-85117143D01*
X95214286Y-85140952D01*
X95238095Y-85188571D01*
X95238095Y-85379047D01*
X95142857Y-84664762D02*
X95476190Y-84664762D01*
X94952381Y-84783809D02*
X95309524Y-84902857D01*
X95309524Y-84593333D01*
X203426190Y-56551333D02*
X203188095Y-56718000D01*
X203426190Y-56837047D02*
X202926190Y-56837047D01*
X202926190Y-56646571D01*
X202950000Y-56598952D01*
X202973810Y-56575143D01*
X203021429Y-56551333D01*
X203092857Y-56551333D01*
X203140476Y-56575143D01*
X203164286Y-56598952D01*
X203188095Y-56646571D01*
X203188095Y-56837047D01*
X202926190Y-56098952D02*
X202926190Y-56337047D01*
X203164286Y-56360857D01*
X203140476Y-56337047D01*
X203116667Y-56289428D01*
X203116667Y-56170381D01*
X203140476Y-56122762D01*
X203164286Y-56098952D01*
X203211905Y-56075143D01*
X203330952Y-56075143D01*
X203378571Y-56098952D01*
X203402381Y-56122762D01*
X203426190Y-56170381D01*
X203426190Y-56289428D01*
X203402381Y-56337047D01*
X203378571Y-56360857D01*
X183106190Y-56551333D02*
X182868095Y-56718000D01*
X183106190Y-56837047D02*
X182606190Y-56837047D01*
X182606190Y-56646571D01*
X182630000Y-56598952D01*
X182653810Y-56575143D01*
X182701429Y-56551333D01*
X182772857Y-56551333D01*
X182820476Y-56575143D01*
X182844286Y-56598952D01*
X182868095Y-56646571D01*
X182868095Y-56837047D01*
X182606190Y-56122762D02*
X182606190Y-56218000D01*
X182630000Y-56265619D01*
X182653810Y-56289428D01*
X182725238Y-56337047D01*
X182820476Y-56360857D01*
X183010952Y-56360857D01*
X183058571Y-56337047D01*
X183082381Y-56313238D01*
X183106190Y-56265619D01*
X183106190Y-56170381D01*
X183082381Y-56122762D01*
X183058571Y-56098952D01*
X183010952Y-56075143D01*
X182891905Y-56075143D01*
X182844286Y-56098952D01*
X182820476Y-56122762D01*
X182796667Y-56170381D01*
X182796667Y-56265619D01*
X182820476Y-56313238D01*
X182844286Y-56337047D01*
X182891905Y-56360857D01*
X200886190Y-56551333D02*
X200648095Y-56718000D01*
X200886190Y-56837047D02*
X200386190Y-56837047D01*
X200386190Y-56646571D01*
X200410000Y-56598952D01*
X200433810Y-56575143D01*
X200481429Y-56551333D01*
X200552857Y-56551333D01*
X200600476Y-56575143D01*
X200624286Y-56598952D01*
X200648095Y-56646571D01*
X200648095Y-56837047D01*
X200386190Y-56384666D02*
X200386190Y-56051333D01*
X200886190Y-56265619D01*
X180566190Y-56551333D02*
X180328095Y-56718000D01*
X180566190Y-56837047D02*
X180066190Y-56837047D01*
X180066190Y-56646571D01*
X180090000Y-56598952D01*
X180113810Y-56575143D01*
X180161429Y-56551333D01*
X180232857Y-56551333D01*
X180280476Y-56575143D01*
X180304286Y-56598952D01*
X180328095Y-56646571D01*
X180328095Y-56837047D01*
X180280476Y-56265619D02*
X180256667Y-56313238D01*
X180232857Y-56337047D01*
X180185238Y-56360857D01*
X180161429Y-56360857D01*
X180113810Y-56337047D01*
X180090000Y-56313238D01*
X180066190Y-56265619D01*
X180066190Y-56170381D01*
X180090000Y-56122762D01*
X180113810Y-56098952D01*
X180161429Y-56075143D01*
X180185238Y-56075143D01*
X180232857Y-56098952D01*
X180256667Y-56122762D01*
X180280476Y-56170381D01*
X180280476Y-56265619D01*
X180304286Y-56313238D01*
X180328095Y-56337047D01*
X180375714Y-56360857D01*
X180470952Y-56360857D01*
X180518571Y-56337047D01*
X180542381Y-56313238D01*
X180566190Y-56265619D01*
X180566190Y-56170381D01*
X180542381Y-56122762D01*
X180518571Y-56098952D01*
X180470952Y-56075143D01*
X180375714Y-56075143D01*
X180328095Y-56098952D01*
X180304286Y-56122762D01*
X180280476Y-56170381D01*
X198346190Y-56551333D02*
X198108095Y-56718000D01*
X198346190Y-56837047D02*
X197846190Y-56837047D01*
X197846190Y-56646571D01*
X197870000Y-56598952D01*
X197893810Y-56575143D01*
X197941429Y-56551333D01*
X198012857Y-56551333D01*
X198060476Y-56575143D01*
X198084286Y-56598952D01*
X198108095Y-56646571D01*
X198108095Y-56837047D01*
X198346190Y-56313238D02*
X198346190Y-56218000D01*
X198322381Y-56170381D01*
X198298571Y-56146571D01*
X198227143Y-56098952D01*
X198131905Y-56075143D01*
X197941429Y-56075143D01*
X197893810Y-56098952D01*
X197870000Y-56122762D01*
X197846190Y-56170381D01*
X197846190Y-56265619D01*
X197870000Y-56313238D01*
X197893810Y-56337047D01*
X197941429Y-56360857D01*
X198060476Y-56360857D01*
X198108095Y-56337047D01*
X198131905Y-56313238D01*
X198155714Y-56265619D01*
X198155714Y-56170381D01*
X198131905Y-56122762D01*
X198108095Y-56098952D01*
X198060476Y-56075143D01*
X178026190Y-56789428D02*
X177788095Y-56956095D01*
X178026190Y-57075142D02*
X177526190Y-57075142D01*
X177526190Y-56884666D01*
X177550000Y-56837047D01*
X177573810Y-56813238D01*
X177621429Y-56789428D01*
X177692857Y-56789428D01*
X177740476Y-56813238D01*
X177764286Y-56837047D01*
X177788095Y-56884666D01*
X177788095Y-57075142D01*
X178026190Y-56313238D02*
X178026190Y-56598952D01*
X178026190Y-56456095D02*
X177526190Y-56456095D01*
X177597619Y-56503714D01*
X177645238Y-56551333D01*
X177669048Y-56598952D01*
X177526190Y-56003714D02*
X177526190Y-55956095D01*
X177550000Y-55908476D01*
X177573810Y-55884667D01*
X177621429Y-55860857D01*
X177716667Y-55837048D01*
X177835714Y-55837048D01*
X177930952Y-55860857D01*
X177978571Y-55884667D01*
X178002381Y-55908476D01*
X178026190Y-55956095D01*
X178026190Y-56003714D01*
X178002381Y-56051333D01*
X177978571Y-56075143D01*
X177930952Y-56098952D01*
X177835714Y-56122762D01*
X177716667Y-56122762D01*
X177621429Y-56098952D01*
X177573810Y-56075143D01*
X177550000Y-56051333D01*
X177526190Y-56003714D01*
X195806190Y-56789428D02*
X195568095Y-56956095D01*
X195806190Y-57075142D02*
X195306190Y-57075142D01*
X195306190Y-56884666D01*
X195330000Y-56837047D01*
X195353810Y-56813238D01*
X195401429Y-56789428D01*
X195472857Y-56789428D01*
X195520476Y-56813238D01*
X195544286Y-56837047D01*
X195568095Y-56884666D01*
X195568095Y-57075142D01*
X195806190Y-56313238D02*
X195806190Y-56598952D01*
X195806190Y-56456095D02*
X195306190Y-56456095D01*
X195377619Y-56503714D01*
X195425238Y-56551333D01*
X195449048Y-56598952D01*
X195806190Y-55837048D02*
X195806190Y-56122762D01*
X195806190Y-55979905D02*
X195306190Y-55979905D01*
X195377619Y-56027524D01*
X195425238Y-56075143D01*
X195449048Y-56122762D01*
X175486190Y-56789428D02*
X175248095Y-56956095D01*
X175486190Y-57075142D02*
X174986190Y-57075142D01*
X174986190Y-56884666D01*
X175010000Y-56837047D01*
X175033810Y-56813238D01*
X175081429Y-56789428D01*
X175152857Y-56789428D01*
X175200476Y-56813238D01*
X175224286Y-56837047D01*
X175248095Y-56884666D01*
X175248095Y-57075142D01*
X175486190Y-56313238D02*
X175486190Y-56598952D01*
X175486190Y-56456095D02*
X174986190Y-56456095D01*
X175057619Y-56503714D01*
X175105238Y-56551333D01*
X175129048Y-56598952D01*
X175033810Y-56122762D02*
X175010000Y-56098952D01*
X174986190Y-56051333D01*
X174986190Y-55932286D01*
X175010000Y-55884667D01*
X175033810Y-55860857D01*
X175081429Y-55837048D01*
X175129048Y-55837048D01*
X175200476Y-55860857D01*
X175486190Y-56146571D01*
X175486190Y-55837048D01*
X193266190Y-56789428D02*
X193028095Y-56956095D01*
X193266190Y-57075142D02*
X192766190Y-57075142D01*
X192766190Y-56884666D01*
X192790000Y-56837047D01*
X192813810Y-56813238D01*
X192861429Y-56789428D01*
X192932857Y-56789428D01*
X192980476Y-56813238D01*
X193004286Y-56837047D01*
X193028095Y-56884666D01*
X193028095Y-57075142D01*
X193266190Y-56313238D02*
X193266190Y-56598952D01*
X193266190Y-56456095D02*
X192766190Y-56456095D01*
X192837619Y-56503714D01*
X192885238Y-56551333D01*
X192909048Y-56598952D01*
X192766190Y-56146571D02*
X192766190Y-55837048D01*
X192956667Y-56003714D01*
X192956667Y-55932286D01*
X192980476Y-55884667D01*
X193004286Y-55860857D01*
X193051905Y-55837048D01*
X193170952Y-55837048D01*
X193218571Y-55860857D01*
X193242381Y-55884667D01*
X193266190Y-55932286D01*
X193266190Y-56075143D01*
X193242381Y-56122762D01*
X193218571Y-56146571D01*
X172946190Y-56789428D02*
X172708095Y-56956095D01*
X172946190Y-57075142D02*
X172446190Y-57075142D01*
X172446190Y-56884666D01*
X172470000Y-56837047D01*
X172493810Y-56813238D01*
X172541429Y-56789428D01*
X172612857Y-56789428D01*
X172660476Y-56813238D01*
X172684286Y-56837047D01*
X172708095Y-56884666D01*
X172708095Y-57075142D01*
X172946190Y-56313238D02*
X172946190Y-56598952D01*
X172946190Y-56456095D02*
X172446190Y-56456095D01*
X172517619Y-56503714D01*
X172565238Y-56551333D01*
X172589048Y-56598952D01*
X172612857Y-55884667D02*
X172946190Y-55884667D01*
X172422381Y-56003714D02*
X172779524Y-56122762D01*
X172779524Y-55813238D01*
X190726190Y-56789428D02*
X190488095Y-56956095D01*
X190726190Y-57075142D02*
X190226190Y-57075142D01*
X190226190Y-56884666D01*
X190250000Y-56837047D01*
X190273810Y-56813238D01*
X190321429Y-56789428D01*
X190392857Y-56789428D01*
X190440476Y-56813238D01*
X190464286Y-56837047D01*
X190488095Y-56884666D01*
X190488095Y-57075142D01*
X190726190Y-56313238D02*
X190726190Y-56598952D01*
X190726190Y-56456095D02*
X190226190Y-56456095D01*
X190297619Y-56503714D01*
X190345238Y-56551333D01*
X190369048Y-56598952D01*
X190226190Y-55860857D02*
X190226190Y-56098952D01*
X190464286Y-56122762D01*
X190440476Y-56098952D01*
X190416667Y-56051333D01*
X190416667Y-55932286D01*
X190440476Y-55884667D01*
X190464286Y-55860857D01*
X190511905Y-55837048D01*
X190630952Y-55837048D01*
X190678571Y-55860857D01*
X190702381Y-55884667D01*
X190726190Y-55932286D01*
X190726190Y-56051333D01*
X190702381Y-56098952D01*
X190678571Y-56122762D01*
X170406190Y-56789428D02*
X170168095Y-56956095D01*
X170406190Y-57075142D02*
X169906190Y-57075142D01*
X169906190Y-56884666D01*
X169930000Y-56837047D01*
X169953810Y-56813238D01*
X170001429Y-56789428D01*
X170072857Y-56789428D01*
X170120476Y-56813238D01*
X170144286Y-56837047D01*
X170168095Y-56884666D01*
X170168095Y-57075142D01*
X170406190Y-56313238D02*
X170406190Y-56598952D01*
X170406190Y-56456095D02*
X169906190Y-56456095D01*
X169977619Y-56503714D01*
X170025238Y-56551333D01*
X170049048Y-56598952D01*
X169906190Y-55884667D02*
X169906190Y-55979905D01*
X169930000Y-56027524D01*
X169953810Y-56051333D01*
X170025238Y-56098952D01*
X170120476Y-56122762D01*
X170310952Y-56122762D01*
X170358571Y-56098952D01*
X170382381Y-56075143D01*
X170406190Y-56027524D01*
X170406190Y-55932286D01*
X170382381Y-55884667D01*
X170358571Y-55860857D01*
X170310952Y-55837048D01*
X170191905Y-55837048D01*
X170144286Y-55860857D01*
X170120476Y-55884667D01*
X170096667Y-55932286D01*
X170096667Y-56027524D01*
X170120476Y-56075143D01*
X170144286Y-56098952D01*
X170191905Y-56122762D01*
X188186190Y-56789428D02*
X187948095Y-56956095D01*
X188186190Y-57075142D02*
X187686190Y-57075142D01*
X187686190Y-56884666D01*
X187710000Y-56837047D01*
X187733810Y-56813238D01*
X187781429Y-56789428D01*
X187852857Y-56789428D01*
X187900476Y-56813238D01*
X187924286Y-56837047D01*
X187948095Y-56884666D01*
X187948095Y-57075142D01*
X188186190Y-56313238D02*
X188186190Y-56598952D01*
X188186190Y-56456095D02*
X187686190Y-56456095D01*
X187757619Y-56503714D01*
X187805238Y-56551333D01*
X187829048Y-56598952D01*
X187686190Y-56146571D02*
X187686190Y-55813238D01*
X188186190Y-56027524D01*
X167866190Y-56789428D02*
X167628095Y-56956095D01*
X167866190Y-57075142D02*
X167366190Y-57075142D01*
X167366190Y-56884666D01*
X167390000Y-56837047D01*
X167413810Y-56813238D01*
X167461429Y-56789428D01*
X167532857Y-56789428D01*
X167580476Y-56813238D01*
X167604286Y-56837047D01*
X167628095Y-56884666D01*
X167628095Y-57075142D01*
X167866190Y-56313238D02*
X167866190Y-56598952D01*
X167866190Y-56456095D02*
X167366190Y-56456095D01*
X167437619Y-56503714D01*
X167485238Y-56551333D01*
X167509048Y-56598952D01*
X167580476Y-56027524D02*
X167556667Y-56075143D01*
X167532857Y-56098952D01*
X167485238Y-56122762D01*
X167461429Y-56122762D01*
X167413810Y-56098952D01*
X167390000Y-56075143D01*
X167366190Y-56027524D01*
X167366190Y-55932286D01*
X167390000Y-55884667D01*
X167413810Y-55860857D01*
X167461429Y-55837048D01*
X167485238Y-55837048D01*
X167532857Y-55860857D01*
X167556667Y-55884667D01*
X167580476Y-55932286D01*
X167580476Y-56027524D01*
X167604286Y-56075143D01*
X167628095Y-56098952D01*
X167675714Y-56122762D01*
X167770952Y-56122762D01*
X167818571Y-56098952D01*
X167842381Y-56075143D01*
X167866190Y-56027524D01*
X167866190Y-55932286D01*
X167842381Y-55884667D01*
X167818571Y-55860857D01*
X167770952Y-55837048D01*
X167675714Y-55837048D01*
X167628095Y-55860857D01*
X167604286Y-55884667D01*
X167580476Y-55932286D01*
X185646190Y-56789428D02*
X185408095Y-56956095D01*
X185646190Y-57075142D02*
X185146190Y-57075142D01*
X185146190Y-56884666D01*
X185170000Y-56837047D01*
X185193810Y-56813238D01*
X185241429Y-56789428D01*
X185312857Y-56789428D01*
X185360476Y-56813238D01*
X185384286Y-56837047D01*
X185408095Y-56884666D01*
X185408095Y-57075142D01*
X185646190Y-56313238D02*
X185646190Y-56598952D01*
X185646190Y-56456095D02*
X185146190Y-56456095D01*
X185217619Y-56503714D01*
X185265238Y-56551333D01*
X185289048Y-56598952D01*
X185646190Y-56075143D02*
X185646190Y-55979905D01*
X185622381Y-55932286D01*
X185598571Y-55908476D01*
X185527143Y-55860857D01*
X185431905Y-55837048D01*
X185241429Y-55837048D01*
X185193810Y-55860857D01*
X185170000Y-55884667D01*
X185146190Y-55932286D01*
X185146190Y-56027524D01*
X185170000Y-56075143D01*
X185193810Y-56098952D01*
X185241429Y-56122762D01*
X185360476Y-56122762D01*
X185408095Y-56098952D01*
X185431905Y-56075143D01*
X185455714Y-56027524D01*
X185455714Y-55932286D01*
X185431905Y-55884667D01*
X185408095Y-55860857D01*
X185360476Y-55837048D01*
X165326190Y-56789428D02*
X165088095Y-56956095D01*
X165326190Y-57075142D02*
X164826190Y-57075142D01*
X164826190Y-56884666D01*
X164850000Y-56837047D01*
X164873810Y-56813238D01*
X164921429Y-56789428D01*
X164992857Y-56789428D01*
X165040476Y-56813238D01*
X165064286Y-56837047D01*
X165088095Y-56884666D01*
X165088095Y-57075142D01*
X164873810Y-56598952D02*
X164850000Y-56575142D01*
X164826190Y-56527523D01*
X164826190Y-56408476D01*
X164850000Y-56360857D01*
X164873810Y-56337047D01*
X164921429Y-56313238D01*
X164969048Y-56313238D01*
X165040476Y-56337047D01*
X165326190Y-56622761D01*
X165326190Y-56313238D01*
X164826190Y-56003714D02*
X164826190Y-55956095D01*
X164850000Y-55908476D01*
X164873810Y-55884667D01*
X164921429Y-55860857D01*
X165016667Y-55837048D01*
X165135714Y-55837048D01*
X165230952Y-55860857D01*
X165278571Y-55884667D01*
X165302381Y-55908476D01*
X165326190Y-55956095D01*
X165326190Y-56003714D01*
X165302381Y-56051333D01*
X165278571Y-56075143D01*
X165230952Y-56098952D01*
X165135714Y-56122762D01*
X165016667Y-56122762D01*
X164921429Y-56098952D01*
X164873810Y-56075143D01*
X164850000Y-56051333D01*
X164826190Y-56003714D01*
X162786190Y-56789428D02*
X162548095Y-56956095D01*
X162786190Y-57075142D02*
X162286190Y-57075142D01*
X162286190Y-56884666D01*
X162310000Y-56837047D01*
X162333810Y-56813238D01*
X162381429Y-56789428D01*
X162452857Y-56789428D01*
X162500476Y-56813238D01*
X162524286Y-56837047D01*
X162548095Y-56884666D01*
X162548095Y-57075142D01*
X162333810Y-56598952D02*
X162310000Y-56575142D01*
X162286190Y-56527523D01*
X162286190Y-56408476D01*
X162310000Y-56360857D01*
X162333810Y-56337047D01*
X162381429Y-56313238D01*
X162429048Y-56313238D01*
X162500476Y-56337047D01*
X162786190Y-56622761D01*
X162786190Y-56313238D01*
X162786190Y-55837048D02*
X162786190Y-56122762D01*
X162786190Y-55979905D02*
X162286190Y-55979905D01*
X162357619Y-56027524D01*
X162405238Y-56075143D01*
X162429048Y-56122762D01*
X136116190Y-56789428D02*
X135878095Y-56956095D01*
X136116190Y-57075142D02*
X135616190Y-57075142D01*
X135616190Y-56884666D01*
X135640000Y-56837047D01*
X135663810Y-56813238D01*
X135711429Y-56789428D01*
X135782857Y-56789428D01*
X135830476Y-56813238D01*
X135854286Y-56837047D01*
X135878095Y-56884666D01*
X135878095Y-57075142D01*
X135663810Y-56598952D02*
X135640000Y-56575142D01*
X135616190Y-56527523D01*
X135616190Y-56408476D01*
X135640000Y-56360857D01*
X135663810Y-56337047D01*
X135711429Y-56313238D01*
X135759048Y-56313238D01*
X135830476Y-56337047D01*
X136116190Y-56622761D01*
X136116190Y-56313238D01*
X135663810Y-56122762D02*
X135640000Y-56098952D01*
X135616190Y-56051333D01*
X135616190Y-55932286D01*
X135640000Y-55884667D01*
X135663810Y-55860857D01*
X135711429Y-55837048D01*
X135759048Y-55837048D01*
X135830476Y-55860857D01*
X136116190Y-56146571D01*
X136116190Y-55837048D01*
X159992190Y-56789428D02*
X159754095Y-56956095D01*
X159992190Y-57075142D02*
X159492190Y-57075142D01*
X159492190Y-56884666D01*
X159516000Y-56837047D01*
X159539810Y-56813238D01*
X159587429Y-56789428D01*
X159658857Y-56789428D01*
X159706476Y-56813238D01*
X159730286Y-56837047D01*
X159754095Y-56884666D01*
X159754095Y-57075142D01*
X159539810Y-56598952D02*
X159516000Y-56575142D01*
X159492190Y-56527523D01*
X159492190Y-56408476D01*
X159516000Y-56360857D01*
X159539810Y-56337047D01*
X159587429Y-56313238D01*
X159635048Y-56313238D01*
X159706476Y-56337047D01*
X159992190Y-56622761D01*
X159992190Y-56313238D01*
X159492190Y-56146571D02*
X159492190Y-55837048D01*
X159682667Y-56003714D01*
X159682667Y-55932286D01*
X159706476Y-55884667D01*
X159730286Y-55860857D01*
X159777905Y-55837048D01*
X159896952Y-55837048D01*
X159944571Y-55860857D01*
X159968381Y-55884667D01*
X159992190Y-55932286D01*
X159992190Y-56075143D01*
X159968381Y-56122762D01*
X159944571Y-56146571D01*
X133576190Y-56789428D02*
X133338095Y-56956095D01*
X133576190Y-57075142D02*
X133076190Y-57075142D01*
X133076190Y-56884666D01*
X133100000Y-56837047D01*
X133123810Y-56813238D01*
X133171429Y-56789428D01*
X133242857Y-56789428D01*
X133290476Y-56813238D01*
X133314286Y-56837047D01*
X133338095Y-56884666D01*
X133338095Y-57075142D01*
X133123810Y-56598952D02*
X133100000Y-56575142D01*
X133076190Y-56527523D01*
X133076190Y-56408476D01*
X133100000Y-56360857D01*
X133123810Y-56337047D01*
X133171429Y-56313238D01*
X133219048Y-56313238D01*
X133290476Y-56337047D01*
X133576190Y-56622761D01*
X133576190Y-56313238D01*
X133242857Y-55884667D02*
X133576190Y-55884667D01*
X133052381Y-56003714D02*
X133409524Y-56122762D01*
X133409524Y-55813238D01*
X157452190Y-56789428D02*
X157214095Y-56956095D01*
X157452190Y-57075142D02*
X156952190Y-57075142D01*
X156952190Y-56884666D01*
X156976000Y-56837047D01*
X156999810Y-56813238D01*
X157047429Y-56789428D01*
X157118857Y-56789428D01*
X157166476Y-56813238D01*
X157190286Y-56837047D01*
X157214095Y-56884666D01*
X157214095Y-57075142D01*
X156999810Y-56598952D02*
X156976000Y-56575142D01*
X156952190Y-56527523D01*
X156952190Y-56408476D01*
X156976000Y-56360857D01*
X156999810Y-56337047D01*
X157047429Y-56313238D01*
X157095048Y-56313238D01*
X157166476Y-56337047D01*
X157452190Y-56622761D01*
X157452190Y-56313238D01*
X156952190Y-55860857D02*
X156952190Y-56098952D01*
X157190286Y-56122762D01*
X157166476Y-56098952D01*
X157142667Y-56051333D01*
X157142667Y-55932286D01*
X157166476Y-55884667D01*
X157190286Y-55860857D01*
X157237905Y-55837048D01*
X157356952Y-55837048D01*
X157404571Y-55860857D01*
X157428381Y-55884667D01*
X157452190Y-55932286D01*
X157452190Y-56051333D01*
X157428381Y-56098952D01*
X157404571Y-56122762D01*
X131036190Y-56789428D02*
X130798095Y-56956095D01*
X131036190Y-57075142D02*
X130536190Y-57075142D01*
X130536190Y-56884666D01*
X130560000Y-56837047D01*
X130583810Y-56813238D01*
X130631429Y-56789428D01*
X130702857Y-56789428D01*
X130750476Y-56813238D01*
X130774286Y-56837047D01*
X130798095Y-56884666D01*
X130798095Y-57075142D01*
X130583810Y-56598952D02*
X130560000Y-56575142D01*
X130536190Y-56527523D01*
X130536190Y-56408476D01*
X130560000Y-56360857D01*
X130583810Y-56337047D01*
X130631429Y-56313238D01*
X130679048Y-56313238D01*
X130750476Y-56337047D01*
X131036190Y-56622761D01*
X131036190Y-56313238D01*
X130536190Y-55884667D02*
X130536190Y-55979905D01*
X130560000Y-56027524D01*
X130583810Y-56051333D01*
X130655238Y-56098952D01*
X130750476Y-56122762D01*
X130940952Y-56122762D01*
X130988571Y-56098952D01*
X131012381Y-56075143D01*
X131036190Y-56027524D01*
X131036190Y-55932286D01*
X131012381Y-55884667D01*
X130988571Y-55860857D01*
X130940952Y-55837048D01*
X130821905Y-55837048D01*
X130774286Y-55860857D01*
X130750476Y-55884667D01*
X130726667Y-55932286D01*
X130726667Y-56027524D01*
X130750476Y-56075143D01*
X130774286Y-56098952D01*
X130821905Y-56122762D01*
X155166190Y-56789428D02*
X154928095Y-56956095D01*
X155166190Y-57075142D02*
X154666190Y-57075142D01*
X154666190Y-56884666D01*
X154690000Y-56837047D01*
X154713810Y-56813238D01*
X154761429Y-56789428D01*
X154832857Y-56789428D01*
X154880476Y-56813238D01*
X154904286Y-56837047D01*
X154928095Y-56884666D01*
X154928095Y-57075142D01*
X154713810Y-56598952D02*
X154690000Y-56575142D01*
X154666190Y-56527523D01*
X154666190Y-56408476D01*
X154690000Y-56360857D01*
X154713810Y-56337047D01*
X154761429Y-56313238D01*
X154809048Y-56313238D01*
X154880476Y-56337047D01*
X155166190Y-56622761D01*
X155166190Y-56313238D01*
X154666190Y-56146571D02*
X154666190Y-55813238D01*
X155166190Y-56027524D01*
X128496190Y-56789428D02*
X128258095Y-56956095D01*
X128496190Y-57075142D02*
X127996190Y-57075142D01*
X127996190Y-56884666D01*
X128020000Y-56837047D01*
X128043810Y-56813238D01*
X128091429Y-56789428D01*
X128162857Y-56789428D01*
X128210476Y-56813238D01*
X128234286Y-56837047D01*
X128258095Y-56884666D01*
X128258095Y-57075142D01*
X128043810Y-56598952D02*
X128020000Y-56575142D01*
X127996190Y-56527523D01*
X127996190Y-56408476D01*
X128020000Y-56360857D01*
X128043810Y-56337047D01*
X128091429Y-56313238D01*
X128139048Y-56313238D01*
X128210476Y-56337047D01*
X128496190Y-56622761D01*
X128496190Y-56313238D01*
X128210476Y-56027524D02*
X128186667Y-56075143D01*
X128162857Y-56098952D01*
X128115238Y-56122762D01*
X128091429Y-56122762D01*
X128043810Y-56098952D01*
X128020000Y-56075143D01*
X127996190Y-56027524D01*
X127996190Y-55932286D01*
X128020000Y-55884667D01*
X128043810Y-55860857D01*
X128091429Y-55837048D01*
X128115238Y-55837048D01*
X128162857Y-55860857D01*
X128186667Y-55884667D01*
X128210476Y-55932286D01*
X128210476Y-56027524D01*
X128234286Y-56075143D01*
X128258095Y-56098952D01*
X128305714Y-56122762D01*
X128400952Y-56122762D01*
X128448571Y-56098952D01*
X128472381Y-56075143D01*
X128496190Y-56027524D01*
X128496190Y-55932286D01*
X128472381Y-55884667D01*
X128448571Y-55860857D01*
X128400952Y-55837048D01*
X128305714Y-55837048D01*
X128258095Y-55860857D01*
X128234286Y-55884667D01*
X128210476Y-55932286D01*
X123416190Y-56789428D02*
X123178095Y-56956095D01*
X123416190Y-57075142D02*
X122916190Y-57075142D01*
X122916190Y-56884666D01*
X122940000Y-56837047D01*
X122963810Y-56813238D01*
X123011429Y-56789428D01*
X123082857Y-56789428D01*
X123130476Y-56813238D01*
X123154286Y-56837047D01*
X123178095Y-56884666D01*
X123178095Y-57075142D01*
X122963810Y-56598952D02*
X122940000Y-56575142D01*
X122916190Y-56527523D01*
X122916190Y-56408476D01*
X122940000Y-56360857D01*
X122963810Y-56337047D01*
X123011429Y-56313238D01*
X123059048Y-56313238D01*
X123130476Y-56337047D01*
X123416190Y-56622761D01*
X123416190Y-56313238D01*
X123416190Y-56075143D02*
X123416190Y-55979905D01*
X123392381Y-55932286D01*
X123368571Y-55908476D01*
X123297143Y-55860857D01*
X123201905Y-55837048D01*
X123011429Y-55837048D01*
X122963810Y-55860857D01*
X122940000Y-55884667D01*
X122916190Y-55932286D01*
X122916190Y-56027524D01*
X122940000Y-56075143D01*
X122963810Y-56098952D01*
X123011429Y-56122762D01*
X123130476Y-56122762D01*
X123178095Y-56098952D01*
X123201905Y-56075143D01*
X123225714Y-56027524D01*
X123225714Y-55932286D01*
X123201905Y-55884667D01*
X123178095Y-55860857D01*
X123130476Y-55837048D01*
X125956190Y-56789428D02*
X125718095Y-56956095D01*
X125956190Y-57075142D02*
X125456190Y-57075142D01*
X125456190Y-56884666D01*
X125480000Y-56837047D01*
X125503810Y-56813238D01*
X125551429Y-56789428D01*
X125622857Y-56789428D01*
X125670476Y-56813238D01*
X125694286Y-56837047D01*
X125718095Y-56884666D01*
X125718095Y-57075142D01*
X125456190Y-56622761D02*
X125456190Y-56313238D01*
X125646667Y-56479904D01*
X125646667Y-56408476D01*
X125670476Y-56360857D01*
X125694286Y-56337047D01*
X125741905Y-56313238D01*
X125860952Y-56313238D01*
X125908571Y-56337047D01*
X125932381Y-56360857D01*
X125956190Y-56408476D01*
X125956190Y-56551333D01*
X125932381Y-56598952D01*
X125908571Y-56622761D01*
X125456190Y-56003714D02*
X125456190Y-55956095D01*
X125480000Y-55908476D01*
X125503810Y-55884667D01*
X125551429Y-55860857D01*
X125646667Y-55837048D01*
X125765714Y-55837048D01*
X125860952Y-55860857D01*
X125908571Y-55884667D01*
X125932381Y-55908476D01*
X125956190Y-55956095D01*
X125956190Y-56003714D01*
X125932381Y-56051333D01*
X125908571Y-56075143D01*
X125860952Y-56098952D01*
X125765714Y-56122762D01*
X125646667Y-56122762D01*
X125551429Y-56098952D01*
X125503810Y-56075143D01*
X125480000Y-56051333D01*
X125456190Y-56003714D01*
X120876190Y-56789428D02*
X120638095Y-56956095D01*
X120876190Y-57075142D02*
X120376190Y-57075142D01*
X120376190Y-56884666D01*
X120400000Y-56837047D01*
X120423810Y-56813238D01*
X120471429Y-56789428D01*
X120542857Y-56789428D01*
X120590476Y-56813238D01*
X120614286Y-56837047D01*
X120638095Y-56884666D01*
X120638095Y-57075142D01*
X120376190Y-56622761D02*
X120376190Y-56313238D01*
X120566667Y-56479904D01*
X120566667Y-56408476D01*
X120590476Y-56360857D01*
X120614286Y-56337047D01*
X120661905Y-56313238D01*
X120780952Y-56313238D01*
X120828571Y-56337047D01*
X120852381Y-56360857D01*
X120876190Y-56408476D01*
X120876190Y-56551333D01*
X120852381Y-56598952D01*
X120828571Y-56622761D01*
X120876190Y-55837048D02*
X120876190Y-56122762D01*
X120876190Y-55979905D02*
X120376190Y-55979905D01*
X120447619Y-56027524D01*
X120495238Y-56075143D01*
X120519048Y-56122762D01*
X118336190Y-56789428D02*
X118098095Y-56956095D01*
X118336190Y-57075142D02*
X117836190Y-57075142D01*
X117836190Y-56884666D01*
X117860000Y-56837047D01*
X117883810Y-56813238D01*
X117931429Y-56789428D01*
X118002857Y-56789428D01*
X118050476Y-56813238D01*
X118074286Y-56837047D01*
X118098095Y-56884666D01*
X118098095Y-57075142D01*
X117836190Y-56622761D02*
X117836190Y-56313238D01*
X118026667Y-56479904D01*
X118026667Y-56408476D01*
X118050476Y-56360857D01*
X118074286Y-56337047D01*
X118121905Y-56313238D01*
X118240952Y-56313238D01*
X118288571Y-56337047D01*
X118312381Y-56360857D01*
X118336190Y-56408476D01*
X118336190Y-56551333D01*
X118312381Y-56598952D01*
X118288571Y-56622761D01*
X117883810Y-56122762D02*
X117860000Y-56098952D01*
X117836190Y-56051333D01*
X117836190Y-55932286D01*
X117860000Y-55884667D01*
X117883810Y-55860857D01*
X117931429Y-55837048D01*
X117979048Y-55837048D01*
X118050476Y-55860857D01*
X118336190Y-56146571D01*
X118336190Y-55837048D01*
X146276190Y-56789428D02*
X146038095Y-56956095D01*
X146276190Y-57075142D02*
X145776190Y-57075142D01*
X145776190Y-56884666D01*
X145800000Y-56837047D01*
X145823810Y-56813238D01*
X145871429Y-56789428D01*
X145942857Y-56789428D01*
X145990476Y-56813238D01*
X146014286Y-56837047D01*
X146038095Y-56884666D01*
X146038095Y-57075142D01*
X145776190Y-56622761D02*
X145776190Y-56313238D01*
X145966667Y-56479904D01*
X145966667Y-56408476D01*
X145990476Y-56360857D01*
X146014286Y-56337047D01*
X146061905Y-56313238D01*
X146180952Y-56313238D01*
X146228571Y-56337047D01*
X146252381Y-56360857D01*
X146276190Y-56408476D01*
X146276190Y-56551333D01*
X146252381Y-56598952D01*
X146228571Y-56622761D01*
X145776190Y-56146571D02*
X145776190Y-55837048D01*
X145966667Y-56003714D01*
X145966667Y-55932286D01*
X145990476Y-55884667D01*
X146014286Y-55860857D01*
X146061905Y-55837048D01*
X146180952Y-55837048D01*
X146228571Y-55860857D01*
X146252381Y-55884667D01*
X146276190Y-55932286D01*
X146276190Y-56075143D01*
X146252381Y-56122762D01*
X146228571Y-56146571D01*
X143736190Y-56789428D02*
X143498095Y-56956095D01*
X143736190Y-57075142D02*
X143236190Y-57075142D01*
X143236190Y-56884666D01*
X143260000Y-56837047D01*
X143283810Y-56813238D01*
X143331429Y-56789428D01*
X143402857Y-56789428D01*
X143450476Y-56813238D01*
X143474286Y-56837047D01*
X143498095Y-56884666D01*
X143498095Y-57075142D01*
X143236190Y-56622761D02*
X143236190Y-56313238D01*
X143426667Y-56479904D01*
X143426667Y-56408476D01*
X143450476Y-56360857D01*
X143474286Y-56337047D01*
X143521905Y-56313238D01*
X143640952Y-56313238D01*
X143688571Y-56337047D01*
X143712381Y-56360857D01*
X143736190Y-56408476D01*
X143736190Y-56551333D01*
X143712381Y-56598952D01*
X143688571Y-56622761D01*
X143402857Y-55884667D02*
X143736190Y-55884667D01*
X143212381Y-56003714D02*
X143569524Y-56122762D01*
X143569524Y-55813238D01*
X141196190Y-56789428D02*
X140958095Y-56956095D01*
X141196190Y-57075142D02*
X140696190Y-57075142D01*
X140696190Y-56884666D01*
X140720000Y-56837047D01*
X140743810Y-56813238D01*
X140791429Y-56789428D01*
X140862857Y-56789428D01*
X140910476Y-56813238D01*
X140934286Y-56837047D01*
X140958095Y-56884666D01*
X140958095Y-57075142D01*
X140696190Y-56622761D02*
X140696190Y-56313238D01*
X140886667Y-56479904D01*
X140886667Y-56408476D01*
X140910476Y-56360857D01*
X140934286Y-56337047D01*
X140981905Y-56313238D01*
X141100952Y-56313238D01*
X141148571Y-56337047D01*
X141172381Y-56360857D01*
X141196190Y-56408476D01*
X141196190Y-56551333D01*
X141172381Y-56598952D01*
X141148571Y-56622761D01*
X140696190Y-55860857D02*
X140696190Y-56098952D01*
X140934286Y-56122762D01*
X140910476Y-56098952D01*
X140886667Y-56051333D01*
X140886667Y-55932286D01*
X140910476Y-55884667D01*
X140934286Y-55860857D01*
X140981905Y-55837048D01*
X141100952Y-55837048D01*
X141148571Y-55860857D01*
X141172381Y-55884667D01*
X141196190Y-55932286D01*
X141196190Y-56051333D01*
X141172381Y-56098952D01*
X141148571Y-56122762D01*
X138656190Y-56789428D02*
X138418095Y-56956095D01*
X138656190Y-57075142D02*
X138156190Y-57075142D01*
X138156190Y-56884666D01*
X138180000Y-56837047D01*
X138203810Y-56813238D01*
X138251429Y-56789428D01*
X138322857Y-56789428D01*
X138370476Y-56813238D01*
X138394286Y-56837047D01*
X138418095Y-56884666D01*
X138418095Y-57075142D01*
X138156190Y-56622761D02*
X138156190Y-56313238D01*
X138346667Y-56479904D01*
X138346667Y-56408476D01*
X138370476Y-56360857D01*
X138394286Y-56337047D01*
X138441905Y-56313238D01*
X138560952Y-56313238D01*
X138608571Y-56337047D01*
X138632381Y-56360857D01*
X138656190Y-56408476D01*
X138656190Y-56551333D01*
X138632381Y-56598952D01*
X138608571Y-56622761D01*
X138156190Y-55884667D02*
X138156190Y-55979905D01*
X138180000Y-56027524D01*
X138203810Y-56051333D01*
X138275238Y-56098952D01*
X138370476Y-56122762D01*
X138560952Y-56122762D01*
X138608571Y-56098952D01*
X138632381Y-56075143D01*
X138656190Y-56027524D01*
X138656190Y-55932286D01*
X138632381Y-55884667D01*
X138608571Y-55860857D01*
X138560952Y-55837048D01*
X138441905Y-55837048D01*
X138394286Y-55860857D01*
X138370476Y-55884667D01*
X138346667Y-55932286D01*
X138346667Y-56027524D01*
X138370476Y-56075143D01*
X138394286Y-56098952D01*
X138441905Y-56122762D01*
X79474190Y-102763428D02*
X79236095Y-102930095D01*
X79474190Y-103049142D02*
X78974190Y-103049142D01*
X78974190Y-102858666D01*
X78998000Y-102811047D01*
X79021810Y-102787238D01*
X79069429Y-102763428D01*
X79140857Y-102763428D01*
X79188476Y-102787238D01*
X79212286Y-102811047D01*
X79236095Y-102858666D01*
X79236095Y-103049142D01*
X78974190Y-102596761D02*
X78974190Y-102287238D01*
X79164667Y-102453904D01*
X79164667Y-102382476D01*
X79188476Y-102334857D01*
X79212286Y-102311047D01*
X79259905Y-102287238D01*
X79378952Y-102287238D01*
X79426571Y-102311047D01*
X79450381Y-102334857D01*
X79474190Y-102382476D01*
X79474190Y-102525333D01*
X79450381Y-102572952D01*
X79426571Y-102596761D01*
X78974190Y-102120571D02*
X78974190Y-101787238D01*
X79474190Y-102001524D01*
D11*
X76604762Y-92304762D02*
X76652381Y-92161905D01*
X76652381Y-91923809D01*
X76604762Y-91828571D01*
X76557143Y-91780952D01*
X76461905Y-91733333D01*
X76366667Y-91733333D01*
X76271429Y-91780952D01*
X76223810Y-91828571D01*
X76176190Y-91923809D01*
X76128571Y-92114286D01*
X76080952Y-92209524D01*
X76033333Y-92257143D01*
X75938095Y-92304762D01*
X75842857Y-92304762D01*
X75747619Y-92257143D01*
X75700000Y-92209524D01*
X75652381Y-92114286D01*
X75652381Y-91876190D01*
X75700000Y-91733333D01*
X75652381Y-91447619D02*
X75652381Y-90876190D01*
X76652381Y-91161905D02*
X75652381Y-91161905D01*
X76128571Y-90542857D02*
X76128571Y-90209523D01*
X76652381Y-90066666D02*
X76652381Y-90542857D01*
X75652381Y-90542857D01*
X75652381Y-90066666D01*
X76652381Y-89638095D02*
X75652381Y-89638095D01*
X75652381Y-89257142D01*
X75700000Y-89161904D01*
X75747619Y-89114285D01*
X75842857Y-89066666D01*
X75985714Y-89066666D01*
X76080952Y-89114285D01*
X76128571Y-89161904D01*
X76176190Y-89257142D01*
X76176190Y-89638095D01*
X76747619Y-88876190D02*
X76747619Y-88114285D01*
X76557143Y-87304761D02*
X76604762Y-87352380D01*
X76652381Y-87495237D01*
X76652381Y-87590475D01*
X76604762Y-87733333D01*
X76509524Y-87828571D01*
X76414286Y-87876190D01*
X76223810Y-87923809D01*
X76080952Y-87923809D01*
X75890476Y-87876190D01*
X75795238Y-87828571D01*
X75700000Y-87733333D01*
X75652381Y-87590475D01*
X75652381Y-87495237D01*
X75700000Y-87352380D01*
X75747619Y-87304761D01*
X76652381Y-86399999D02*
X76652381Y-86876190D01*
X75652381Y-86876190D01*
X76652381Y-86066666D02*
X75652381Y-86066666D01*
X76652381Y-85495237D02*
X76080952Y-85923809D01*
X75652381Y-85495237D02*
X76223810Y-86066666D01*
X76652381Y-75112381D02*
X76176190Y-75445715D01*
X76652381Y-75683810D02*
X75652381Y-75683810D01*
X75652381Y-75302857D01*
X75700000Y-75207619D01*
X75747619Y-75160000D01*
X75842857Y-75112381D01*
X75985714Y-75112381D01*
X76080952Y-75160000D01*
X76128571Y-75207619D01*
X76176190Y-75302857D01*
X76176190Y-75683810D01*
X76128571Y-74683810D02*
X76128571Y-74350476D01*
X76652381Y-74207619D02*
X76652381Y-74683810D01*
X75652381Y-74683810D01*
X75652381Y-74207619D01*
X76604762Y-73826667D02*
X76652381Y-73683810D01*
X76652381Y-73445714D01*
X76604762Y-73350476D01*
X76557143Y-73302857D01*
X76461905Y-73255238D01*
X76366667Y-73255238D01*
X76271429Y-73302857D01*
X76223810Y-73350476D01*
X76176190Y-73445714D01*
X76128571Y-73636191D01*
X76080952Y-73731429D01*
X76033333Y-73779048D01*
X75938095Y-73826667D01*
X75842857Y-73826667D01*
X75747619Y-73779048D01*
X75700000Y-73731429D01*
X75652381Y-73636191D01*
X75652381Y-73398095D01*
X75700000Y-73255238D01*
X76128571Y-72826667D02*
X76128571Y-72493333D01*
X76652381Y-72350476D02*
X76652381Y-72826667D01*
X75652381Y-72826667D01*
X75652381Y-72350476D01*
X75652381Y-72064762D02*
X75652381Y-71493333D01*
X76652381Y-71779048D02*
X75652381Y-71779048D01*
X101346190Y-86665952D02*
X101250952Y-86618333D01*
X101203333Y-86570714D01*
X101155714Y-86475476D01*
X101155714Y-86427857D01*
X101203333Y-86332619D01*
X101250952Y-86285000D01*
X101346190Y-86237381D01*
X101536667Y-86237381D01*
X101631905Y-86285000D01*
X101679524Y-86332619D01*
X101727143Y-86427857D01*
X101727143Y-86475476D01*
X101679524Y-86570714D01*
X101631905Y-86618333D01*
X101536667Y-86665952D01*
X101346190Y-86665952D01*
X101250952Y-86713571D01*
X101203333Y-86761190D01*
X101155714Y-86856429D01*
X101155714Y-87046905D01*
X101203333Y-87142143D01*
X101250952Y-87189762D01*
X101346190Y-87237381D01*
X101536667Y-87237381D01*
X101631905Y-87189762D01*
X101679524Y-87142143D01*
X101727143Y-87046905D01*
X101727143Y-86856429D01*
X101679524Y-86761190D01*
X101631905Y-86713571D01*
X101536667Y-86665952D01*
X102108095Y-86332619D02*
X102155714Y-86285000D01*
X102250952Y-86237381D01*
X102489048Y-86237381D01*
X102584286Y-86285000D01*
X102631905Y-86332619D01*
X102679524Y-86427857D01*
X102679524Y-86523095D01*
X102631905Y-86665952D01*
X102060476Y-87237381D01*
X102679524Y-87237381D01*
X103250952Y-86665952D02*
X103155714Y-86618333D01*
X103108095Y-86570714D01*
X103060476Y-86475476D01*
X103060476Y-86427857D01*
X103108095Y-86332619D01*
X103155714Y-86285000D01*
X103250952Y-86237381D01*
X103441429Y-86237381D01*
X103536667Y-86285000D01*
X103584286Y-86332619D01*
X103631905Y-86427857D01*
X103631905Y-86475476D01*
X103584286Y-86570714D01*
X103536667Y-86618333D01*
X103441429Y-86665952D01*
X103250952Y-86665952D01*
X103155714Y-86713571D01*
X103108095Y-86761190D01*
X103060476Y-86856429D01*
X103060476Y-87046905D01*
X103108095Y-87142143D01*
X103155714Y-87189762D01*
X103250952Y-87237381D01*
X103441429Y-87237381D01*
X103536667Y-87189762D01*
X103584286Y-87142143D01*
X103631905Y-87046905D01*
X103631905Y-86856429D01*
X103584286Y-86761190D01*
X103536667Y-86713571D01*
X103441429Y-86665952D01*
X104489048Y-86570714D02*
X104489048Y-87237381D01*
X104250952Y-86189762D02*
X104012857Y-86904048D01*
X104631905Y-86904048D01*
X102108095Y-73747381D02*
X102108095Y-74556905D01*
X102155714Y-74652143D01*
X102203333Y-74699762D01*
X102298571Y-74747381D01*
X102489048Y-74747381D01*
X102584286Y-74699762D01*
X102631905Y-74652143D01*
X102679524Y-74556905D01*
X102679524Y-73747381D01*
X103679524Y-74747381D02*
X103108095Y-74747381D01*
X103393809Y-74747381D02*
X103393809Y-73747381D01*
X103298571Y-73890238D01*
X103203333Y-73985476D01*
X103108095Y-74033095D01*
X149177619Y-114605952D02*
X149082381Y-114558333D01*
X149034762Y-114510714D01*
X148987143Y-114415476D01*
X148987143Y-114367857D01*
X149034762Y-114272619D01*
X149082381Y-114225000D01*
X149177619Y-114177381D01*
X149368096Y-114177381D01*
X149463334Y-114225000D01*
X149510953Y-114272619D01*
X149558572Y-114367857D01*
X149558572Y-114415476D01*
X149510953Y-114510714D01*
X149463334Y-114558333D01*
X149368096Y-114605952D01*
X149177619Y-114605952D01*
X149082381Y-114653571D01*
X149034762Y-114701190D01*
X148987143Y-114796429D01*
X148987143Y-114986905D01*
X149034762Y-115082143D01*
X149082381Y-115129762D01*
X149177619Y-115177381D01*
X149368096Y-115177381D01*
X149463334Y-115129762D01*
X149510953Y-115082143D01*
X149558572Y-114986905D01*
X149558572Y-114796429D01*
X149510953Y-114701190D01*
X149463334Y-114653571D01*
X149368096Y-114605952D01*
X149891905Y-114177381D02*
X150558572Y-114177381D01*
X150130000Y-115177381D01*
X151415715Y-114177381D02*
X150939524Y-114177381D01*
X150891905Y-114653571D01*
X150939524Y-114605952D01*
X151034762Y-114558333D01*
X151272858Y-114558333D01*
X151368096Y-114605952D01*
X151415715Y-114653571D01*
X151463334Y-114748810D01*
X151463334Y-114986905D01*
X151415715Y-115082143D01*
X151368096Y-115129762D01*
X151272858Y-115177381D01*
X151034762Y-115177381D01*
X150939524Y-115129762D01*
X150891905Y-115082143D01*
X152368096Y-114177381D02*
X151891905Y-114177381D01*
X151844286Y-114653571D01*
X151891905Y-114605952D01*
X151987143Y-114558333D01*
X152225239Y-114558333D01*
X152320477Y-114605952D01*
X152368096Y-114653571D01*
X152415715Y-114748810D01*
X152415715Y-114986905D01*
X152368096Y-115082143D01*
X152320477Y-115129762D01*
X152225239Y-115177381D01*
X151987143Y-115177381D01*
X151891905Y-115129762D01*
X151844286Y-115082143D01*
X152796667Y-114891667D02*
X153272858Y-114891667D01*
X152701429Y-115177381D02*
X153034762Y-114177381D01*
X153368096Y-115177381D01*
X150368095Y-87717381D02*
X150368095Y-88526905D01*
X150415714Y-88622143D01*
X150463333Y-88669762D01*
X150558571Y-88717381D01*
X150749048Y-88717381D01*
X150844286Y-88669762D01*
X150891905Y-88622143D01*
X150939524Y-88526905D01*
X150939524Y-87717381D01*
X151320476Y-87717381D02*
X151939524Y-87717381D01*
X151606190Y-88098333D01*
X151749048Y-88098333D01*
X151844286Y-88145952D01*
X151891905Y-88193571D01*
X151939524Y-88288810D01*
X151939524Y-88526905D01*
X151891905Y-88622143D01*
X151844286Y-88669762D01*
X151749048Y-88717381D01*
X151463333Y-88717381D01*
X151368095Y-88669762D01*
X151320476Y-88622143D01*
X182626190Y-114605952D02*
X182530952Y-114558333D01*
X182483333Y-114510714D01*
X182435714Y-114415476D01*
X182435714Y-114367857D01*
X182483333Y-114272619D01*
X182530952Y-114225000D01*
X182626190Y-114177381D01*
X182816667Y-114177381D01*
X182911905Y-114225000D01*
X182959524Y-114272619D01*
X183007143Y-114367857D01*
X183007143Y-114415476D01*
X182959524Y-114510714D01*
X182911905Y-114558333D01*
X182816667Y-114605952D01*
X182626190Y-114605952D01*
X182530952Y-114653571D01*
X182483333Y-114701190D01*
X182435714Y-114796429D01*
X182435714Y-114986905D01*
X182483333Y-115082143D01*
X182530952Y-115129762D01*
X182626190Y-115177381D01*
X182816667Y-115177381D01*
X182911905Y-115129762D01*
X182959524Y-115082143D01*
X183007143Y-114986905D01*
X183007143Y-114796429D01*
X182959524Y-114701190D01*
X182911905Y-114653571D01*
X182816667Y-114605952D01*
X183959524Y-115177381D02*
X183388095Y-115177381D01*
X183673809Y-115177381D02*
X183673809Y-114177381D01*
X183578571Y-114320238D01*
X183483333Y-114415476D01*
X183388095Y-114463095D01*
X184864286Y-114177381D02*
X184388095Y-114177381D01*
X184340476Y-114653571D01*
X184388095Y-114605952D01*
X184483333Y-114558333D01*
X184721429Y-114558333D01*
X184816667Y-114605952D01*
X184864286Y-114653571D01*
X184911905Y-114748810D01*
X184911905Y-114986905D01*
X184864286Y-115082143D01*
X184816667Y-115129762D01*
X184721429Y-115177381D01*
X184483333Y-115177381D01*
X184388095Y-115129762D01*
X184340476Y-115082143D01*
X185816667Y-114177381D02*
X185340476Y-114177381D01*
X185292857Y-114653571D01*
X185340476Y-114605952D01*
X185435714Y-114558333D01*
X185673810Y-114558333D01*
X185769048Y-114605952D01*
X185816667Y-114653571D01*
X185864286Y-114748810D01*
X185864286Y-114986905D01*
X185816667Y-115082143D01*
X185769048Y-115129762D01*
X185673810Y-115177381D01*
X185435714Y-115177381D01*
X185340476Y-115129762D01*
X185292857Y-115082143D01*
X183388095Y-87717381D02*
X183388095Y-88526905D01*
X183435714Y-88622143D01*
X183483333Y-88669762D01*
X183578571Y-88717381D01*
X183769048Y-88717381D01*
X183864286Y-88669762D01*
X183911905Y-88622143D01*
X183959524Y-88526905D01*
X183959524Y-87717381D01*
X184864286Y-88050714D02*
X184864286Y-88717381D01*
X184626190Y-87669762D02*
X184388095Y-88384048D01*
X185007143Y-88384048D01*
X213947619Y-99365952D02*
X213852381Y-99318333D01*
X213804762Y-99270714D01*
X213757143Y-99175476D01*
X213757143Y-99127857D01*
X213804762Y-99032619D01*
X213852381Y-98985000D01*
X213947619Y-98937381D01*
X214138096Y-98937381D01*
X214233334Y-98985000D01*
X214280953Y-99032619D01*
X214328572Y-99127857D01*
X214328572Y-99175476D01*
X214280953Y-99270714D01*
X214233334Y-99318333D01*
X214138096Y-99365952D01*
X213947619Y-99365952D01*
X213852381Y-99413571D01*
X213804762Y-99461190D01*
X213757143Y-99556429D01*
X213757143Y-99746905D01*
X213804762Y-99842143D01*
X213852381Y-99889762D01*
X213947619Y-99937381D01*
X214138096Y-99937381D01*
X214233334Y-99889762D01*
X214280953Y-99842143D01*
X214328572Y-99746905D01*
X214328572Y-99556429D01*
X214280953Y-99461190D01*
X214233334Y-99413571D01*
X214138096Y-99365952D01*
X214709524Y-99032619D02*
X214757143Y-98985000D01*
X214852381Y-98937381D01*
X215090477Y-98937381D01*
X215185715Y-98985000D01*
X215233334Y-99032619D01*
X215280953Y-99127857D01*
X215280953Y-99223095D01*
X215233334Y-99365952D01*
X214661905Y-99937381D01*
X215280953Y-99937381D01*
X216185715Y-98937381D02*
X215709524Y-98937381D01*
X215661905Y-99413571D01*
X215709524Y-99365952D01*
X215804762Y-99318333D01*
X216042858Y-99318333D01*
X216138096Y-99365952D01*
X216185715Y-99413571D01*
X216233334Y-99508810D01*
X216233334Y-99746905D01*
X216185715Y-99842143D01*
X216138096Y-99889762D01*
X216042858Y-99937381D01*
X215804762Y-99937381D01*
X215709524Y-99889762D01*
X215661905Y-99842143D01*
X217185715Y-99937381D02*
X216614286Y-99937381D01*
X216900000Y-99937381D02*
X216900000Y-98937381D01*
X216804762Y-99080238D01*
X216709524Y-99175476D01*
X216614286Y-99223095D01*
X217566667Y-99651667D02*
X218042858Y-99651667D01*
X217471429Y-99937381D02*
X217804762Y-98937381D01*
X218138096Y-99937381D01*
X215138095Y-80097381D02*
X215138095Y-80906905D01*
X215185714Y-81002143D01*
X215233333Y-81049762D01*
X215328571Y-81097381D01*
X215519048Y-81097381D01*
X215614286Y-81049762D01*
X215661905Y-81002143D01*
X215709524Y-80906905D01*
X215709524Y-80097381D01*
X216661905Y-80097381D02*
X216185714Y-80097381D01*
X216138095Y-80573571D01*
X216185714Y-80525952D01*
X216280952Y-80478333D01*
X216519048Y-80478333D01*
X216614286Y-80525952D01*
X216661905Y-80573571D01*
X216709524Y-80668810D01*
X216709524Y-80906905D01*
X216661905Y-81002143D01*
X216614286Y-81049762D01*
X216519048Y-81097381D01*
X216280952Y-81097381D01*
X216185714Y-81049762D01*
X216138095Y-81002143D01*
X173652381Y-127737857D02*
X173652381Y-127071190D01*
X174652381Y-127499762D01*
X173985714Y-126261666D02*
X174652381Y-126261666D01*
X173604762Y-126499762D02*
X174319048Y-126737857D01*
X174319048Y-126118809D01*
X174652381Y-125261666D02*
X174652381Y-125737857D01*
X173652381Y-125737857D01*
X174604762Y-124975952D02*
X174652381Y-124833095D01*
X174652381Y-124594999D01*
X174604762Y-124499761D01*
X174557143Y-124452142D01*
X174461905Y-124404523D01*
X174366667Y-124404523D01*
X174271429Y-124452142D01*
X174223810Y-124499761D01*
X174176190Y-124594999D01*
X174128571Y-124785476D01*
X174080952Y-124880714D01*
X174033333Y-124928333D01*
X173938095Y-124975952D01*
X173842857Y-124975952D01*
X173747619Y-124928333D01*
X173700000Y-124880714D01*
X173652381Y-124785476D01*
X173652381Y-124547380D01*
X173700000Y-124404523D01*
X173652381Y-124071190D02*
X173652381Y-123452142D01*
X174033333Y-123785476D01*
X174033333Y-123642618D01*
X174080952Y-123547380D01*
X174128571Y-123499761D01*
X174223810Y-123452142D01*
X174461905Y-123452142D01*
X174557143Y-123499761D01*
X174604762Y-123547380D01*
X174652381Y-123642618D01*
X174652381Y-123928333D01*
X174604762Y-124023571D01*
X174557143Y-124071190D01*
X173747619Y-123071190D02*
X173700000Y-123023571D01*
X173652381Y-122928333D01*
X173652381Y-122690237D01*
X173700000Y-122594999D01*
X173747619Y-122547380D01*
X173842857Y-122499761D01*
X173938095Y-122499761D01*
X174080952Y-122547380D01*
X174652381Y-123118809D01*
X174652381Y-122499761D01*
X183602381Y-125856905D02*
X184411905Y-125856905D01*
X184507143Y-125809286D01*
X184554762Y-125761667D01*
X184602381Y-125666429D01*
X184602381Y-125475952D01*
X184554762Y-125380714D01*
X184507143Y-125333095D01*
X184411905Y-125285476D01*
X183602381Y-125285476D01*
X183602381Y-124380714D02*
X183602381Y-124571191D01*
X183650000Y-124666429D01*
X183697619Y-124714048D01*
X183840476Y-124809286D01*
X184030952Y-124856905D01*
X184411905Y-124856905D01*
X184507143Y-124809286D01*
X184554762Y-124761667D01*
X184602381Y-124666429D01*
X184602381Y-124475952D01*
X184554762Y-124380714D01*
X184507143Y-124333095D01*
X184411905Y-124285476D01*
X184173810Y-124285476D01*
X184078571Y-124333095D01*
X184030952Y-124380714D01*
X183983333Y-124475952D01*
X183983333Y-124666429D01*
X184030952Y-124761667D01*
X184078571Y-124809286D01*
X184173810Y-124856905D01*
X115244952Y-124166381D02*
X115911619Y-124166381D01*
X115483047Y-125166381D01*
X116721143Y-124499714D02*
X116721143Y-125166381D01*
X116483047Y-124118762D02*
X116244952Y-124833048D01*
X116864000Y-124833048D01*
X117721143Y-125166381D02*
X117244952Y-125166381D01*
X117244952Y-124166381D01*
X118006857Y-125118762D02*
X118149714Y-125166381D01*
X118387810Y-125166381D01*
X118483048Y-125118762D01*
X118530667Y-125071143D01*
X118578286Y-124975905D01*
X118578286Y-124880667D01*
X118530667Y-124785429D01*
X118483048Y-124737810D01*
X118387810Y-124690190D01*
X118197333Y-124642571D01*
X118102095Y-124594952D01*
X118054476Y-124547333D01*
X118006857Y-124452095D01*
X118006857Y-124356857D01*
X118054476Y-124261619D01*
X118102095Y-124214000D01*
X118197333Y-124166381D01*
X118435429Y-124166381D01*
X118578286Y-124214000D01*
X119530667Y-125166381D02*
X118959238Y-125166381D01*
X119244952Y-125166381D02*
X119244952Y-124166381D01*
X119149714Y-124309238D01*
X119054476Y-124404476D01*
X118959238Y-124452095D01*
X119864000Y-124166381D02*
X120483048Y-124166381D01*
X120149714Y-124547333D01*
X120292572Y-124547333D01*
X120387810Y-124594952D01*
X120435429Y-124642571D01*
X120483048Y-124737810D01*
X120483048Y-124975905D01*
X120435429Y-125071143D01*
X120387810Y-125118762D01*
X120292572Y-125166381D01*
X120006857Y-125166381D01*
X119911619Y-125118762D01*
X119864000Y-125071143D01*
X121054476Y-124594952D02*
X120959238Y-124547333D01*
X120911619Y-124499714D01*
X120864000Y-124404476D01*
X120864000Y-124356857D01*
X120911619Y-124261619D01*
X120959238Y-124214000D01*
X121054476Y-124166381D01*
X121244953Y-124166381D01*
X121340191Y-124214000D01*
X121387810Y-124261619D01*
X121435429Y-124356857D01*
X121435429Y-124404476D01*
X121387810Y-124499714D01*
X121340191Y-124547333D01*
X121244953Y-124594952D01*
X121054476Y-124594952D01*
X120959238Y-124642571D01*
X120911619Y-124690190D01*
X120864000Y-124785429D01*
X120864000Y-124975905D01*
X120911619Y-125071143D01*
X120959238Y-125118762D01*
X121054476Y-125166381D01*
X121244953Y-125166381D01*
X121340191Y-125118762D01*
X121387810Y-125071143D01*
X121435429Y-124975905D01*
X121435429Y-124785429D01*
X121387810Y-124690190D01*
X121340191Y-124642571D01*
X121244953Y-124594952D01*
X122642381Y-125856905D02*
X123451905Y-125856905D01*
X123547143Y-125809286D01*
X123594762Y-125761667D01*
X123642381Y-125666429D01*
X123642381Y-125475952D01*
X123594762Y-125380714D01*
X123547143Y-125333095D01*
X123451905Y-125285476D01*
X122642381Y-125285476D01*
X122642381Y-124904524D02*
X122642381Y-124237857D01*
X123642381Y-124666429D01*
X222857619Y-122999286D02*
X222810000Y-122951667D01*
X222762381Y-122856429D01*
X222762381Y-122618333D01*
X222810000Y-122523095D01*
X222857619Y-122475476D01*
X222952857Y-122427857D01*
X223048095Y-122427857D01*
X223190952Y-122475476D01*
X223762381Y-123046905D01*
X223762381Y-122427857D01*
X223762381Y-121475476D02*
X223762381Y-122046905D01*
X223762381Y-121761191D02*
X222762381Y-121761191D01*
X222905238Y-121856429D01*
X223000476Y-121951667D01*
X223048095Y-122046905D01*
X223762381Y-120523095D02*
X223762381Y-121094524D01*
X223762381Y-120808810D02*
X222762381Y-120808810D01*
X222905238Y-120904048D01*
X223000476Y-120999286D01*
X223048095Y-121094524D01*
X223095714Y-119665952D02*
X223762381Y-119665952D01*
X222714762Y-119904048D02*
X223429048Y-120142143D01*
X223429048Y-119523095D01*
X210272381Y-122046905D02*
X211081905Y-122046905D01*
X211177143Y-121999286D01*
X211224762Y-121951667D01*
X211272381Y-121856429D01*
X211272381Y-121665952D01*
X211224762Y-121570714D01*
X211177143Y-121523095D01*
X211081905Y-121475476D01*
X210272381Y-121475476D01*
X211272381Y-120951667D02*
X211272381Y-120761191D01*
X211224762Y-120665952D01*
X211177143Y-120618333D01*
X211034286Y-120523095D01*
X210843810Y-120475476D01*
X210462857Y-120475476D01*
X210367619Y-120523095D01*
X210320000Y-120570714D01*
X210272381Y-120665952D01*
X210272381Y-120856429D01*
X210320000Y-120951667D01*
X210367619Y-120999286D01*
X210462857Y-121046905D01*
X210700952Y-121046905D01*
X210796190Y-120999286D01*
X210843810Y-120951667D01*
X210891429Y-120856429D01*
X210891429Y-120665952D01*
X210843810Y-120570714D01*
X210796190Y-120523095D01*
X210700952Y-120475476D01*
X222857619Y-111569286D02*
X222810000Y-111521667D01*
X222762381Y-111426429D01*
X222762381Y-111188333D01*
X222810000Y-111093095D01*
X222857619Y-111045476D01*
X222952857Y-110997857D01*
X223048095Y-110997857D01*
X223190952Y-111045476D01*
X223762381Y-111616905D01*
X223762381Y-110997857D01*
X223762381Y-110045476D02*
X223762381Y-110616905D01*
X223762381Y-110331191D02*
X222762381Y-110331191D01*
X222905238Y-110426429D01*
X223000476Y-110521667D01*
X223048095Y-110616905D01*
X223762381Y-109093095D02*
X223762381Y-109664524D01*
X223762381Y-109378810D02*
X222762381Y-109378810D01*
X222905238Y-109474048D01*
X223000476Y-109569286D01*
X223048095Y-109664524D01*
X223095714Y-108235952D02*
X223762381Y-108235952D01*
X222714762Y-108474048D02*
X223429048Y-108712143D01*
X223429048Y-108093095D01*
X210272381Y-111093095D02*
X211081905Y-111093095D01*
X211177143Y-111045476D01*
X211224762Y-110997857D01*
X211272381Y-110902619D01*
X211272381Y-110712142D01*
X211224762Y-110616904D01*
X211177143Y-110569285D01*
X211081905Y-110521666D01*
X210272381Y-110521666D01*
X211272381Y-109521666D02*
X211272381Y-110093095D01*
X211272381Y-109807381D02*
X210272381Y-109807381D01*
X210415238Y-109902619D01*
X210510476Y-109997857D01*
X210558095Y-110093095D01*
X210272381Y-108902619D02*
X210272381Y-108807380D01*
X210320000Y-108712142D01*
X210367619Y-108664523D01*
X210462857Y-108616904D01*
X210653333Y-108569285D01*
X210891429Y-108569285D01*
X211081905Y-108616904D01*
X211177143Y-108664523D01*
X211224762Y-108712142D01*
X211272381Y-108807380D01*
X211272381Y-108902619D01*
X211224762Y-108997857D01*
X211177143Y-109045476D01*
X211081905Y-109093095D01*
X210891429Y-109140714D01*
X210653333Y-109140714D01*
X210462857Y-109093095D01*
X210367619Y-109045476D01*
X210320000Y-108997857D01*
X210272381Y-108902619D01*
X100227143Y-89197381D02*
X100893810Y-89197381D01*
X100465238Y-90197381D01*
X101703334Y-89530714D02*
X101703334Y-90197381D01*
X101465238Y-89149762D02*
X101227143Y-89864048D01*
X101846191Y-89864048D01*
X102703334Y-90197381D02*
X102227143Y-90197381D01*
X102227143Y-89197381D01*
X102989048Y-90149762D02*
X103131905Y-90197381D01*
X103370001Y-90197381D01*
X103465239Y-90149762D01*
X103512858Y-90102143D01*
X103560477Y-90006905D01*
X103560477Y-89911667D01*
X103512858Y-89816429D01*
X103465239Y-89768810D01*
X103370001Y-89721190D01*
X103179524Y-89673571D01*
X103084286Y-89625952D01*
X103036667Y-89578333D01*
X102989048Y-89483095D01*
X102989048Y-89387857D01*
X103036667Y-89292619D01*
X103084286Y-89245000D01*
X103179524Y-89197381D01*
X103417620Y-89197381D01*
X103560477Y-89245000D01*
X104512858Y-90197381D02*
X103941429Y-90197381D01*
X104227143Y-90197381D02*
X104227143Y-89197381D01*
X104131905Y-89340238D01*
X104036667Y-89435476D01*
X103941429Y-89483095D01*
X105370001Y-89530714D02*
X105370001Y-90197381D01*
X105131905Y-89149762D02*
X104893810Y-89864048D01*
X105512858Y-89864048D01*
X101631905Y-99147381D02*
X101631905Y-99956905D01*
X101679524Y-100052143D01*
X101727143Y-100099762D01*
X101822381Y-100147381D01*
X102012858Y-100147381D01*
X102108096Y-100099762D01*
X102155715Y-100052143D01*
X102203334Y-99956905D01*
X102203334Y-99147381D01*
X103203334Y-100147381D02*
X102631905Y-100147381D01*
X102917619Y-100147381D02*
X102917619Y-99147381D01*
X102822381Y-99290238D01*
X102727143Y-99385476D01*
X102631905Y-99433095D01*
X103584286Y-99242619D02*
X103631905Y-99195000D01*
X103727143Y-99147381D01*
X103965239Y-99147381D01*
X104060477Y-99195000D01*
X104108096Y-99242619D01*
X104155715Y-99337857D01*
X104155715Y-99433095D01*
X104108096Y-99575952D01*
X103536667Y-100147381D01*
X104155715Y-100147381D01*
X82836381Y-108450905D02*
X82836381Y-107784238D01*
X83836381Y-108212810D01*
X83264952Y-107260429D02*
X83217333Y-107355667D01*
X83169714Y-107403286D01*
X83074476Y-107450905D01*
X83026857Y-107450905D01*
X82931619Y-107403286D01*
X82884000Y-107355667D01*
X82836381Y-107260429D01*
X82836381Y-107069952D01*
X82884000Y-106974714D01*
X82931619Y-106927095D01*
X83026857Y-106879476D01*
X83074476Y-106879476D01*
X83169714Y-106927095D01*
X83217333Y-106974714D01*
X83264952Y-107069952D01*
X83264952Y-107260429D01*
X83312571Y-107355667D01*
X83360190Y-107403286D01*
X83455429Y-107450905D01*
X83645905Y-107450905D01*
X83741143Y-107403286D01*
X83788762Y-107355667D01*
X83836381Y-107260429D01*
X83836381Y-107069952D01*
X83788762Y-106974714D01*
X83741143Y-106927095D01*
X83645905Y-106879476D01*
X83455429Y-106879476D01*
X83360190Y-106927095D01*
X83312571Y-106974714D01*
X83264952Y-107069952D01*
X82836381Y-106260429D02*
X82836381Y-106165190D01*
X82884000Y-106069952D01*
X82931619Y-106022333D01*
X83026857Y-105974714D01*
X83217333Y-105927095D01*
X83455429Y-105927095D01*
X83645905Y-105974714D01*
X83741143Y-106022333D01*
X83788762Y-106069952D01*
X83836381Y-106165190D01*
X83836381Y-106260429D01*
X83788762Y-106355667D01*
X83741143Y-106403286D01*
X83645905Y-106450905D01*
X83455429Y-106498524D01*
X83217333Y-106498524D01*
X83026857Y-106450905D01*
X82931619Y-106403286D01*
X82884000Y-106355667D01*
X82836381Y-106260429D01*
X82836381Y-105022333D02*
X82836381Y-105498524D01*
X83312571Y-105546143D01*
X83264952Y-105498524D01*
X83217333Y-105403286D01*
X83217333Y-105165190D01*
X83264952Y-105069952D01*
X83312571Y-105022333D01*
X83407810Y-104974714D01*
X83645905Y-104974714D01*
X83741143Y-105022333D01*
X83788762Y-105069952D01*
X83836381Y-105165190D01*
X83836381Y-105403286D01*
X83788762Y-105498524D01*
X83741143Y-105546143D01*
X87336381Y-107927095D02*
X88145905Y-107927095D01*
X88241143Y-107879476D01*
X88288762Y-107831857D01*
X88336381Y-107736619D01*
X88336381Y-107546142D01*
X88288762Y-107450904D01*
X88241143Y-107403285D01*
X88145905Y-107355666D01*
X87336381Y-107355666D01*
X88336381Y-106355666D02*
X88336381Y-106927095D01*
X88336381Y-106641381D02*
X87336381Y-106641381D01*
X87479238Y-106736619D01*
X87574476Y-106831857D01*
X87622095Y-106927095D01*
X87336381Y-105498523D02*
X87336381Y-105689000D01*
X87384000Y-105784238D01*
X87431619Y-105831857D01*
X87574476Y-105927095D01*
X87764952Y-105974714D01*
X88145905Y-105974714D01*
X88241143Y-105927095D01*
X88288762Y-105879476D01*
X88336381Y-105784238D01*
X88336381Y-105593761D01*
X88288762Y-105498523D01*
X88241143Y-105450904D01*
X88145905Y-105403285D01*
X87907810Y-105403285D01*
X87812571Y-105450904D01*
X87764952Y-105498523D01*
X87717333Y-105593761D01*
X87717333Y-105784238D01*
X87764952Y-105879476D01*
X87812571Y-105927095D01*
X87907810Y-105974714D01*
X97313809Y-59031190D02*
X97313809Y-59507381D01*
X96980476Y-58507381D02*
X97313809Y-59031190D01*
X97647143Y-58507381D01*
X98504286Y-59507381D02*
X97932857Y-59507381D01*
X98218571Y-59507381D02*
X98218571Y-58507381D01*
X98123333Y-58650238D01*
X98028095Y-58745476D01*
X97932857Y-58793095D01*
X107116667Y-119340381D02*
X107116667Y-120054667D01*
X107069047Y-120197524D01*
X106973809Y-120292762D01*
X106830952Y-120340381D01*
X106735714Y-120340381D01*
X107592857Y-120340381D02*
X107592857Y-119340381D01*
X107973810Y-119340381D01*
X108069048Y-119388000D01*
X108116667Y-119435619D01*
X108164286Y-119530857D01*
X108164286Y-119673714D01*
X108116667Y-119768952D01*
X108069048Y-119816571D01*
X107973810Y-119864190D01*
X107592857Y-119864190D01*
X108545238Y-119435619D02*
X108592857Y-119388000D01*
X108688095Y-119340381D01*
X108926191Y-119340381D01*
X109021429Y-119388000D01*
X109069048Y-119435619D01*
X109116667Y-119530857D01*
X109116667Y-119626095D01*
X109069048Y-119768952D01*
X108497619Y-120340381D01*
X109116667Y-120340381D01*
X229052381Y-99036095D02*
X228052381Y-99036095D01*
X228052381Y-98655142D01*
X228100000Y-98559904D01*
X228147619Y-98512285D01*
X228242857Y-98464666D01*
X228385714Y-98464666D01*
X228480952Y-98512285D01*
X228528571Y-98559904D01*
X228576190Y-98655142D01*
X228576190Y-99036095D01*
X229052381Y-97988476D02*
X229052381Y-97798000D01*
X229004762Y-97702761D01*
X228957143Y-97655142D01*
X228814286Y-97559904D01*
X228623810Y-97512285D01*
X228242857Y-97512285D01*
X228147619Y-97559904D01*
X228100000Y-97607523D01*
X228052381Y-97702761D01*
X228052381Y-97893238D01*
X228100000Y-97988476D01*
X228147619Y-98036095D01*
X228242857Y-98083714D01*
X228480952Y-98083714D01*
X228576190Y-98036095D01*
X228623810Y-97988476D01*
X228671429Y-97893238D01*
X228671429Y-97702761D01*
X228623810Y-97607523D01*
X228576190Y-97559904D01*
X228480952Y-97512285D01*
X110307381Y-85669286D02*
X109307381Y-85669286D01*
X109307381Y-85288333D01*
X109355000Y-85193095D01*
X109402619Y-85145476D01*
X109497857Y-85097857D01*
X109640714Y-85097857D01*
X109735952Y-85145476D01*
X109783571Y-85193095D01*
X109831190Y-85288333D01*
X109831190Y-85669286D01*
X110307381Y-84145476D02*
X110307381Y-84716905D01*
X110307381Y-84431191D02*
X109307381Y-84431191D01*
X109450238Y-84526429D01*
X109545476Y-84621667D01*
X109593095Y-84716905D01*
X109307381Y-83526429D02*
X109307381Y-83431190D01*
X109355000Y-83335952D01*
X109402619Y-83288333D01*
X109497857Y-83240714D01*
X109688333Y-83193095D01*
X109926429Y-83193095D01*
X110116905Y-83240714D01*
X110212143Y-83288333D01*
X110259762Y-83335952D01*
X110307381Y-83431190D01*
X110307381Y-83526429D01*
X110259762Y-83621667D01*
X110212143Y-83669286D01*
X110116905Y-83716905D01*
X109926429Y-83764524D01*
X109688333Y-83764524D01*
X109497857Y-83716905D01*
X109402619Y-83669286D01*
X109355000Y-83621667D01*
X109307381Y-83526429D01*
X135072381Y-86939286D02*
X134072381Y-86939286D01*
X134072381Y-86558333D01*
X134120000Y-86463095D01*
X134167619Y-86415476D01*
X134262857Y-86367857D01*
X134405714Y-86367857D01*
X134500952Y-86415476D01*
X134548571Y-86463095D01*
X134596190Y-86558333D01*
X134596190Y-86939286D01*
X135072381Y-85415476D02*
X135072381Y-85986905D01*
X135072381Y-85701191D02*
X134072381Y-85701191D01*
X134215238Y-85796429D01*
X134310476Y-85891667D01*
X134358095Y-85986905D01*
X135072381Y-84463095D02*
X135072381Y-85034524D01*
X135072381Y-84748810D02*
X134072381Y-84748810D01*
X134215238Y-84844048D01*
X134310476Y-84939286D01*
X134358095Y-85034524D01*
X135072381Y-73223286D02*
X134072381Y-73223286D01*
X134072381Y-72842333D01*
X134120000Y-72747095D01*
X134167619Y-72699476D01*
X134262857Y-72651857D01*
X134405714Y-72651857D01*
X134500952Y-72699476D01*
X134548571Y-72747095D01*
X134596190Y-72842333D01*
X134596190Y-73223286D01*
X135072381Y-71699476D02*
X135072381Y-72270905D01*
X135072381Y-71985191D02*
X134072381Y-71985191D01*
X134215238Y-72080429D01*
X134310476Y-72175667D01*
X134358095Y-72270905D01*
X134167619Y-71318524D02*
X134120000Y-71270905D01*
X134072381Y-71175667D01*
X134072381Y-70937571D01*
X134120000Y-70842333D01*
X134167619Y-70794714D01*
X134262857Y-70747095D01*
X134358095Y-70747095D01*
X134500952Y-70794714D01*
X135072381Y-71366143D01*
X135072381Y-70747095D01*
X148137714Y-132913381D02*
X148137714Y-131913381D01*
X148518667Y-131913381D01*
X148613905Y-131961000D01*
X148661524Y-132008619D01*
X148709143Y-132103857D01*
X148709143Y-132246714D01*
X148661524Y-132341952D01*
X148613905Y-132389571D01*
X148518667Y-132437190D01*
X148137714Y-132437190D01*
X149661524Y-132913381D02*
X149090095Y-132913381D01*
X149375809Y-132913381D02*
X149375809Y-131913381D01*
X149280571Y-132056238D01*
X149185333Y-132151476D01*
X149090095Y-132199095D01*
X149994857Y-131913381D02*
X150613905Y-131913381D01*
X150280571Y-132294333D01*
X150423429Y-132294333D01*
X150518667Y-132341952D01*
X150566286Y-132389571D01*
X150613905Y-132484810D01*
X150613905Y-132722905D01*
X150566286Y-132818143D01*
X150518667Y-132865762D01*
X150423429Y-132913381D01*
X150137714Y-132913381D01*
X150042476Y-132865762D01*
X149994857Y-132818143D01*
X122102714Y-132913381D02*
X122102714Y-131913381D01*
X122483667Y-131913381D01*
X122578905Y-131961000D01*
X122626524Y-132008619D01*
X122674143Y-132103857D01*
X122674143Y-132246714D01*
X122626524Y-132341952D01*
X122578905Y-132389571D01*
X122483667Y-132437190D01*
X122102714Y-132437190D01*
X123626524Y-132913381D02*
X123055095Y-132913381D01*
X123340809Y-132913381D02*
X123340809Y-131913381D01*
X123245571Y-132056238D01*
X123150333Y-132151476D01*
X123055095Y-132199095D01*
X124483667Y-132246714D02*
X124483667Y-132913381D01*
X124245571Y-131865762D02*
X124007476Y-132580048D01*
X124626524Y-132580048D01*
X165405952Y-126237810D02*
X165358333Y-126333048D01*
X165310714Y-126380667D01*
X165215476Y-126428286D01*
X165167857Y-126428286D01*
X165072619Y-126380667D01*
X165025000Y-126333048D01*
X164977381Y-126237810D01*
X164977381Y-126047333D01*
X165025000Y-125952095D01*
X165072619Y-125904476D01*
X165167857Y-125856857D01*
X165215476Y-125856857D01*
X165310714Y-125904476D01*
X165358333Y-125952095D01*
X165405952Y-126047333D01*
X165405952Y-126237810D01*
X165453571Y-126333048D01*
X165501190Y-126380667D01*
X165596429Y-126428286D01*
X165786905Y-126428286D01*
X165882143Y-126380667D01*
X165929762Y-126333048D01*
X165977381Y-126237810D01*
X165977381Y-126047333D01*
X165929762Y-125952095D01*
X165882143Y-125904476D01*
X165786905Y-125856857D01*
X165596429Y-125856857D01*
X165501190Y-125904476D01*
X165453571Y-125952095D01*
X165405952Y-126047333D01*
X165072619Y-125475905D02*
X165025000Y-125428286D01*
X164977381Y-125333048D01*
X164977381Y-125094952D01*
X165025000Y-124999714D01*
X165072619Y-124952095D01*
X165167857Y-124904476D01*
X165263095Y-124904476D01*
X165405952Y-124952095D01*
X165977381Y-125523524D01*
X165977381Y-124904476D01*
X165405952Y-124333048D02*
X165358333Y-124428286D01*
X165310714Y-124475905D01*
X165215476Y-124523524D01*
X165167857Y-124523524D01*
X165072619Y-124475905D01*
X165025000Y-124428286D01*
X164977381Y-124333048D01*
X164977381Y-124142571D01*
X165025000Y-124047333D01*
X165072619Y-123999714D01*
X165167857Y-123952095D01*
X165215476Y-123952095D01*
X165310714Y-123999714D01*
X165358333Y-124047333D01*
X165405952Y-124142571D01*
X165405952Y-124333048D01*
X165453571Y-124428286D01*
X165501190Y-124475905D01*
X165596429Y-124523524D01*
X165786905Y-124523524D01*
X165882143Y-124475905D01*
X165929762Y-124428286D01*
X165977381Y-124333048D01*
X165977381Y-124142571D01*
X165929762Y-124047333D01*
X165882143Y-123999714D01*
X165786905Y-123952095D01*
X165596429Y-123952095D01*
X165501190Y-123999714D01*
X165453571Y-124047333D01*
X165405952Y-124142571D01*
X165072619Y-123571143D02*
X165025000Y-123523524D01*
X164977381Y-123428286D01*
X164977381Y-123190190D01*
X165025000Y-123094952D01*
X165072619Y-123047333D01*
X165167857Y-122999714D01*
X165263095Y-122999714D01*
X165405952Y-123047333D01*
X165977381Y-123618762D01*
X165977381Y-122999714D01*
X151217381Y-125475905D02*
X152026905Y-125475905D01*
X152122143Y-125428286D01*
X152169762Y-125380667D01*
X152217381Y-125285429D01*
X152217381Y-125094952D01*
X152169762Y-124999714D01*
X152122143Y-124952095D01*
X152026905Y-124904476D01*
X151217381Y-124904476D01*
X151645952Y-124285429D02*
X151598333Y-124380667D01*
X151550714Y-124428286D01*
X151455476Y-124475905D01*
X151407857Y-124475905D01*
X151312619Y-124428286D01*
X151265000Y-124380667D01*
X151217381Y-124285429D01*
X151217381Y-124094952D01*
X151265000Y-123999714D01*
X151312619Y-123952095D01*
X151407857Y-123904476D01*
X151455476Y-123904476D01*
X151550714Y-123952095D01*
X151598333Y-123999714D01*
X151645952Y-124094952D01*
X151645952Y-124285429D01*
X151693571Y-124380667D01*
X151741190Y-124428286D01*
X151836429Y-124475905D01*
X152026905Y-124475905D01*
X152122143Y-124428286D01*
X152169762Y-124380667D01*
X152217381Y-124285429D01*
X152217381Y-124094952D01*
X152169762Y-123999714D01*
X152122143Y-123952095D01*
X152026905Y-123904476D01*
X151836429Y-123904476D01*
X151741190Y-123952095D01*
X151693571Y-123999714D01*
X151645952Y-124094952D01*
X111577381Y-125420286D02*
X110577381Y-125420286D01*
X110577381Y-125182191D01*
X110625000Y-125039333D01*
X110720238Y-124944095D01*
X110815476Y-124896476D01*
X111005952Y-124848857D01*
X111148810Y-124848857D01*
X111339286Y-124896476D01*
X111434524Y-124944095D01*
X111529762Y-125039333D01*
X111577381Y-125182191D01*
X111577381Y-125420286D01*
X110577381Y-124515524D02*
X110577381Y-123896476D01*
X110958333Y-124229810D01*
X110958333Y-124086952D01*
X111005952Y-123991714D01*
X111053571Y-123944095D01*
X111148810Y-123896476D01*
X111386905Y-123896476D01*
X111482143Y-123944095D01*
X111529762Y-123991714D01*
X111577381Y-124086952D01*
X111577381Y-124372667D01*
X111529762Y-124467905D01*
X111482143Y-124515524D01*
X110577381Y-123039333D02*
X110577381Y-123229810D01*
X110625000Y-123325048D01*
X110672619Y-123372667D01*
X110815476Y-123467905D01*
X111005952Y-123515524D01*
X111386905Y-123515524D01*
X111482143Y-123467905D01*
X111529762Y-123420286D01*
X111577381Y-123325048D01*
X111577381Y-123134571D01*
X111529762Y-123039333D01*
X111482143Y-122991714D01*
X111386905Y-122944095D01*
X111148810Y-122944095D01*
X111053571Y-122991714D01*
X111005952Y-123039333D01*
X110958333Y-123134571D01*
X110958333Y-123325048D01*
X111005952Y-123420286D01*
X111053571Y-123467905D01*
X111148810Y-123515524D01*
X105227381Y-125420286D02*
X104227381Y-125420286D01*
X104227381Y-125182191D01*
X104275000Y-125039333D01*
X104370238Y-124944095D01*
X104465476Y-124896476D01*
X104655952Y-124848857D01*
X104798810Y-124848857D01*
X104989286Y-124896476D01*
X105084524Y-124944095D01*
X105179762Y-125039333D01*
X105227381Y-125182191D01*
X105227381Y-125420286D01*
X104227381Y-124515524D02*
X104227381Y-123896476D01*
X104608333Y-124229810D01*
X104608333Y-124086952D01*
X104655952Y-123991714D01*
X104703571Y-123944095D01*
X104798810Y-123896476D01*
X105036905Y-123896476D01*
X105132143Y-123944095D01*
X105179762Y-123991714D01*
X105227381Y-124086952D01*
X105227381Y-124372667D01*
X105179762Y-124467905D01*
X105132143Y-124515524D01*
X104227381Y-123563143D02*
X104227381Y-122896476D01*
X105227381Y-123325048D01*
M02*
