G04 #@! TF.FileFunction,Soldermask,Top*
%FSLAX46Y46*%
G04 Gerber Fmt 4.6, Leading zero omitted, Abs format (unit mm)*
G04 Created by KiCad (PCBNEW 4.0.3-stable) date 10/01/17 01:53:20*
%MOMM*%
%LPD*%
G01*
G04 APERTURE LIST*
%ADD10C,0.100000*%
%ADD11C,2.200000*%
%ADD12O,1.200000X2.200000*%
%ADD13R,1.700000X1.700000*%
%ADD14O,1.700000X1.700000*%
%ADD15R,1.700000X2.000000*%
%ADD16R,1.600000X1.600000*%
%ADD17O,1.600000X1.600000*%
%ADD18R,1.250000X1.500000*%
%ADD19R,1.500000X1.250000*%
%ADD20R,3.300000X4.400000*%
%ADD21R,3.900000X6.200000*%
%ADD22C,2.000000*%
%ADD23R,1.300000X1.500000*%
%ADD24C,1.600000*%
%ADD25R,1.200000X2.200000*%
%ADD26R,5.800000X6.400000*%
%ADD27R,7.875000X2.000000*%
G04 APERTURE END LIST*
D10*
D11*
X80010000Y-54610000D03*
X227330000Y-54610000D03*
X227330000Y-115570000D03*
D12*
X95631000Y-127002000D03*
X95631000Y-130302000D03*
X98171000Y-127002000D03*
X98171000Y-130302000D03*
X100711000Y-127002000D03*
X100711000Y-130302000D03*
D13*
X223012000Y-45085000D03*
D14*
X225552000Y-45085000D03*
X223012000Y-47625000D03*
X225552000Y-47625000D03*
D13*
X216662000Y-45085000D03*
D14*
X219202000Y-45085000D03*
X216662000Y-47625000D03*
X219202000Y-47625000D03*
D15*
X185274268Y-48672284D03*
X185274268Y-52672284D03*
X164954268Y-48672284D03*
X164954268Y-52672284D03*
X135854168Y-48641108D03*
X135854168Y-52641108D03*
D16*
X114300000Y-64135000D03*
D17*
X129540000Y-112395000D03*
X114300000Y-66675000D03*
X129540000Y-109855000D03*
X114300000Y-69215000D03*
X129540000Y-107315000D03*
X114300000Y-71755000D03*
X129540000Y-104775000D03*
X114300000Y-74295000D03*
X129540000Y-102235000D03*
X114300000Y-76835000D03*
X129540000Y-99695000D03*
X114300000Y-79375000D03*
X129540000Y-97155000D03*
X114300000Y-81915000D03*
X129540000Y-94615000D03*
X114300000Y-84455000D03*
X129540000Y-92075000D03*
X114300000Y-86995000D03*
X129540000Y-89535000D03*
X114300000Y-89535000D03*
X129540000Y-86995000D03*
X114300000Y-92075000D03*
X129540000Y-84455000D03*
X114300000Y-94615000D03*
X129540000Y-81915000D03*
X114300000Y-97155000D03*
X129540000Y-79375000D03*
X114300000Y-99695000D03*
X129540000Y-76835000D03*
X114300000Y-102235000D03*
X129540000Y-74295000D03*
X114300000Y-104775000D03*
X129540000Y-71755000D03*
X114300000Y-107315000D03*
X129540000Y-69215000D03*
X114300000Y-109855000D03*
X129540000Y-66675000D03*
X114300000Y-112395000D03*
X129540000Y-64135000D03*
D18*
X91948000Y-90150000D03*
X91948000Y-87650000D03*
X91948000Y-75418000D03*
X91948000Y-72918000D03*
D19*
X94214000Y-55372000D03*
X91714000Y-55372000D03*
D18*
X92456000Y-102148000D03*
X92456000Y-104648000D03*
D19*
X85618000Y-99060000D03*
X88118000Y-99060000D03*
D20*
X86198000Y-118000000D03*
D21*
X79048000Y-127000000D03*
X91948000Y-127000000D03*
D22*
X85498000Y-130800000D03*
D16*
X107950000Y-125476000D03*
D17*
X107950000Y-122936000D03*
D16*
X82296000Y-102108000D03*
D17*
X82296000Y-99568000D03*
D15*
X203054268Y-48672284D03*
X203054268Y-52672284D03*
X182734268Y-48672284D03*
X182734268Y-52672284D03*
X200514268Y-48672284D03*
X200514268Y-52672284D03*
X180194268Y-48672284D03*
X180194268Y-52672284D03*
X197974268Y-48672284D03*
X197974268Y-52672284D03*
X177654268Y-48672284D03*
X177654268Y-52672284D03*
X195434268Y-48672284D03*
X195434268Y-52672284D03*
X175114268Y-48672284D03*
X175114268Y-52672284D03*
X192894268Y-48672284D03*
X192894268Y-52672284D03*
X172574268Y-48672284D03*
X172574268Y-52672284D03*
X190354268Y-48672284D03*
X190354268Y-52672284D03*
X170034268Y-48672284D03*
X170034268Y-52672284D03*
X187814268Y-48672284D03*
X187814268Y-52672284D03*
X167494268Y-48672284D03*
X167494268Y-52672284D03*
X162414268Y-48672284D03*
X162414268Y-52672284D03*
X159874268Y-48672284D03*
X159874268Y-52672284D03*
X133314168Y-48641108D03*
X133314168Y-52641108D03*
X157334268Y-48672284D03*
X157334268Y-52672284D03*
X130774168Y-48641108D03*
X130774168Y-52641108D03*
X154794268Y-48672284D03*
X154794268Y-52672284D03*
X128234168Y-48641108D03*
X128234168Y-52641108D03*
X123154168Y-48641108D03*
X123154168Y-52641108D03*
X125694168Y-48641108D03*
X125694168Y-52641108D03*
X120614168Y-48641108D03*
X120614168Y-52641108D03*
X118074168Y-48641108D03*
X118074168Y-52641108D03*
X146014168Y-48641108D03*
X146014168Y-52641108D03*
X143474168Y-48641108D03*
X143474168Y-52641108D03*
X140934168Y-48641108D03*
X140934168Y-52641108D03*
X138394168Y-48641108D03*
X138394168Y-52641108D03*
X79248000Y-110204000D03*
X79248000Y-106204000D03*
D13*
X105410000Y-116205000D03*
D14*
X107950000Y-116205000D03*
X110490000Y-116205000D03*
D13*
X162560000Y-107950000D03*
D14*
X162560000Y-105410000D03*
X162560000Y-102870000D03*
X162560000Y-100330000D03*
X162560000Y-97790000D03*
X162560000Y-95250000D03*
X162560000Y-92710000D03*
X162560000Y-90170000D03*
D13*
X162560000Y-83820000D03*
D14*
X162560000Y-81280000D03*
X162560000Y-78740000D03*
X162560000Y-76200000D03*
X162560000Y-73660000D03*
X162560000Y-71120000D03*
X162560000Y-68580000D03*
X162560000Y-66040000D03*
D13*
X228600000Y-86995000D03*
D14*
X228600000Y-84455000D03*
D13*
X172720000Y-78740000D03*
D14*
X172720000Y-76200000D03*
X172720000Y-73660000D03*
X172720000Y-71120000D03*
X172720000Y-68580000D03*
X172720000Y-66040000D03*
D13*
X195580000Y-111760000D03*
D14*
X195580000Y-109220000D03*
X195580000Y-106680000D03*
X195580000Y-104140000D03*
X195580000Y-101600000D03*
X195580000Y-99060000D03*
X195580000Y-96520000D03*
X195580000Y-93980000D03*
D13*
X195580000Y-87630000D03*
D14*
X195580000Y-85090000D03*
X195580000Y-82550000D03*
X195580000Y-80010000D03*
X195580000Y-77470000D03*
X195580000Y-74930000D03*
X195580000Y-72390000D03*
X195580000Y-69850000D03*
D13*
X210185000Y-45085000D03*
D14*
X212725000Y-45085000D03*
X210185000Y-47625000D03*
X212725000Y-47625000D03*
D23*
X94615000Y-73185000D03*
X94615000Y-70485000D03*
X95250000Y-90010000D03*
X95250000Y-92710000D03*
X94615000Y-75405000D03*
X94615000Y-78105000D03*
X95250000Y-83660000D03*
X95250000Y-86360000D03*
X203200000Y-57818000D03*
X203200000Y-55118000D03*
X182880000Y-57818000D03*
X182880000Y-55118000D03*
X200660000Y-57818000D03*
X200660000Y-55118000D03*
X180340000Y-57818000D03*
X180340000Y-55118000D03*
X198120000Y-57818000D03*
X198120000Y-55118000D03*
X177800000Y-57818000D03*
X177800000Y-55118000D03*
X195580000Y-57818000D03*
X195580000Y-55118000D03*
X175260000Y-57818000D03*
X175260000Y-55118000D03*
X193040000Y-57818000D03*
X193040000Y-55118000D03*
X172720000Y-57818000D03*
X172720000Y-55118000D03*
X190500000Y-57818000D03*
X190500000Y-55118000D03*
X170180000Y-57818000D03*
X170180000Y-55118000D03*
X187960000Y-57818000D03*
X187960000Y-55118000D03*
X167640000Y-57818000D03*
X167640000Y-55118000D03*
X185420000Y-57818000D03*
X185420000Y-55118000D03*
X165100000Y-57818000D03*
X165100000Y-55118000D03*
X162560000Y-57818000D03*
X162560000Y-55118000D03*
X135890000Y-57818000D03*
X135890000Y-55118000D03*
X159766000Y-57818000D03*
X159766000Y-55118000D03*
X133350000Y-57818000D03*
X133350000Y-55118000D03*
X157226000Y-57818000D03*
X157226000Y-55118000D03*
X130810000Y-57818000D03*
X130810000Y-55118000D03*
X154940000Y-57818000D03*
X154940000Y-55118000D03*
X128270000Y-57818000D03*
X128270000Y-55118000D03*
X123190000Y-57818000D03*
X123190000Y-55118000D03*
X125730000Y-57818000D03*
X125730000Y-55118000D03*
X120650000Y-57818000D03*
X120650000Y-55118000D03*
X118110000Y-57818000D03*
X118110000Y-55118000D03*
X146050000Y-57818000D03*
X146050000Y-55118000D03*
X143510000Y-57818000D03*
X143510000Y-55118000D03*
X140970000Y-57818000D03*
X140970000Y-55118000D03*
X138430000Y-57818000D03*
X138430000Y-55118000D03*
X79248000Y-103792000D03*
X79248000Y-101092000D03*
D24*
X90170000Y-91660000D03*
X90170000Y-86360000D03*
X90170000Y-76420000D03*
X90170000Y-71120000D03*
D16*
X99060000Y-64135000D03*
D17*
X106680000Y-84455000D03*
X99060000Y-66675000D03*
X106680000Y-81915000D03*
X99060000Y-69215000D03*
X106680000Y-79375000D03*
X99060000Y-71755000D03*
X106680000Y-76835000D03*
X99060000Y-74295000D03*
X106680000Y-74295000D03*
X99060000Y-76835000D03*
X106680000Y-71755000D03*
X99060000Y-79375000D03*
X106680000Y-69215000D03*
X99060000Y-81915000D03*
X106680000Y-66675000D03*
X99060000Y-84455000D03*
X106680000Y-64135000D03*
D16*
X143510000Y-64135000D03*
D17*
X158750000Y-112395000D03*
X143510000Y-66675000D03*
X158750000Y-109855000D03*
X143510000Y-69215000D03*
X158750000Y-107315000D03*
X143510000Y-71755000D03*
X158750000Y-104775000D03*
X143510000Y-74295000D03*
X158750000Y-102235000D03*
X143510000Y-76835000D03*
X158750000Y-99695000D03*
X143510000Y-79375000D03*
X158750000Y-97155000D03*
X143510000Y-81915000D03*
X158750000Y-94615000D03*
X143510000Y-84455000D03*
X158750000Y-92075000D03*
X143510000Y-86995000D03*
X158750000Y-89535000D03*
X143510000Y-89535000D03*
X158750000Y-86995000D03*
X143510000Y-92075000D03*
X158750000Y-84455000D03*
X143510000Y-94615000D03*
X158750000Y-81915000D03*
X143510000Y-97155000D03*
X158750000Y-79375000D03*
X143510000Y-99695000D03*
X158750000Y-76835000D03*
X143510000Y-102235000D03*
X158750000Y-74295000D03*
X143510000Y-104775000D03*
X158750000Y-71755000D03*
X143510000Y-107315000D03*
X158750000Y-69215000D03*
X143510000Y-109855000D03*
X158750000Y-66675000D03*
X143510000Y-112395000D03*
X158750000Y-64135000D03*
D16*
X176530000Y-64135000D03*
D17*
X191770000Y-112395000D03*
X176530000Y-66675000D03*
X191770000Y-109855000D03*
X176530000Y-69215000D03*
X191770000Y-107315000D03*
X176530000Y-71755000D03*
X191770000Y-104775000D03*
X176530000Y-74295000D03*
X191770000Y-102235000D03*
X176530000Y-76835000D03*
X191770000Y-99695000D03*
X176530000Y-79375000D03*
X191770000Y-97155000D03*
X176530000Y-81915000D03*
X191770000Y-94615000D03*
X176530000Y-84455000D03*
X191770000Y-92075000D03*
X176530000Y-86995000D03*
X191770000Y-89535000D03*
X176530000Y-89535000D03*
X191770000Y-86995000D03*
X176530000Y-92075000D03*
X191770000Y-84455000D03*
X176530000Y-94615000D03*
X191770000Y-81915000D03*
X176530000Y-97155000D03*
X191770000Y-79375000D03*
X176530000Y-99695000D03*
X191770000Y-76835000D03*
X176530000Y-102235000D03*
X191770000Y-74295000D03*
X176530000Y-104775000D03*
X191770000Y-71755000D03*
X176530000Y-107315000D03*
X191770000Y-69215000D03*
X176530000Y-109855000D03*
X191770000Y-66675000D03*
X176530000Y-112395000D03*
X191770000Y-64135000D03*
D16*
X208280000Y-64135000D03*
D17*
X223520000Y-97155000D03*
X208280000Y-66675000D03*
X223520000Y-94615000D03*
X208280000Y-69215000D03*
X223520000Y-92075000D03*
X208280000Y-71755000D03*
X223520000Y-89535000D03*
X208280000Y-74295000D03*
X223520000Y-86995000D03*
X208280000Y-76835000D03*
X223520000Y-84455000D03*
X208280000Y-79375000D03*
X223520000Y-81915000D03*
X208280000Y-81915000D03*
X223520000Y-79375000D03*
X208280000Y-84455000D03*
X223520000Y-76835000D03*
X208280000Y-86995000D03*
X223520000Y-74295000D03*
X208280000Y-89535000D03*
X223520000Y-71755000D03*
X208280000Y-92075000D03*
X223520000Y-69215000D03*
X208280000Y-94615000D03*
X223520000Y-66675000D03*
X208280000Y-97155000D03*
X223520000Y-64135000D03*
D16*
X191770000Y-121285000D03*
D17*
X176530000Y-128905000D03*
X189230000Y-121285000D03*
X179070000Y-128905000D03*
X186690000Y-121285000D03*
X181610000Y-128905000D03*
X184150000Y-121285000D03*
X184150000Y-128905000D03*
X181610000Y-121285000D03*
X186690000Y-128905000D03*
X179070000Y-121285000D03*
X189230000Y-128905000D03*
X176530000Y-121285000D03*
X191770000Y-128905000D03*
D16*
X132080000Y-121285000D03*
D17*
X114300000Y-128905000D03*
X129540000Y-121285000D03*
X116840000Y-128905000D03*
X127000000Y-121285000D03*
X119380000Y-128905000D03*
X124460000Y-121285000D03*
X121920000Y-128905000D03*
X121920000Y-121285000D03*
X124460000Y-128905000D03*
X119380000Y-121285000D03*
X127000000Y-128905000D03*
X116840000Y-121285000D03*
X129540000Y-128905000D03*
X114300000Y-121285000D03*
X132080000Y-128905000D03*
D16*
X200660000Y-125095000D03*
D17*
X220980000Y-117475000D03*
X203200000Y-125095000D03*
X218440000Y-117475000D03*
X205740000Y-125095000D03*
X215900000Y-117475000D03*
X208280000Y-125095000D03*
X213360000Y-117475000D03*
X210820000Y-125095000D03*
X210820000Y-117475000D03*
X213360000Y-125095000D03*
X208280000Y-117475000D03*
X215900000Y-125095000D03*
X205740000Y-117475000D03*
X218440000Y-125095000D03*
X203200000Y-117475000D03*
X220980000Y-125095000D03*
X200660000Y-117475000D03*
D16*
X200660000Y-113665000D03*
D17*
X220980000Y-106045000D03*
X203200000Y-113665000D03*
X218440000Y-106045000D03*
X205740000Y-113665000D03*
X215900000Y-106045000D03*
X208280000Y-113665000D03*
X213360000Y-106045000D03*
X210820000Y-113665000D03*
X210820000Y-106045000D03*
X213360000Y-113665000D03*
X208280000Y-106045000D03*
X215900000Y-113665000D03*
X205740000Y-106045000D03*
X218440000Y-113665000D03*
X203200000Y-106045000D03*
X220980000Y-113665000D03*
X200660000Y-106045000D03*
D16*
X106680000Y-107315000D03*
D17*
X99060000Y-92075000D03*
X106680000Y-104775000D03*
X99060000Y-94615000D03*
X106680000Y-102235000D03*
X99060000Y-97155000D03*
X106680000Y-99695000D03*
X99060000Y-99695000D03*
X106680000Y-97155000D03*
X99060000Y-102235000D03*
X106680000Y-94615000D03*
X99060000Y-104775000D03*
X106680000Y-92075000D03*
X99060000Y-107315000D03*
D25*
X90164000Y-102489000D03*
X87884000Y-102489000D03*
X85604000Y-102489000D03*
D26*
X87884000Y-108789000D03*
D27*
X91852500Y-59055000D03*
X103727500Y-59055000D03*
D13*
X105410000Y-119888000D03*
D14*
X107950000Y-119888000D03*
X110490000Y-119888000D03*
D13*
X228600000Y-91948000D03*
D14*
X228600000Y-94488000D03*
X228600000Y-97028000D03*
X228600000Y-99568000D03*
X228600000Y-102108000D03*
X228600000Y-104648000D03*
D13*
X109855000Y-102235000D03*
D14*
X109855000Y-99695000D03*
X109855000Y-97155000D03*
X109855000Y-94615000D03*
X109855000Y-92075000D03*
X109855000Y-89535000D03*
X109855000Y-86995000D03*
X109855000Y-84455000D03*
X109855000Y-81915000D03*
X109855000Y-79375000D03*
X109855000Y-76835000D03*
X109855000Y-74295000D03*
X109855000Y-71755000D03*
X109855000Y-69215000D03*
X109855000Y-66675000D03*
D13*
X134620000Y-80645000D03*
D14*
X134620000Y-83185000D03*
X134620000Y-85725000D03*
X134620000Y-88265000D03*
X134620000Y-90805000D03*
D13*
X134620000Y-66929000D03*
D14*
X134620000Y-69469000D03*
X134620000Y-72009000D03*
X134620000Y-74549000D03*
X134620000Y-77089000D03*
D13*
X140462000Y-132461000D03*
D14*
X143002000Y-132461000D03*
X145542000Y-132461000D03*
X148082000Y-132461000D03*
X150622000Y-132461000D03*
X153162000Y-132461000D03*
X155702000Y-132461000D03*
X158242000Y-132461000D03*
D13*
X132207000Y-132461000D03*
D14*
X129667000Y-132461000D03*
X127127000Y-132461000D03*
X124587000Y-132461000D03*
X122047000Y-132461000D03*
X119507000Y-132461000D03*
X116967000Y-132461000D03*
X114427000Y-132461000D03*
D16*
X140335000Y-128524000D03*
D17*
X163195000Y-120904000D03*
X142875000Y-128524000D03*
X160655000Y-120904000D03*
X145415000Y-128524000D03*
X158115000Y-120904000D03*
X147955000Y-128524000D03*
X155575000Y-120904000D03*
X150495000Y-128524000D03*
X153035000Y-120904000D03*
X153035000Y-128524000D03*
X150495000Y-120904000D03*
X155575000Y-128524000D03*
X147955000Y-120904000D03*
X158115000Y-128524000D03*
X145415000Y-120904000D03*
X160655000Y-128524000D03*
X142875000Y-120904000D03*
X163195000Y-128524000D03*
X140335000Y-120904000D03*
D16*
X111125000Y-125476000D03*
D17*
X111125000Y-122936000D03*
D16*
X104775000Y-125476000D03*
D17*
X104775000Y-122936000D03*
D11*
X80010000Y-115570000D03*
M02*
