G04 #@! TF.FileFunction,Paste,Bot*
%FSLAX46Y46*%
G04 Gerber Fmt 4.6, Leading zero omitted, Abs format (unit mm)*
G04 Created by KiCad (PCBNEW 4.0.3-stable) date 10/13/17 00:19:32*
%MOMM*%
%LPD*%
G01*
G04 APERTURE LIST*
%ADD10C,0.100000*%
%ADD11R,0.600000X2.000000*%
G04 APERTURE END LIST*
D10*
D11*
X199244268Y-53562284D03*
X197974268Y-53562284D03*
X196704268Y-53562284D03*
X195434268Y-53562284D03*
X194164268Y-53562284D03*
X192894268Y-53562284D03*
X191624268Y-53562284D03*
X190354268Y-53562284D03*
X189084268Y-53562284D03*
X189084268Y-44162284D03*
X190354268Y-44162284D03*
X191624268Y-44162284D03*
X192894268Y-44162284D03*
X194164268Y-44162284D03*
X195434268Y-44162284D03*
X196704268Y-44162284D03*
X197974268Y-44162284D03*
X199244268Y-44162284D03*
X180194268Y-53562284D03*
X178924268Y-53562284D03*
X177654268Y-53562284D03*
X176384268Y-53562284D03*
X175114268Y-53562284D03*
X173844268Y-53562284D03*
X172574268Y-53562284D03*
X171304268Y-53562284D03*
X170034268Y-53562284D03*
X170034268Y-44162284D03*
X171304268Y-44162284D03*
X172574268Y-44162284D03*
X173844268Y-44162284D03*
X175114268Y-44162284D03*
X176384268Y-44162284D03*
X177654268Y-44162284D03*
X178924268Y-44162284D03*
X180194268Y-44162284D03*
X159874268Y-53942284D03*
X158604268Y-53942284D03*
X157334268Y-53942284D03*
X156064268Y-53942284D03*
X154794268Y-53942284D03*
X153524268Y-53942284D03*
X152254268Y-53942284D03*
X150984268Y-53942284D03*
X149714268Y-53942284D03*
X149714268Y-44542284D03*
X150984268Y-44542284D03*
X152254268Y-44542284D03*
X153524268Y-44542284D03*
X154794268Y-44542284D03*
X156064268Y-44542284D03*
X157334268Y-44542284D03*
X158604268Y-44542284D03*
X159874268Y-44542284D03*
X132044168Y-53595000D03*
X130774168Y-53595000D03*
X129504168Y-53595000D03*
X128234168Y-53595000D03*
X126964168Y-53595000D03*
X125694168Y-53595000D03*
X124424168Y-53595000D03*
X123154168Y-53595000D03*
X121884168Y-53595000D03*
X121884168Y-44195000D03*
X123154168Y-44195000D03*
X124424168Y-44195000D03*
X125694168Y-44195000D03*
X126964168Y-44195000D03*
X128234168Y-44195000D03*
X129504168Y-44195000D03*
X130774168Y-44195000D03*
X132044168Y-44195000D03*
M02*
