G04 #@! TF.FileFunction,Paste,Top*
%FSLAX46Y46*%
G04 Gerber Fmt 4.6, Leading zero omitted, Abs format (unit mm)*
G04 Created by KiCad (PCBNEW 4.0.3-stable) date 10/01/17 01:53:20*
%MOMM*%
%LPD*%
G01*
G04 APERTURE LIST*
%ADD10C,0.100000*%
%ADD11R,1.700000X2.000000*%
%ADD12R,1.250000X1.500000*%
%ADD13R,1.500000X1.250000*%
%ADD14R,3.300000X4.400000*%
%ADD15R,3.900000X6.200000*%
%ADD16R,1.300000X1.500000*%
%ADD17R,1.200000X2.200000*%
%ADD18R,2.750000X3.050000*%
%ADD19R,7.875000X2.000000*%
G04 APERTURE END LIST*
D10*
D11*
X185274268Y-48672284D03*
X185274268Y-52672284D03*
X164954268Y-48672284D03*
X164954268Y-52672284D03*
X135854168Y-48641108D03*
X135854168Y-52641108D03*
D12*
X91948000Y-90150000D03*
X91948000Y-87650000D03*
X91948000Y-75418000D03*
X91948000Y-72918000D03*
D13*
X94214000Y-55372000D03*
X91714000Y-55372000D03*
D12*
X92456000Y-102148000D03*
X92456000Y-104648000D03*
D13*
X85618000Y-99060000D03*
X88118000Y-99060000D03*
D14*
X86198000Y-118000000D03*
D15*
X79048000Y-127000000D03*
X91948000Y-127000000D03*
D11*
X203054268Y-48672284D03*
X203054268Y-52672284D03*
X182734268Y-48672284D03*
X182734268Y-52672284D03*
X200514268Y-48672284D03*
X200514268Y-52672284D03*
X180194268Y-48672284D03*
X180194268Y-52672284D03*
X197974268Y-48672284D03*
X197974268Y-52672284D03*
X177654268Y-48672284D03*
X177654268Y-52672284D03*
X195434268Y-48672284D03*
X195434268Y-52672284D03*
X175114268Y-48672284D03*
X175114268Y-52672284D03*
X192894268Y-48672284D03*
X192894268Y-52672284D03*
X172574268Y-48672284D03*
X172574268Y-52672284D03*
X190354268Y-48672284D03*
X190354268Y-52672284D03*
X170034268Y-48672284D03*
X170034268Y-52672284D03*
X187814268Y-48672284D03*
X187814268Y-52672284D03*
X167494268Y-48672284D03*
X167494268Y-52672284D03*
X162414268Y-48672284D03*
X162414268Y-52672284D03*
X159874268Y-48672284D03*
X159874268Y-52672284D03*
X133314168Y-48641108D03*
X133314168Y-52641108D03*
X157334268Y-48672284D03*
X157334268Y-52672284D03*
X130774168Y-48641108D03*
X130774168Y-52641108D03*
X154794268Y-48672284D03*
X154794268Y-52672284D03*
X128234168Y-48641108D03*
X128234168Y-52641108D03*
X123154168Y-48641108D03*
X123154168Y-52641108D03*
X125694168Y-48641108D03*
X125694168Y-52641108D03*
X120614168Y-48641108D03*
X120614168Y-52641108D03*
X118074168Y-48641108D03*
X118074168Y-52641108D03*
X146014168Y-48641108D03*
X146014168Y-52641108D03*
X143474168Y-48641108D03*
X143474168Y-52641108D03*
X140934168Y-48641108D03*
X140934168Y-52641108D03*
X138394168Y-48641108D03*
X138394168Y-52641108D03*
X79248000Y-110204000D03*
X79248000Y-106204000D03*
D16*
X94615000Y-73185000D03*
X94615000Y-70485000D03*
X95250000Y-90010000D03*
X95250000Y-92710000D03*
X94615000Y-75405000D03*
X94615000Y-78105000D03*
X95250000Y-83660000D03*
X95250000Y-86360000D03*
X203200000Y-57818000D03*
X203200000Y-55118000D03*
X182880000Y-57818000D03*
X182880000Y-55118000D03*
X200660000Y-57818000D03*
X200660000Y-55118000D03*
X180340000Y-57818000D03*
X180340000Y-55118000D03*
X198120000Y-57818000D03*
X198120000Y-55118000D03*
X177800000Y-57818000D03*
X177800000Y-55118000D03*
X195580000Y-57818000D03*
X195580000Y-55118000D03*
X175260000Y-57818000D03*
X175260000Y-55118000D03*
X193040000Y-57818000D03*
X193040000Y-55118000D03*
X172720000Y-57818000D03*
X172720000Y-55118000D03*
X190500000Y-57818000D03*
X190500000Y-55118000D03*
X170180000Y-57818000D03*
X170180000Y-55118000D03*
X187960000Y-57818000D03*
X187960000Y-55118000D03*
X167640000Y-57818000D03*
X167640000Y-55118000D03*
X185420000Y-57818000D03*
X185420000Y-55118000D03*
X165100000Y-57818000D03*
X165100000Y-55118000D03*
X162560000Y-57818000D03*
X162560000Y-55118000D03*
X135890000Y-57818000D03*
X135890000Y-55118000D03*
X159766000Y-57818000D03*
X159766000Y-55118000D03*
X133350000Y-57818000D03*
X133350000Y-55118000D03*
X157226000Y-57818000D03*
X157226000Y-55118000D03*
X130810000Y-57818000D03*
X130810000Y-55118000D03*
X154940000Y-57818000D03*
X154940000Y-55118000D03*
X128270000Y-57818000D03*
X128270000Y-55118000D03*
X123190000Y-57818000D03*
X123190000Y-55118000D03*
X125730000Y-57818000D03*
X125730000Y-55118000D03*
X120650000Y-57818000D03*
X120650000Y-55118000D03*
X118110000Y-57818000D03*
X118110000Y-55118000D03*
X146050000Y-57818000D03*
X146050000Y-55118000D03*
X143510000Y-57818000D03*
X143510000Y-55118000D03*
X140970000Y-57818000D03*
X140970000Y-55118000D03*
X138430000Y-57818000D03*
X138430000Y-55118000D03*
X79248000Y-103792000D03*
X79248000Y-101092000D03*
D17*
X90164000Y-102489000D03*
X87884000Y-102489000D03*
X85604000Y-102489000D03*
D18*
X86359000Y-110464000D03*
X89409000Y-107114000D03*
X89409000Y-110464000D03*
X86359000Y-107114000D03*
D19*
X91852500Y-59055000D03*
X103727500Y-59055000D03*
M02*
