G04 #@! TF.FileFunction,Legend,Bot*
%FSLAX46Y46*%
G04 Gerber Fmt 4.6, Leading zero omitted, Abs format (unit mm)*
G04 Created by KiCad (PCBNEW 4.0.3-stable) date 10/01/17 01:53:20*
%MOMM*%
%LPD*%
G01*
G04 APERTURE LIST*
%ADD10C,0.100000*%
%ADD11C,0.228600*%
%ADD12C,0.150000*%
G04 APERTURE END LIST*
D10*
D11*
X221481952Y-53567390D02*
X221481952Y-51941790D01*
X220553038Y-53567390D01*
X220553038Y-51941790D01*
X219159666Y-53489981D02*
X219314485Y-53567390D01*
X219624123Y-53567390D01*
X219778942Y-53489981D01*
X219856352Y-53335162D01*
X219856352Y-52715886D01*
X219778942Y-52561067D01*
X219624123Y-52483657D01*
X219314485Y-52483657D01*
X219159666Y-52561067D01*
X219082257Y-52715886D01*
X219082257Y-52870705D01*
X219856352Y-53025524D01*
X218153343Y-53567390D02*
X218308162Y-53489981D01*
X218385571Y-53412571D01*
X218462981Y-53257752D01*
X218462981Y-52793295D01*
X218385571Y-52638476D01*
X218308162Y-52561067D01*
X218153343Y-52483657D01*
X217921114Y-52483657D01*
X217766295Y-52561067D01*
X217688886Y-52638476D01*
X217611476Y-52793295D01*
X217611476Y-53257752D01*
X217688886Y-53412571D01*
X217766295Y-53489981D01*
X217921114Y-53567390D01*
X218153343Y-53567390D01*
X215676238Y-52715886D02*
X215134372Y-52715886D01*
X214902143Y-53567390D02*
X215676238Y-53567390D01*
X215676238Y-51941790D01*
X214902143Y-51941790D01*
X213276543Y-53412571D02*
X213353953Y-53489981D01*
X213586181Y-53567390D01*
X213741000Y-53567390D01*
X213973229Y-53489981D01*
X214128048Y-53335162D01*
X214205457Y-53180343D01*
X214282867Y-52870705D01*
X214282867Y-52638476D01*
X214205457Y-52328838D01*
X214128048Y-52174019D01*
X213973229Y-52019200D01*
X213741000Y-51941790D01*
X213586181Y-51941790D01*
X213353953Y-52019200D01*
X213276543Y-52096610D01*
X212579857Y-53567390D02*
X212579857Y-51941790D01*
X211650943Y-53567390D02*
X212347629Y-52638476D01*
X211650943Y-51941790D02*
X212579857Y-52870705D01*
X210954257Y-52948114D02*
X209715705Y-52948114D01*
X208709381Y-52638476D02*
X208864200Y-52561067D01*
X208941609Y-52483657D01*
X209019019Y-52328838D01*
X209019019Y-52251429D01*
X208941609Y-52096610D01*
X208864200Y-52019200D01*
X208709381Y-51941790D01*
X208399743Y-51941790D01*
X208244924Y-52019200D01*
X208167514Y-52096610D01*
X208090105Y-52251429D01*
X208090105Y-52328838D01*
X208167514Y-52483657D01*
X208244924Y-52561067D01*
X208399743Y-52638476D01*
X208709381Y-52638476D01*
X208864200Y-52715886D01*
X208941609Y-52793295D01*
X209019019Y-52948114D01*
X209019019Y-53257752D01*
X208941609Y-53412571D01*
X208864200Y-53489981D01*
X208709381Y-53567390D01*
X208399743Y-53567390D01*
X208244924Y-53489981D01*
X208167514Y-53412571D01*
X208090105Y-53257752D01*
X208090105Y-52948114D01*
X208167514Y-52793295D01*
X208244924Y-52715886D01*
X208399743Y-52638476D01*
X207161191Y-52638476D02*
X207316010Y-52561067D01*
X207393419Y-52483657D01*
X207470829Y-52328838D01*
X207470829Y-52251429D01*
X207393419Y-52096610D01*
X207316010Y-52019200D01*
X207161191Y-51941790D01*
X206851553Y-51941790D01*
X206696734Y-52019200D01*
X206619324Y-52096610D01*
X206541915Y-52251429D01*
X206541915Y-52328838D01*
X206619324Y-52483657D01*
X206696734Y-52561067D01*
X206851553Y-52638476D01*
X207161191Y-52638476D01*
X207316010Y-52715886D01*
X207393419Y-52793295D01*
X207470829Y-52948114D01*
X207470829Y-53257752D01*
X207393419Y-53412571D01*
X207316010Y-53489981D01*
X207161191Y-53567390D01*
X206851553Y-53567390D01*
X206696734Y-53489981D01*
X206619324Y-53412571D01*
X206541915Y-53257752D01*
X206541915Y-52948114D01*
X206619324Y-52793295D01*
X206696734Y-52715886D01*
X206851553Y-52638476D01*
X220940086Y-55382886D02*
X220707857Y-55460295D01*
X220630448Y-55537705D01*
X220553038Y-55692524D01*
X220553038Y-55924752D01*
X220630448Y-56079571D01*
X220707857Y-56156981D01*
X220862676Y-56234390D01*
X221481952Y-56234390D01*
X221481952Y-54608790D01*
X220940086Y-54608790D01*
X220785267Y-54686200D01*
X220707857Y-54763610D01*
X220630448Y-54918429D01*
X220630448Y-55073248D01*
X220707857Y-55228067D01*
X220785267Y-55305476D01*
X220940086Y-55382886D01*
X221481952Y-55382886D01*
X219856352Y-56234390D02*
X219856352Y-55150657D01*
X219856352Y-55460295D02*
X219778943Y-55305476D01*
X219701533Y-55228067D01*
X219546714Y-55150657D01*
X219391895Y-55150657D01*
X219004847Y-55150657D02*
X218617800Y-56234390D01*
X218230752Y-55150657D02*
X218617800Y-56234390D01*
X218772619Y-56621438D01*
X218850028Y-56698848D01*
X219004847Y-56776257D01*
X216914791Y-56234390D02*
X216914791Y-55382886D01*
X216992200Y-55228067D01*
X217147019Y-55150657D01*
X217456657Y-55150657D01*
X217611476Y-55228067D01*
X216914791Y-56156981D02*
X217069610Y-56234390D01*
X217456657Y-56234390D01*
X217611476Y-56156981D01*
X217688886Y-56002162D01*
X217688886Y-55847343D01*
X217611476Y-55692524D01*
X217456657Y-55615114D01*
X217069610Y-55615114D01*
X216914791Y-55537705D01*
X216140695Y-55150657D02*
X216140695Y-56234390D01*
X216140695Y-55305476D02*
X216063286Y-55228067D01*
X215908467Y-55150657D01*
X215676238Y-55150657D01*
X215521419Y-55228067D01*
X215444010Y-55382886D01*
X215444010Y-56234390D01*
X213121724Y-54608790D02*
X212812086Y-54608790D01*
X212657267Y-54686200D01*
X212502448Y-54841019D01*
X212425039Y-55150657D01*
X212425039Y-55692524D01*
X212502448Y-56002162D01*
X212657267Y-56156981D01*
X212812086Y-56234390D01*
X213121724Y-56234390D01*
X213276543Y-56156981D01*
X213431362Y-56002162D01*
X213508772Y-55692524D01*
X213508772Y-55150657D01*
X213431362Y-54841019D01*
X213276543Y-54686200D01*
X213121724Y-54608790D01*
X211728352Y-56234390D02*
X211728352Y-55150657D01*
X211728352Y-55460295D02*
X211650943Y-55305476D01*
X211573533Y-55228067D01*
X211418714Y-55150657D01*
X211263895Y-55150657D01*
X210025343Y-56234390D02*
X210025343Y-55382886D01*
X210102752Y-55228067D01*
X210257571Y-55150657D01*
X210567209Y-55150657D01*
X210722028Y-55228067D01*
X210025343Y-56156981D02*
X210180162Y-56234390D01*
X210567209Y-56234390D01*
X210722028Y-56156981D01*
X210799438Y-56002162D01*
X210799438Y-55847343D01*
X210722028Y-55692524D01*
X210567209Y-55615114D01*
X210180162Y-55615114D01*
X210025343Y-55537705D01*
X209251247Y-56234390D02*
X209251247Y-54608790D01*
X209251247Y-55228067D02*
X209096428Y-55150657D01*
X208786790Y-55150657D01*
X208631971Y-55228067D01*
X208554562Y-55305476D01*
X208477152Y-55460295D01*
X208477152Y-55924752D01*
X208554562Y-56079571D01*
X208631971Y-56156981D01*
X208786790Y-56234390D01*
X209096428Y-56234390D01*
X209251247Y-56156981D01*
X207083781Y-55150657D02*
X207083781Y-56234390D01*
X207780466Y-55150657D02*
X207780466Y-56002162D01*
X207703057Y-56156981D01*
X207548238Y-56234390D01*
X207316009Y-56234390D01*
X207161190Y-56156981D01*
X207083781Y-56079571D01*
X206541914Y-55150657D02*
X205922638Y-55150657D01*
X206309685Y-54608790D02*
X206309685Y-56002162D01*
X206232276Y-56156981D01*
X206077457Y-56234390D01*
X205922638Y-56234390D01*
X205613000Y-55150657D02*
X204993724Y-55150657D01*
X205380771Y-54608790D02*
X205380771Y-56002162D01*
X205303362Y-56156981D01*
X205148543Y-56234390D01*
X204993724Y-56234390D01*
X221559362Y-57430610D02*
X221481952Y-57353200D01*
X221327133Y-57275790D01*
X220940086Y-57275790D01*
X220785267Y-57353200D01*
X220707857Y-57430610D01*
X220630448Y-57585429D01*
X220630448Y-57740248D01*
X220707857Y-57972476D01*
X221636771Y-58901390D01*
X220630448Y-58901390D01*
X219624124Y-57275790D02*
X219469305Y-57275790D01*
X219314486Y-57353200D01*
X219237077Y-57430610D01*
X219159667Y-57585429D01*
X219082258Y-57895067D01*
X219082258Y-58282114D01*
X219159667Y-58591752D01*
X219237077Y-58746571D01*
X219314486Y-58823981D01*
X219469305Y-58901390D01*
X219624124Y-58901390D01*
X219778943Y-58823981D01*
X219856353Y-58746571D01*
X219933762Y-58591752D01*
X220011172Y-58282114D01*
X220011172Y-57895067D01*
X219933762Y-57585429D01*
X219856353Y-57430610D01*
X219778943Y-57353200D01*
X219624124Y-57275790D01*
X217534068Y-58901390D02*
X218462982Y-58901390D01*
X217998525Y-58901390D02*
X217998525Y-57275790D01*
X218153344Y-57508019D01*
X218308163Y-57662838D01*
X218462982Y-57740248D01*
X216992201Y-57275790D02*
X215908468Y-57275790D01*
X216605154Y-58901390D01*
D12*
X200114268Y-52737284D02*
X199864268Y-52737284D01*
X200114268Y-44987284D02*
X199769268Y-44987284D01*
X188214268Y-44987284D02*
X188559268Y-44987284D01*
X188214268Y-52737284D02*
X188559268Y-52737284D01*
X200114268Y-52737284D02*
X200114268Y-44987284D01*
X188214268Y-52737284D02*
X188214268Y-44987284D01*
X199864268Y-52737284D02*
X199864268Y-54562284D01*
X181064268Y-52737284D02*
X180814268Y-52737284D01*
X181064268Y-44987284D02*
X180719268Y-44987284D01*
X169164268Y-44987284D02*
X169509268Y-44987284D01*
X169164268Y-52737284D02*
X169509268Y-52737284D01*
X181064268Y-52737284D02*
X181064268Y-44987284D01*
X169164268Y-52737284D02*
X169164268Y-44987284D01*
X180814268Y-52737284D02*
X180814268Y-54562284D01*
X160744268Y-53117284D02*
X160494268Y-53117284D01*
X160744268Y-45367284D02*
X160399268Y-45367284D01*
X148844268Y-45367284D02*
X149189268Y-45367284D01*
X148844268Y-53117284D02*
X149189268Y-53117284D01*
X160744268Y-53117284D02*
X160744268Y-45367284D01*
X148844268Y-53117284D02*
X148844268Y-45367284D01*
X160494268Y-53117284D02*
X160494268Y-54942284D01*
X132914168Y-52770000D02*
X132664168Y-52770000D01*
X132914168Y-45020000D02*
X132569168Y-45020000D01*
X121014168Y-45020000D02*
X121359168Y-45020000D01*
X121014168Y-52770000D02*
X121359168Y-52770000D01*
X132914168Y-52770000D02*
X132914168Y-45020000D01*
X121014168Y-52770000D02*
X121014168Y-45020000D01*
X132664168Y-52770000D02*
X132664168Y-54595000D01*
X200491649Y-47624189D02*
X201301173Y-47624189D01*
X201396411Y-47671808D01*
X201444030Y-47719427D01*
X201491649Y-47814665D01*
X201491649Y-48005142D01*
X201444030Y-48100380D01*
X201396411Y-48147999D01*
X201301173Y-48195618D01*
X200491649Y-48195618D01*
X201491649Y-49195618D02*
X201491649Y-48624189D01*
X201491649Y-48909903D02*
X200491649Y-48909903D01*
X200634506Y-48814665D01*
X200729744Y-48719427D01*
X200777363Y-48624189D01*
X201491649Y-50147999D02*
X201491649Y-49576570D01*
X201491649Y-49862284D02*
X200491649Y-49862284D01*
X200634506Y-49767046D01*
X200729744Y-49671808D01*
X200777363Y-49576570D01*
X181441649Y-47624189D02*
X182251173Y-47624189D01*
X182346411Y-47671808D01*
X182394030Y-47719427D01*
X182441649Y-47814665D01*
X182441649Y-48005142D01*
X182394030Y-48100380D01*
X182346411Y-48147999D01*
X182251173Y-48195618D01*
X181441649Y-48195618D01*
X182441649Y-49195618D02*
X182441649Y-48624189D01*
X182441649Y-48909903D02*
X181441649Y-48909903D01*
X181584506Y-48814665D01*
X181679744Y-48719427D01*
X181727363Y-48624189D01*
X181441649Y-49528951D02*
X181441649Y-50147999D01*
X181822601Y-49814665D01*
X181822601Y-49957523D01*
X181870220Y-50052761D01*
X181917839Y-50100380D01*
X182013078Y-50147999D01*
X182251173Y-50147999D01*
X182346411Y-50100380D01*
X182394030Y-50052761D01*
X182441649Y-49957523D01*
X182441649Y-49671808D01*
X182394030Y-49576570D01*
X182346411Y-49528951D01*
X161121649Y-48004189D02*
X161931173Y-48004189D01*
X162026411Y-48051808D01*
X162074030Y-48099427D01*
X162121649Y-48194665D01*
X162121649Y-48385142D01*
X162074030Y-48480380D01*
X162026411Y-48527999D01*
X161931173Y-48575618D01*
X161121649Y-48575618D01*
X162121649Y-49575618D02*
X162121649Y-49004189D01*
X162121649Y-49289903D02*
X161121649Y-49289903D01*
X161264506Y-49194665D01*
X161359744Y-49099427D01*
X161407363Y-49004189D01*
X161454982Y-50432761D02*
X162121649Y-50432761D01*
X161074030Y-50194665D02*
X161788316Y-49956570D01*
X161788316Y-50575618D01*
X133291549Y-47656905D02*
X134101073Y-47656905D01*
X134196311Y-47704524D01*
X134243930Y-47752143D01*
X134291549Y-47847381D01*
X134291549Y-48037858D01*
X134243930Y-48133096D01*
X134196311Y-48180715D01*
X134101073Y-48228334D01*
X133291549Y-48228334D01*
X134291549Y-49228334D02*
X134291549Y-48656905D01*
X134291549Y-48942619D02*
X133291549Y-48942619D01*
X133434406Y-48847381D01*
X133529644Y-48752143D01*
X133577263Y-48656905D01*
X133291549Y-50133096D02*
X133291549Y-49656905D01*
X133767739Y-49609286D01*
X133720120Y-49656905D01*
X133672501Y-49752143D01*
X133672501Y-49990239D01*
X133720120Y-50085477D01*
X133767739Y-50133096D01*
X133862978Y-50180715D01*
X134101073Y-50180715D01*
X134196311Y-50133096D01*
X134243930Y-50085477D01*
X134291549Y-49990239D01*
X134291549Y-49752143D01*
X134243930Y-49656905D01*
X134196311Y-49609286D01*
M02*
