<?xml version="1.0" standalone="no"?>
 <!DOCTYPE svg PUBLIC "-//W3C//DTD SVG 1.1//EN" 
 "http://www.w3.org/Graphics/SVG/1.1/DTD/svg11.dtd"> 
<svg xmlns="http://www.w3.org/2000/svg" version="1.1" 
    width="29.7002cm" height="21.0007cm" viewBox="0 0 116930 82680 ">
<title>SVG Picture created as 8088-F.Paste.svg date 2017/10/01 01:54:07 </title>
  <desc>Picture generated by PCBNEW </desc>
<g style="fill:#000000; fill-opacity:1;stroke:#000000; stroke-opacity:1;
stroke-linecap:round; stroke-linejoin:round; "
 transform="translate(0 0) scale(1 1)">
</g>
<g style="fill:#000000; fill-opacity:0.0; 
stroke:#000000; stroke-width:-0.000393701; stroke-opacity:1; 
stroke-linecap:round; stroke-linejoin:round;">
</g>
<g style="fill:#000000; fill-opacity:0.0; 
stroke:#000000; stroke-width:39.3701; stroke-opacity:1; 
stroke-linecap:round; stroke-linejoin:round;">
</g>
<g style="fill:#000000; fill-opacity:0.0; 
stroke:#000000; stroke-width:59.0551; stroke-opacity:1; 
stroke-linecap:round; stroke-linejoin:round;">
<rect x="69685.9" y="65357.2" width="42519.7" height="12598.4" rx="0" />
</g>
<g style="fill:#000000; fill-opacity:0.0; 
stroke:#000000; stroke-width:39.3701; stroke-opacity:1; 
stroke-linecap:round; stroke-linejoin:round;">
</g>
<g style="fill:#000000; fill-opacity:0.0; 
stroke:#000000; stroke-width:59.0551; stroke-opacity:1; 
stroke-linecap:round; stroke-linejoin:round;">
<rect x="3937.01" y="3937.01" width="109056" height="74806" rx="0" />
</g>
<g style="fill:#000000; fill-opacity:0.0; 
stroke:#000000; stroke-width:39.3701; stroke-opacity:1; 
stroke-linecap:round; stroke-linejoin:round;">
</g>
<g style="fill:#000000; fill-opacity:0.0; 
stroke:#000000; stroke-width:59.0551; stroke-opacity:1; 
stroke-linecap:round; stroke-linejoin:round;">
<rect x="4724.41" y="4724.41" width="107481" height="73231.2" rx="0" />
</g>
<g style="fill:#000000; fill-opacity:0.0; 
stroke:#000000; stroke-width:39.3701; stroke-opacity:1; 
stroke-linecap:round; stroke-linejoin:round;">
</g>
<g style="fill:#000000; fill-opacity:0.0; 
stroke:#000000; stroke-width:59.0551; stroke-opacity:1; 
stroke-linecap:round; stroke-linejoin:round;">
<path d="M23622 4724
L23622 3937
" />
</g>
<g style="fill:#000000; fill-opacity:0.0; 
stroke:#000000; stroke-width:39.3701; stroke-opacity:1; 
stroke-linecap:round; stroke-linejoin:round;">
</g>
<g style="fill:#000000; fill-opacity:0.0; 
stroke:#000000; stroke-width:59.0551; stroke-opacity:1; 
stroke-linecap:round; stroke-linejoin:round;">
<path d="M43307 4724
L43307 3937
" />
</g>
<g style="fill:#000000; fill-opacity:0.0; 
stroke:#000000; stroke-width:39.3701; stroke-opacity:1; 
stroke-linecap:round; stroke-linejoin:round;">
</g>
<g style="fill:#000000; fill-opacity:0.0; 
stroke:#000000; stroke-width:59.0551; stroke-opacity:1; 
stroke-linecap:round; stroke-linejoin:round;">
<path d="M62992 4724
L62992 3937
" />
</g>
<g style="fill:#000000; fill-opacity:0.0; 
stroke:#000000; stroke-width:39.3701; stroke-opacity:1; 
stroke-linecap:round; stroke-linejoin:round;">
</g>
<g style="fill:#000000; fill-opacity:0.0; 
stroke:#000000; stroke-width:59.0551; stroke-opacity:1; 
stroke-linecap:round; stroke-linejoin:round;">
<path d="M82677 4724
L82677 3937
" />
</g>
<g style="fill:#000000; fill-opacity:0.0; 
stroke:#000000; stroke-width:39.3701; stroke-opacity:1; 
stroke-linecap:round; stroke-linejoin:round;">
</g>
<g style="fill:#000000; fill-opacity:0.0; 
stroke:#000000; stroke-width:59.0551; stroke-opacity:1; 
stroke-linecap:round; stroke-linejoin:round;">
<path d="M102362 4724
L102362 3937
" />
</g>
<g style="fill:#000000; fill-opacity:0.0; 
stroke:#000000; stroke-width:39.3701; stroke-opacity:1; 
stroke-linecap:round; stroke-linejoin:round;">
</g>
<g style="fill:#000000; fill-opacity:0.0; 
stroke:#000000; stroke-width:59.0551; stroke-opacity:1; 
stroke-linecap:round; stroke-linejoin:round;">
<path d="M14169 4562
L13877 4562
" />
<path d="M14023 4562
L14023 4050
L13974 4123
L13925 4172
L13877 4196
" />
</g>
<g style="fill:#000000; fill-opacity:0.0; 
stroke:#000000; stroke-width:39.3701; stroke-opacity:1; 
stroke-linecap:round; stroke-linejoin:round;">
</g>
<g style="fill:#000000; fill-opacity:0.0; 
stroke:#000000; stroke-width:59.0551; stroke-opacity:1; 
stroke-linecap:round; stroke-linejoin:round;">
<path d="M33562 4099
L33586 4074
L33635 4050
L33757 4050
L33805 4074
L33830 4099
L33854 4147
L33854 4196
L33830 4269
L33537 4562
L33854 4562
" />
</g>
<g style="fill:#000000; fill-opacity:0.0; 
stroke:#000000; stroke-width:39.3701; stroke-opacity:1; 
stroke-linecap:round; stroke-linejoin:round;">
</g>
<g style="fill:#000000; fill-opacity:0.0; 
stroke:#000000; stroke-width:59.0551; stroke-opacity:1; 
stroke-linecap:round; stroke-linejoin:round;">
<path d="M53222 4050
L53539 4050
L53368 4245
L53442 4245
L53490 4269
L53515 4294
L53539 4342
L53539 4464
L53515 4513
L53490 4537
L53442 4562
L53295 4562
L53247 4537
L53222 4513
" />
</g>
<g style="fill:#000000; fill-opacity:0.0; 
stroke:#000000; stroke-width:39.3701; stroke-opacity:1; 
stroke-linecap:round; stroke-linejoin:round;">
</g>
<g style="fill:#000000; fill-opacity:0.0; 
stroke:#000000; stroke-width:59.0551; stroke-opacity:1; 
stroke-linecap:round; stroke-linejoin:round;">
<path d="M73175 4221
L73175 4562
" />
<path d="M73053 4026
L72932 4391
L73248 4391
" />
</g>
<g style="fill:#000000; fill-opacity:0.0; 
stroke:#000000; stroke-width:39.3701; stroke-opacity:1; 
stroke-linecap:round; stroke-linejoin:round;">
</g>
<g style="fill:#000000; fill-opacity:0.0; 
stroke:#000000; stroke-width:59.0551; stroke-opacity:1; 
stroke-linecap:round; stroke-linejoin:round;">
<path d="M92885 4050
L92641 4050
L92617 4294
L92641 4269
L92690 4245
L92812 4245
L92860 4269
L92885 4294
L92909 4342
L92909 4464
L92885 4513
L92860 4537
L92812 4562
L92690 4562
L92641 4537
L92617 4513
" />
</g>
<g style="fill:#000000; fill-opacity:0.0; 
stroke:#000000; stroke-width:39.3701; stroke-opacity:1; 
stroke-linecap:round; stroke-linejoin:round;">
</g>
<g style="fill:#000000; fill-opacity:0.0; 
stroke:#000000; stroke-width:59.0551; stroke-opacity:1; 
stroke-linecap:round; stroke-linejoin:round;">
<path d="M112545 4050
L112448 4050
L112399 4074
L112375 4099
L112326 4172
L112302 4269
L112302 4464
L112326 4513
L112350 4537
L112399 4562
L112497 4562
L112545 4537
L112570 4513
L112594 4464
L112594 4342
L112570 4294
L112545 4269
L112497 4245
L112399 4245
L112350 4269
L112326 4294
L112302 4342
" />
</g>
<g style="fill:#000000; fill-opacity:0.0; 
stroke:#000000; stroke-width:39.3701; stroke-opacity:1; 
stroke-linecap:round; stroke-linejoin:round;">
</g>
<g style="fill:#000000; fill-opacity:0.0; 
stroke:#000000; stroke-width:59.0551; stroke-opacity:1; 
stroke-linecap:round; stroke-linejoin:round;">
<path d="M23622 77955
L23622 78742
" />
</g>
<g style="fill:#000000; fill-opacity:0.0; 
stroke:#000000; stroke-width:39.3701; stroke-opacity:1; 
stroke-linecap:round; stroke-linejoin:round;">
</g>
<g style="fill:#000000; fill-opacity:0.0; 
stroke:#000000; stroke-width:59.0551; stroke-opacity:1; 
stroke-linecap:round; stroke-linejoin:round;">
<path d="M43307 77955
L43307 78742
" />
</g>
<g style="fill:#000000; fill-opacity:0.0; 
stroke:#000000; stroke-width:39.3701; stroke-opacity:1; 
stroke-linecap:round; stroke-linejoin:round;">
</g>
<g style="fill:#000000; fill-opacity:0.0; 
stroke:#000000; stroke-width:59.0551; stroke-opacity:1; 
stroke-linecap:round; stroke-linejoin:round;">
<path d="M62992 77955
L62992 78742
" />
</g>
<g style="fill:#000000; fill-opacity:0.0; 
stroke:#000000; stroke-width:39.3701; stroke-opacity:1; 
stroke-linecap:round; stroke-linejoin:round;">
</g>
<g style="fill:#000000; fill-opacity:0.0; 
stroke:#000000; stroke-width:59.0551; stroke-opacity:1; 
stroke-linecap:round; stroke-linejoin:round;">
<path d="M82677 77955
L82677 78742
" />
</g>
<g style="fill:#000000; fill-opacity:0.0; 
stroke:#000000; stroke-width:39.3701; stroke-opacity:1; 
stroke-linecap:round; stroke-linejoin:round;">
</g>
<g style="fill:#000000; fill-opacity:0.0; 
stroke:#000000; stroke-width:59.0551; stroke-opacity:1; 
stroke-linecap:round; stroke-linejoin:round;">
<path d="M102362 77955
L102362 78742
" />
</g>
<g style="fill:#000000; fill-opacity:0.0; 
stroke:#000000; stroke-width:39.3701; stroke-opacity:1; 
stroke-linecap:round; stroke-linejoin:round;">
</g>
<g style="fill:#000000; fill-opacity:0.0; 
stroke:#000000; stroke-width:59.0551; stroke-opacity:1; 
stroke-linecap:round; stroke-linejoin:round;">
<path d="M14169 78580
L13877 78580
" />
<path d="M14023 78580
L14023 78069
L13974 78142
L13925 78190
L13877 78215
" />
</g>
<g style="fill:#000000; fill-opacity:0.0; 
stroke:#000000; stroke-width:39.3701; stroke-opacity:1; 
stroke-linecap:round; stroke-linejoin:round;">
</g>
<g style="fill:#000000; fill-opacity:0.0; 
stroke:#000000; stroke-width:59.0551; stroke-opacity:1; 
stroke-linecap:round; stroke-linejoin:round;">
<path d="M33562 78117
L33586 78093
L33635 78069
L33757 78069
L33805 78093
L33830 78117
L33854 78166
L33854 78215
L33830 78288
L33537 78580
L33854 78580
" />
</g>
<g style="fill:#000000; fill-opacity:0.0; 
stroke:#000000; stroke-width:39.3701; stroke-opacity:1; 
stroke-linecap:round; stroke-linejoin:round;">
</g>
<g style="fill:#000000; fill-opacity:0.0; 
stroke:#000000; stroke-width:59.0551; stroke-opacity:1; 
stroke-linecap:round; stroke-linejoin:round;">
<path d="M53222 78069
L53539 78069
L53368 78263
L53442 78263
L53490 78288
L53515 78312
L53539 78361
L53539 78483
L53515 78532
L53490 78556
L53442 78580
L53295 78580
L53247 78556
L53222 78532
" />
</g>
<g style="fill:#000000; fill-opacity:0.0; 
stroke:#000000; stroke-width:39.3701; stroke-opacity:1; 
stroke-linecap:round; stroke-linejoin:round;">
</g>
<g style="fill:#000000; fill-opacity:0.0; 
stroke:#000000; stroke-width:59.0551; stroke-opacity:1; 
stroke-linecap:round; stroke-linejoin:round;">
<path d="M73175 78239
L73175 78580
" />
<path d="M73053 78044
L72932 78410
L73248 78410
" />
</g>
<g style="fill:#000000; fill-opacity:0.0; 
stroke:#000000; stroke-width:39.3701; stroke-opacity:1; 
stroke-linecap:round; stroke-linejoin:round;">
</g>
<g style="fill:#000000; fill-opacity:0.0; 
stroke:#000000; stroke-width:59.0551; stroke-opacity:1; 
stroke-linecap:round; stroke-linejoin:round;">
<path d="M92885 78069
L92641 78069
L92617 78312
L92641 78288
L92690 78263
L92812 78263
L92860 78288
L92885 78312
L92909 78361
L92909 78483
L92885 78532
L92860 78556
L92812 78580
L92690 78580
L92641 78556
L92617 78532
" />
</g>
<g style="fill:#000000; fill-opacity:0.0; 
stroke:#000000; stroke-width:39.3701; stroke-opacity:1; 
stroke-linecap:round; stroke-linejoin:round;">
</g>
<g style="fill:#000000; fill-opacity:0.0; 
stroke:#000000; stroke-width:59.0551; stroke-opacity:1; 
stroke-linecap:round; stroke-linejoin:round;">
<path d="M112545 78069
L112448 78069
L112399 78093
L112375 78117
L112326 78190
L112302 78288
L112302 78483
L112326 78532
L112350 78556
L112399 78580
L112497 78580
L112545 78556
L112570 78532
L112594 78483
L112594 78361
L112570 78312
L112545 78288
L112497 78263
L112399 78263
L112350 78288
L112326 78312
L112302 78361
" />
</g>
<g style="fill:#000000; fill-opacity:0.0; 
stroke:#000000; stroke-width:39.3701; stroke-opacity:1; 
stroke-linecap:round; stroke-linejoin:round;">
</g>
<g style="fill:#000000; fill-opacity:0.0; 
stroke:#000000; stroke-width:59.0551; stroke-opacity:1; 
stroke-linecap:round; stroke-linejoin:round;">
<path d="M3937 23622
L4724 23622
" />
</g>
<g style="fill:#000000; fill-opacity:0.0; 
stroke:#000000; stroke-width:39.3701; stroke-opacity:1; 
stroke-linecap:round; stroke-linejoin:round;">
</g>
<g style="fill:#000000; fill-opacity:0.0; 
stroke:#000000; stroke-width:59.0551; stroke-opacity:1; 
stroke-linecap:round; stroke-linejoin:round;">
<path d="M3937 43307
L4724 43307
" />
</g>
<g style="fill:#000000; fill-opacity:0.0; 
stroke:#000000; stroke-width:39.3701; stroke-opacity:1; 
stroke-linecap:round; stroke-linejoin:round;">
</g>
<g style="fill:#000000; fill-opacity:0.0; 
stroke:#000000; stroke-width:59.0551; stroke-opacity:1; 
stroke-linecap:round; stroke-linejoin:round;">
<path d="M3937 62992
L4724 62992
" />
</g>
<g style="fill:#000000; fill-opacity:0.0; 
stroke:#000000; stroke-width:39.3701; stroke-opacity:1; 
stroke-linecap:round; stroke-linejoin:round;">
</g>
<g style="fill:#000000; fill-opacity:0.0; 
stroke:#000000; stroke-width:59.0551; stroke-opacity:1; 
stroke-linecap:round; stroke-linejoin:round;">
<path d="M4208 13864
L4452 13864
" />
<path d="M4160 14011
L4330 13499
L4501 14011
" />
</g>
<g style="fill:#000000; fill-opacity:0.0; 
stroke:#000000; stroke-width:39.3701; stroke-opacity:1; 
stroke-linecap:round; stroke-linejoin:round;">
</g>
<g style="fill:#000000; fill-opacity:0.0; 
stroke:#000000; stroke-width:59.0551; stroke-opacity:1; 
stroke-linecap:round; stroke-linejoin:round;">
<path d="M4367 33428
L4440 33452
L4464 33476
L4489 33525
L4489 33598
L4464 33647
L4440 33671
L4391 33696
L4196 33696
L4196 33184
L4367 33184
L4416 33208
L4440 33233
L4464 33281
L4464 33330
L4440 33379
L4416 33403
L4367 33428
L4196 33428
" />
</g>
<g style="fill:#000000; fill-opacity:0.0; 
stroke:#000000; stroke-width:39.3701; stroke-opacity:1; 
stroke-linecap:round; stroke-linejoin:round;">
</g>
<g style="fill:#000000; fill-opacity:0.0; 
stroke:#000000; stroke-width:59.0551; stroke-opacity:1; 
stroke-linecap:round; stroke-linejoin:round;">
<path d="M4489 53332
L4464 53356
L4391 53381
L4342 53381
L4269 53356
L4221 53308
L4196 53259
L4172 53161
L4172 53088
L4196 52991
L4221 52942
L4269 52893
L4342 52869
L4391 52869
L4464 52893
L4489 52918
" />
</g>
<g style="fill:#000000; fill-opacity:0.0; 
stroke:#000000; stroke-width:39.3701; stroke-opacity:1; 
stroke-linecap:round; stroke-linejoin:round;">
</g>
<g style="fill:#000000; fill-opacity:0.0; 
stroke:#000000; stroke-width:59.0551; stroke-opacity:1; 
stroke-linecap:round; stroke-linejoin:round;">
<path d="M4196 73066
L4196 72554
L4318 72554
L4391 72578
L4440 72627
L4464 72676
L4489 72773
L4489 72846
L4464 72944
L4440 72993
L4391 73041
L4318 73066
L4196 73066
" />
</g>
<g style="fill:#000000; fill-opacity:0.0; 
stroke:#000000; stroke-width:39.3701; stroke-opacity:1; 
stroke-linecap:round; stroke-linejoin:round;">
</g>
<g style="fill:#000000; fill-opacity:0.0; 
stroke:#000000; stroke-width:59.0551; stroke-opacity:1; 
stroke-linecap:round; stroke-linejoin:round;">
<path d="M112992 23622
L112205 23622
" />
</g>
<g style="fill:#000000; fill-opacity:0.0; 
stroke:#000000; stroke-width:39.3701; stroke-opacity:1; 
stroke-linecap:round; stroke-linejoin:round;">
</g>
<g style="fill:#000000; fill-opacity:0.0; 
stroke:#000000; stroke-width:59.0551; stroke-opacity:1; 
stroke-linecap:round; stroke-linejoin:round;">
<path d="M112992 43307
L112205 43307
" />
</g>
<g style="fill:#000000; fill-opacity:0.0; 
stroke:#000000; stroke-width:39.3701; stroke-opacity:1; 
stroke-linecap:round; stroke-linejoin:round;">
</g>
<g style="fill:#000000; fill-opacity:0.0; 
stroke:#000000; stroke-width:59.0551; stroke-opacity:1; 
stroke-linecap:round; stroke-linejoin:round;">
<path d="M112992 62992
L112205 62992
" />
</g>
<g style="fill:#000000; fill-opacity:0.0; 
stroke:#000000; stroke-width:39.3701; stroke-opacity:1; 
stroke-linecap:round; stroke-linejoin:round;">
</g>
<g style="fill:#000000; fill-opacity:0.0; 
stroke:#000000; stroke-width:59.0551; stroke-opacity:1; 
stroke-linecap:round; stroke-linejoin:round;">
<path d="M112477 13864
L112721 13864
" />
<path d="M112428 14011
L112599 13499
L112769 14011
" />
</g>
<g style="fill:#000000; fill-opacity:0.0; 
stroke:#000000; stroke-width:39.3701; stroke-opacity:1; 
stroke-linecap:round; stroke-linejoin:round;">
</g>
<g style="fill:#000000; fill-opacity:0.0; 
stroke:#000000; stroke-width:59.0551; stroke-opacity:1; 
stroke-linecap:round; stroke-linejoin:round;">
<path d="M112635 33428
L112708 33452
L112733 33476
L112757 33525
L112757 33598
L112733 33647
L112708 33671
L112660 33696
L112465 33696
L112465 33184
L112635 33184
L112684 33208
L112708 33233
L112733 33281
L112733 33330
L112708 33379
L112684 33403
L112635 33428
L112465 33428
" />
</g>
<g style="fill:#000000; fill-opacity:0.0; 
stroke:#000000; stroke-width:39.3701; stroke-opacity:1; 
stroke-linecap:round; stroke-linejoin:round;">
</g>
<g style="fill:#000000; fill-opacity:0.0; 
stroke:#000000; stroke-width:59.0551; stroke-opacity:1; 
stroke-linecap:round; stroke-linejoin:round;">
<path d="M112757 53332
L112733 53356
L112660 53381
L112611 53381
L112538 53356
L112489 53308
L112465 53259
L112440 53161
L112440 53088
L112465 52991
L112489 52942
L112538 52893
L112611 52869
L112660 52869
L112733 52893
L112757 52918
" />
</g>
<g style="fill:#000000; fill-opacity:0.0; 
stroke:#000000; stroke-width:39.3701; stroke-opacity:1; 
stroke-linecap:round; stroke-linejoin:round;">
</g>
<g style="fill:#000000; fill-opacity:0.0; 
stroke:#000000; stroke-width:59.0551; stroke-opacity:1; 
stroke-linecap:round; stroke-linejoin:round;">
<path d="M112465 73066
L112465 72554
L112587 72554
L112660 72578
L112708 72627
L112733 72676
L112757 72773
L112757 72846
L112733 72944
L112708 72993
L112660 73041
L112587 73066
L112465 73066
" />
</g>
<g style="fill:#000000; fill-opacity:0.0; 
stroke:#000000; stroke-width:39.3701; stroke-opacity:1; 
stroke-linecap:round; stroke-linejoin:round;">
</g>
<g style="fill:#000000; fill-opacity:0.0; 
stroke:#000000; stroke-width:59.0551; stroke-opacity:1; 
stroke-linecap:round; stroke-linejoin:round;">
<path d="M78881 76293
L78881 75703
L79022 75703
L79106 75731
L79162 75787
L79190 75843
L79219 75956
L79219 76040
L79190 76153
L79162 76209
L79106 76265
L79022 76293
L78881 76293
" />
<path d="M79725 76293
L79725 75984
L79697 75928
L79640 75899
L79528 75899
L79472 75928
" />
<path d="M79725 76265
L79669 76293
L79528 76293
L79472 76265
L79444 76209
L79444 76153
L79472 76096
L79528 76068
L79669 76068
L79725 76040
" />
<path d="M79922 75899
L80147 75899
" />
<path d="M80006 75703
L80006 76209
L80034 76265
L80090 76293
L80147 76293
" />
<path d="M80568 76265
L80512 76293
L80400 76293
L80343 76265
L80315 76209
L80315 75984
L80343 75928
L80400 75899
L80512 75899
L80568 75928
L80597 75984
L80597 76040
L80315 76096
" />
<path d="M80850 76237
L80878 76265
L80850 76293
L80822 76265
L80850 76237
L80850 76293
" />
<path d="M80850 75928
L80878 75956
L80850 75984
L80822 75956
L80850 75928
L80850 75984
" />
</g>
<g style="fill:#000000; fill-opacity:0.0; 
stroke:#000000; stroke-width:39.3701; stroke-opacity:1; 
stroke-linecap:round; stroke-linejoin:round;">
</g>
<g style="fill:#000000; fill-opacity:0.0; 
stroke:#000000; stroke-width:59.0551; stroke-opacity:1; 
stroke-linecap:round; stroke-linejoin:round;">
<path d="M69685 76577
L112205 76577
" />
</g>
<g style="fill:#000000; fill-opacity:0.0; 
stroke:#000000; stroke-width:39.3701; stroke-opacity:1; 
stroke-linecap:round; stroke-linejoin:round;">
</g>
<g style="fill:#000000; fill-opacity:0.0; 
stroke:#000000; stroke-width:59.0551; stroke-opacity:1; 
stroke-linecap:round; stroke-linejoin:round;">
<path d="M70220 77395
L70220 76805
" />
<path d="M70557 77395
L70304 77058
" />
<path d="M70557 76805
L70220 77142
" />
<path d="M70810 77395
L70810 77002
" />
<path d="M70810 76805
L70782 76833
L70810 76861
L70838 76833
L70810 76805
L70810 76861
" />
<path d="M71429 77339
L71401 77367
L71316 77395
L71260 77395
L71176 77367
L71120 77311
L71091 77255
L71063 77142
L71063 77058
L71091 76946
L71120 76889
L71176 76833
L71260 76805
L71316 76805
L71401 76833
L71429 76861
" />
<path d="M71935 77395
L71935 77086
L71907 77030
L71851 77002
L71738 77002
L71682 77030
" />
<path d="M71935 77367
L71879 77395
L71738 77395
L71682 77367
L71654 77311
L71654 77255
L71682 77199
L71738 77171
L71879 77171
L71935 77142
" />
<path d="M72469 77395
L72469 76805
" />
<path d="M72469 77367
L72413 77395
L72301 77395
L72244 77367
L72216 77339
L72188 77283
L72188 77114
L72216 77058
L72244 77030
L72301 77002
L72413 77002
L72469 77030
" />
<path d="M73201 77086
L73397 77086
" />
<path d="M73482 77395
L73201 77395
L73201 76805
L73482 76805
" />
<path d="M73735 77339
L73763 77367
L73735 77395
L73707 77367
L73735 77339
L73735 77395
" />
<path d="M74016 77395
L74016 76805
L74157 76805
L74241 76833
L74297 76889
L74325 76946
L74354 77058
L74354 77142
L74325 77255
L74297 77311
L74241 77367
L74157 77395
L74016 77395
" />
<path d="M74607 77339
L74635 77367
L74607 77395
L74579 77367
L74607 77339
L74607 77395
" />
<path d="M74860 77227
L75141 77227
" />
<path d="M74804 77395
L75000 76805
L75197 77395
" />
<path d="M75394 77339
L75422 77367
L75394 77395
L75366 77367
L75394 77339
L75394 77395
" />
<path d="M76575 77395
L76575 76805
" />
<path d="M76631 77171
L76800 77395
" />
<path d="M76800 77002
L76575 77227
" />
<path d="M77053 77395
L77053 77002
" />
<path d="M77053 76805
L77025 76833
L77053 76861
L77081 76833
L77053 76805
L77053 76861
" />
<path d="M77588 77367
L77531 77395
L77419 77395
L77363 77367
L77334 77339
L77306 77283
L77306 77114
L77334 77058
L77363 77030
L77419 77002
L77531 77002
L77588 77030
" />
<path d="M78094 77395
L78094 77086
L78066 77030
L78009 77002
L77897 77002
L77841 77030
" />
<path d="M78094 77367
L78037 77395
L77897 77395
L77841 77367
L77813 77311
L77813 77255
L77841 77199
L77897 77171
L78037 77171
L78094 77142
" />
<path d="M78628 77395
L78628 76805
" />
<path d="M78628 77367
L78572 77395
L78459 77395
L78403 77367
L78375 77339
L78347 77283
L78347 77114
L78375 77058
L78403 77030
L78459 77002
L78572 77002
L78628 77030
" />
<path d="M79612 77002
L79612 77395
" />
<path d="M79472 76777
L79331 77199
L79697 77199
" />
<path d="M79922 77339
L79950 77367
L79922 77395
L79894 77367
L79922 77339
L79922 77395
" />
<path d="M80315 76805
L80372 76805
L80428 76833
L80456 76861
L80484 76917
L80512 77030
L80512 77171
L80484 77283
L80456 77339
L80428 77367
L80372 77395
L80315 77395
L80259 77367
L80231 77339
L80203 77283
L80175 77171
L80175 77030
L80203 76917
L80231 76861
L80259 76833
L80315 76805
" />
<path d="M80765 77339
L80793 77367
L80765 77395
L80737 77367
L80765 77339
L80765 77395
" />
<path d="M80990 76805
L81356 76805
L81159 77030
L81243 77030
L81300 77058
L81328 77086
L81356 77142
L81356 77283
L81328 77339
L81300 77367
L81243 77395
L81075 77395
L81018 77367
L80990 77339
" />
<path d="M81609 77171
L82059 77171
" />
<path d="M82312 77367
L82368 77395
L82481 77395
L82537 77367
L82565 77311
L82565 77283
L82537 77227
L82481 77199
L82396 77199
L82340 77171
L82312 77114
L82312 77086
L82340 77030
L82396 77002
L82481 77002
L82537 77030
" />
<path d="M82734 77002
L82959 77002
" />
<path d="M82818 76805
L82818 77311
L82846 77367
L82903 77395
L82959 77395
" />
<path d="M83409 77395
L83409 77086
L83381 77030
L83324 77002
L83212 77002
L83156 77030
" />
<path d="M83409 77367
L83352 77395
L83212 77395
L83156 77367
L83127 77311
L83127 77255
L83156 77199
L83212 77171
L83352 77171
L83409 77142
" />
<path d="M83690 77395
L83690 76805
" />
<path d="M83690 77030
L83746 77002
L83859 77002
L83915 77030
L83943 77058
L83971 77114
L83971 77283
L83943 77339
L83915 77367
L83859 77395
L83746 77395
L83690 77367
" />
<path d="M84309 77395
L84252 77367
L84224 77311
L84224 76805
" />
<path d="M84759 77367
L84702 77395
L84590 77395
L84534 77367
L84505 77311
L84505 77086
L84534 77030
L84590 77002
L84702 77002
L84759 77030
L84787 77086
L84787 77142
L84505 77199
" />
</g>
<g style="fill:#000000; fill-opacity:0.0; 
stroke:#000000; stroke-width:39.3701; stroke-opacity:1; 
stroke-linecap:round; stroke-linejoin:round;">
</g>
<g style="fill:#000000; fill-opacity:0.0; 
stroke:#000000; stroke-width:59.0551; stroke-opacity:1; 
stroke-linecap:round; stroke-linejoin:round;">
<path d="M69685 75396
L112205 75396
" />
</g>
<g style="fill:#000000; fill-opacity:0.0; 
stroke:#000000; stroke-width:39.3701; stroke-opacity:1; 
stroke-linecap:round; stroke-linejoin:round;">
</g>
<g style="fill:#000000; fill-opacity:0.0; 
stroke:#000000; stroke-width:118.11; stroke-opacity:1; 
stroke-linecap:round; stroke-linejoin:round;">
<path d="M104022 76293
L103825 76012
" />
<path d="M103684 76293
L103684 75703
L103909 75703
L103965 75731
L103994 75759
L104022 75815
L104022 75899
L103994 75956
L103965 75984
L103909 76012
L103684 76012
" />
<path d="M104500 76265
L104444 76293
L104331 76293
L104275 76265
L104247 76209
L104247 75984
L104275 75928
L104331 75899
L104444 75899
L104500 75928
L104528 75984
L104528 76040
L104247 76096
" />
<path d="M104725 75899
L104865 76293
L105006 75899
" />
<path d="M105231 76237
L105259 76265
L105231 76293
L105203 76265
L105231 76237
L105231 76293
" />
<path d="M105231 75928
L105259 75956
L105231 75984
L105203 75956
L105231 75928
L105231 75984
" />
</g>
<g style="fill:#000000; fill-opacity:0.0; 
stroke:#000000; stroke-width:39.3701; stroke-opacity:1; 
stroke-linecap:round; stroke-linejoin:round;">
</g>
<g style="fill:#000000; fill-opacity:0.0; 
stroke:#000000; stroke-width:59.0551; stroke-opacity:1; 
stroke-linecap:round; stroke-linejoin:round;">
<path d="M70192 76265
L70276 76293
L70417 76293
L70473 76265
L70501 76237
L70529 76181
L70529 76124
L70501 76068
L70473 76040
L70417 76012
L70304 75984
L70248 75956
L70220 75928
L70192 75871
L70192 75815
L70220 75759
L70248 75731
L70304 75703
L70445 75703
L70529 75731
" />
<path d="M70782 76293
L70782 75899
" />
<path d="M70782 75703
L70754 75731
L70782 75759
L70810 75731
L70782 75703
L70782 75759
" />
<path d="M71007 75899
L71316 75899
L71007 76293
L71316 76293
" />
<path d="M71766 76265
L71710 76293
L71598 76293
L71541 76265
L71513 76209
L71513 75984
L71541 75928
L71598 75899
L71710 75899
L71766 75928
L71795 75984
L71795 76040
L71513 76096
" />
<path d="M72048 76237
L72076 76265
L72048 76293
L72019 76265
L72048 76237
L72048 76293
" />
<path d="M72048 75928
L72076 75956
L72048 75984
L72019 75956
L72048 75928
L72048 75984
" />
<path d="M72751 76124
L73032 76124
" />
<path d="M72694 76293
L72891 75703
L73088 76293
" />
<path d="M73538 75899
L73538 76293
" />
<path d="M73397 75674
L73257 76096
L73622 76096
" />
</g>
<g style="fill:#000000; fill-opacity:0.0; 
stroke:#000000; stroke-width:39.3701; stroke-opacity:1; 
stroke-linecap:round; stroke-linejoin:round;">
</g>
<g style="fill:#000000; fill-opacity:0.0; 
stroke:#000000; stroke-width:59.0551; stroke-opacity:1; 
stroke-linecap:round; stroke-linejoin:round;">
<path d="M103684 77395
L103684 76805
" />
<path d="M104219 77395
L104219 76805
" />
<path d="M104219 77367
L104162 77395
L104050 77395
L103994 77367
L103965 77339
L103937 77283
L103937 77114
L103965 77058
L103994 77030
L104050 77002
L104162 77002
L104219 77030
" />
<path d="M104500 77339
L104528 77367
L104500 77395
L104472 77367
L104500 77339
L104500 77395
" />
<path d="M104500 77030
L104528 77058
L104500 77086
L104472 77058
L104500 77030
L104500 77086
" />
<path d="M105540 77395
L105203 77395
" />
<path d="M105372 77395
L105372 76805
L105315 76889
L105259 76946
L105203 76974
" />
<path d="M106215 76777
L105709 77536
" />
<path d="M106721 77395
L106384 77395
" />
<path d="M106553 77395
L106553 76805
L106496 76889
L106440 76946
L106384 76974
" />
</g>
<g style="fill:#000000; fill-opacity:0.0; 
stroke:#000000; stroke-width:39.3701; stroke-opacity:1; 
stroke-linecap:round; stroke-linejoin:round;">
</g>
<g style="fill:#000000; fill-opacity:0.0; 
stroke:#000000; stroke-width:59.0551; stroke-opacity:1; 
stroke-linecap:round; stroke-linejoin:round;">
<path d="M69685 73821
L112205 73821
" />
</g>
<g style="fill:#000000; fill-opacity:0.0; 
stroke:#000000; stroke-width:39.3701; stroke-opacity:1; 
stroke-linecap:round; stroke-linejoin:round;">
</g>
<g style="fill:#000000; fill-opacity:0.0; 
stroke:#000000; stroke-width:157.48; stroke-opacity:1; 
stroke-linecap:round; stroke-linejoin:round;">
<path d="M70257 74099
L70707 74099
" />
<path d="M70384 74886
L70482 74099
" />
<path d="M70871 74886
L70937 74361
" />
<path d="M70970 74099
L70927 74136
L70960 74174
L71002 74136
L70970 74099
L70960 74174
" />
<path d="M71199 74361
L71499 74361
" />
<path d="M71345 74099
L71260 74774
L71288 74849
L71359 74886
L71434 74886
" />
<path d="M71809 74886
L71738 74849
L71710 74774
L71795 74099
" />
<path d="M72413 74849
L72334 74886
L72184 74886
L72113 74849
L72085 74774
L72123 74474
L72169 74399
L72249 74361
L72399 74361
L72469 74399
L72498 74474
L72488 74549
L72104 74624
" />
<path d="M72793 74811
L72826 74849
L72783 74886
L72751 74849
L72793 74811
L72783 74886
" />
<path d="M72844 74399
L72877 74436
L72835 74474
L72802 74436
L72844 74399
L72835 74474
" />
</g>
<g style="fill:#000000; fill-opacity:0.0; 
stroke:#000000; stroke-width:39.3701; stroke-opacity:1; 
stroke-linecap:round; stroke-linejoin:round;">
</g>
<g style="fill:#000000; fill-opacity:0.0; 
stroke:#000000; stroke-width:59.0551; stroke-opacity:1; 
stroke-linecap:round; stroke-linejoin:round;">
<path d="M70417 73070
L70220 73070
" />
<path d="M70220 73380
L70220 72789
L70501 72789
" />
<path d="M70726 73380
L70726 72986
" />
<path d="M70726 72789
L70698 72817
L70726 72845
L70754 72817
L70726 72789
L70726 72845
" />
<path d="M71091 73380
L71035 73352
L71007 73295
L71007 72789
" />
<path d="M71541 73352
L71485 73380
L71373 73380
L71316 73352
L71288 73295
L71288 73070
L71316 73014
L71373 72986
L71485 72986
L71541 73014
L71570 73070
L71570 73127
L71288 73183
" />
<path d="M71823 73323
L71851 73352
L71823 73380
L71795 73352
L71823 73323
L71823 73380
" />
<path d="M71823 73014
L71851 73042
L71823 73070
L71795 73042
L71823 73014
L71823 73070
" />
<path d="M72638 73042
L72582 73014
L72554 72986
L72526 72930
L72526 72902
L72554 72845
L72582 72817
L72638 72789
L72751 72789
L72807 72817
L72835 72845
L72863 72902
L72863 72930
L72835 72986
L72807 73014
L72751 73042
L72638 73042
L72582 73070
L72554 73099
L72526 73155
L72526 73267
L72554 73323
L72582 73352
L72638 73380
L72751 73380
L72807 73352
L72835 73323
L72863 73267
L72863 73155
L72835 73099
L72807 73070
L72751 73042
" />
<path d="M73229 72789
L73285 72789
L73341 72817
L73369 72845
L73397 72902
L73426 73014
L73426 73155
L73397 73267
L73369 73323
L73341 73352
L73285 73380
L73229 73380
L73172 73352
L73144 73323
L73116 73267
L73088 73155
L73088 73014
L73116 72902
L73144 72845
L73172 72817
L73229 72789
" />
<path d="M73763 73042
L73707 73014
L73679 72986
L73651 72930
L73651 72902
L73679 72845
L73707 72817
L73763 72789
L73876 72789
L73932 72817
L73960 72845
L73988 72902
L73988 72930
L73960 72986
L73932 73014
L73876 73042
L73763 73042
L73707 73070
L73679 73099
L73651 73155
L73651 73267
L73679 73323
L73707 73352
L73763 73380
L73876 73380
L73932 73352
L73960 73323
L73988 73267
L73988 73155
L73960 73099
L73932 73070
L73876 73042
" />
<path d="M74325 73042
L74269 73014
L74241 72986
L74213 72930
L74213 72902
L74241 72845
L74269 72817
L74325 72789
L74438 72789
L74494 72817
L74522 72845
L74550 72902
L74550 72930
L74522 72986
L74494 73014
L74438 73042
L74325 73042
L74269 73070
L74241 73099
L74213 73155
L74213 73267
L74241 73323
L74269 73352
L74325 73380
L74438 73380
L74494 73352
L74522 73323
L74550 73267
L74550 73155
L74522 73099
L74494 73070
L74438 73042
" />
<path d="M74804 73323
L74832 73352
L74804 73380
L74775 73352
L74804 73323
L74804 73380
" />
<path d="M75085 73380
L75085 72789
" />
<path d="M75141 73155
L75310 73380
" />
<path d="M75310 72986
L75085 73211
" />
<path d="M75563 73380
L75563 72986
" />
<path d="M75563 72789
L75535 72817
L75563 72845
L75591 72817
L75563 72789
L75563 72845
" />
<path d="M76097 73352
L76041 73380
L75928 73380
L75872 73352
L75844 73323
L75816 73267
L75816 73099
L75844 73042
L75872 73014
L75928 72986
L76041 72986
L76097 73014
" />
<path d="M76603 73380
L76603 73070
L76575 73014
L76519 72986
L76406 72986
L76350 73014
" />
<path d="M76603 73352
L76547 73380
L76406 73380
L76350 73352
L76322 73295
L76322 73239
L76350 73183
L76406 73155
L76547 73155
L76603 73127
" />
<path d="M77138 73380
L77138 72789
" />
<path d="M77138 73352
L77081 73380
L76969 73380
L76913 73352
L76885 73323
L76856 73267
L76856 73099
L76885 73042
L76913 73014
L76969 72986
L77081 72986
L77138 73014
" />
<path d="M77278 73436
L77728 73436
" />
<path d="M77869 72986
L77869 73577
" />
<path d="M77869 73014
L77925 72986
L78037 72986
L78094 73014
L78122 73042
L78150 73099
L78150 73267
L78122 73323
L78094 73352
L78037 73380
L77925 73380
L77869 73352
" />
<path d="M78656 73352
L78600 73380
L78487 73380
L78431 73352
L78403 73323
L78375 73267
L78375 73099
L78403 73042
L78431 73014
L78487 72986
L78600 72986
L78656 73014
" />
<path d="M78909 73380
L78909 72789
" />
<path d="M78909 73014
L78965 72986
L79078 72986
L79134 73014
L79162 73042
L79190 73099
L79190 73267
L79162 73323
L79134 73352
L79078 73380
L78965 73380
L78909 73352
" />
</g>
<g style="fill:#000000; fill-opacity:0.0; 
stroke:#000000; stroke-width:39.3701; stroke-opacity:1; 
stroke-linecap:round; stroke-linejoin:round;">
</g>
<g style="fill:#000000; fill-opacity:0.0; 
stroke:#000000; stroke-width:59.0551; stroke-opacity:1; 
stroke-linecap:round; stroke-linejoin:round;">
<path d="M69685 71459
L112205 71459
" />
</g>
<g style="fill:#000000; fill-opacity:0.0; 
stroke:#000000; stroke-width:39.3701; stroke-opacity:1; 
stroke-linecap:round; stroke-linejoin:round;">
</g>
<g style="fill:#000000; fill-opacity:0.0; 
stroke:#000000; stroke-width:59.0551; stroke-opacity:1; 
stroke-linecap:round; stroke-linejoin:round;">
<path d="M70192 72289
L70276 72317
L70417 72317
L70473 72289
L70501 72260
L70529 72204
L70529 72148
L70501 72092
L70473 72064
L70417 72036
L70304 72007
L70248 71979
L70220 71951
L70192 71895
L70192 71839
L70220 71782
L70248 71754
L70304 71726
L70445 71726
L70529 71754
" />
<path d="M70782 72317
L70782 71726
" />
<path d="M71035 72317
L71035 72007
L71007 71951
L70951 71923
L70867 71923
L70810 71951
L70782 71979
" />
<path d="M71541 72289
L71485 72317
L71373 72317
L71316 72289
L71288 72232
L71288 72007
L71316 71951
L71373 71923
L71485 71923
L71541 71951
L71570 72007
L71570 72064
L71288 72120
" />
<path d="M72048 72289
L71991 72317
L71879 72317
L71823 72289
L71795 72232
L71795 72007
L71823 71951
L71879 71923
L71991 71923
L72048 71951
L72076 72007
L72076 72064
L71795 72120
" />
<path d="M72244 71923
L72469 71923
" />
<path d="M72329 71726
L72329 72232
L72357 72289
L72413 72317
L72469 72317
" />
<path d="M72666 72260
L72694 72289
L72666 72317
L72638 72289
L72666 72260
L72666 72317
" />
<path d="M72666 71951
L72694 71979
L72666 72007
L72638 71979
L72666 71951
L72666 72007
" />
</g>
<g style="fill:#000000; fill-opacity:0.0; 
stroke:#000000; stroke-width:39.3701; stroke-opacity:1; 
stroke-linecap:round; stroke-linejoin:round;">
</g>
<g style="fill:#000000; fill-opacity:0.0; 
stroke:#000000; stroke-width:59.0551; stroke-opacity:1; 
stroke-linecap:round; stroke-linejoin:round;">
<path d="M77559 75396
L77559 76577
" />
</g>
<g style="fill:#000000; fill-opacity:0.0; 
stroke:#000000; stroke-width:39.3701; stroke-opacity:1; 
stroke-linecap:round; stroke-linejoin:round;">
</g>
<g style="fill:#000000; fill-opacity:0.0; 
stroke:#000000; stroke-width:59.0551; stroke-opacity:1; 
stroke-linecap:round; stroke-linejoin:round;">
<path d="M102756 75396
L102756 77955
" />
</g>
<g style="fill:#C2C200; fill-opacity:0.0; 
stroke:#C2C200; stroke-width:59.0551; stroke-opacity:1; 
stroke-linecap:round; stroke-linejoin:round;">
<path d="M30000 53000
L91000 53000
" />
<path d="M30000 53000
L30000 16200
" />
<path d="M91000 16200
L91000 53000
" />
<path d="M87000 16200
L91000 16200
" />
<path d="M30000 16200
L87000 16200
" />
</g>
<g style="fill:#840000; fill-opacity:0.0; 
stroke:#840000; stroke-width:59.0551; stroke-opacity:1; 
stroke-linecap:round; stroke-linejoin:round;">
</g>
<g style="fill:#840000; fill-opacity:0.0; 
stroke:#840000; stroke-width:0; stroke-opacity:1; 
stroke-linecap:round; stroke-linejoin:round;">
</g>
<g style="fill:#840000; fill-opacity:1.0; 
stroke:#840000; stroke-width:0; stroke-opacity:1; 
stroke-linecap:round; stroke-linejoin:round;">
<polyline style="fill-rule:evenodd;"
points="72607,18768
73277,18768
73277,19556
72607,19556
72607,18768
" /> 
<polyline style="fill-rule:evenodd;"
points="72607,20343
73277,20343
73277,21130
72607,21130
72607,20343
" /> 
<polyline style="fill-rule:evenodd;"
points="64607,18768
65277,18768
65277,19556
64607,19556
64607,18768
" /> 
<polyline style="fill-rule:evenodd;"
points="64607,20343
65277,20343
65277,21130
64607,21130
64607,20343
" /> 
<polyline style="fill-rule:evenodd;"
points="53151,18756
53820,18756
53820,19543
53151,19543
53151,18756
" /> 
<polyline style="fill-rule:evenodd;"
points="53151,20331
53820,20331
53820,21118
53151,21118
53151,20331
" /> 
<polyline style="fill-rule:evenodd;"
points="36446,35787
35953,35787
35953,35196
36446,35196
36446,35787
" /> 
<polyline style="fill-rule:evenodd;"
points="36446,34803
35953,34803
35953,34212
36446,34212
36446,34803
" /> 
<polyline style="fill-rule:evenodd;"
points="36446,29987
35953,29987
35953,29396
36446,29396
36446,29987
" /> 
<polyline style="fill-rule:evenodd;"
points="36446,29003
35953,29003
35953,28412
36446,28412
36446,29003
" /> 
<polyline style="fill-rule:evenodd;"
points="37387,21553
37387,22046
36796,22046
36796,21553
37387,21553
" /> 
<polyline style="fill-rule:evenodd;"
points="36403,21553
36403,22046
35812,22046
35812,21553
36403,21553
" /> 
<polyline style="fill-rule:evenodd;"
points="36153,39920
36646,39920
36646,40511
36153,40511
36153,39920
" /> 
<polyline style="fill-rule:evenodd;"
points="36153,40904
36646,40904
36646,41495
36153,41495
36153,40904
" /> 
<polyline style="fill-rule:evenodd;"
points="33412,39246
33412,38753
34003,38753
34003,39246
33412,39246
" /> 
<polyline style="fill-rule:evenodd;"
points="34396,39246
34396,38753
34987,38753
34987,39246
34396,39246
" /> 
<polyline style="fill-rule:evenodd;"
points="33286,47322
33286,45590
34585,45590
34585,47322
33286,47322
" /> 
<polyline style="fill-rule:evenodd;"
points="30353,51220
30353,48779
31888,48779
31888,51220
30353,51220
" /> 
<polyline style="fill-rule:evenodd;"
points="35432,51220
35432,48779
36967,48779
36967,51220
35432,51220
" /> 
<polyline style="fill-rule:evenodd;"
points="79607,18768
80277,18768
80277,19556
79607,19556
79607,18768
" /> 
<polyline style="fill-rule:evenodd;"
points="79607,20343
80277,20343
80277,21130
79607,21130
79607,20343
" /> 
<polyline style="fill-rule:evenodd;"
points="71607,18768
72277,18768
72277,19556
71607,19556
71607,18768
" /> 
<polyline style="fill-rule:evenodd;"
points="71607,20343
72277,20343
72277,21130
71607,21130
71607,20343
" /> 
<polyline style="fill-rule:evenodd;"
points="78607,18768
79277,18768
79277,19556
78607,19556
78607,18768
" /> 
<polyline style="fill-rule:evenodd;"
points="78607,20343
79277,20343
79277,21130
78607,21130
78607,20343
" /> 
<polyline style="fill-rule:evenodd;"
points="70607,18768
71277,18768
71277,19556
70607,19556
70607,18768
" /> 
<polyline style="fill-rule:evenodd;"
points="70607,20343
71277,20343
71277,21130
70607,21130
70607,20343
" /> 
<polyline style="fill-rule:evenodd;"
points="77607,18768
78277,18768
78277,19556
77607,19556
77607,18768
" /> 
<polyline style="fill-rule:evenodd;"
points="77607,20343
78277,20343
78277,21130
77607,21130
77607,20343
" /> 
<polyline style="fill-rule:evenodd;"
points="69607,18768
70277,18768
70277,19556
69607,19556
69607,18768
" /> 
<polyline style="fill-rule:evenodd;"
points="69607,20343
70277,20343
70277,21130
69607,21130
69607,20343
" /> 
<polyline style="fill-rule:evenodd;"
points="76607,18768
77277,18768
77277,19556
76607,19556
76607,18768
" /> 
<polyline style="fill-rule:evenodd;"
points="76607,20343
77277,20343
77277,21130
76607,21130
76607,20343
" /> 
<polyline style="fill-rule:evenodd;"
points="68607,18768
69277,18768
69277,19556
68607,19556
68607,18768
" /> 
<polyline style="fill-rule:evenodd;"
points="68607,20343
69277,20343
69277,21130
68607,21130
68607,20343
" /> 
<polyline style="fill-rule:evenodd;"
points="75607,18768
76277,18768
76277,19556
75607,19556
75607,18768
" /> 
<polyline style="fill-rule:evenodd;"
points="75607,20343
76277,20343
76277,21130
75607,21130
75607,20343
" /> 
<polyline style="fill-rule:evenodd;"
points="67607,18768
68277,18768
68277,19556
67607,19556
67607,18768
" /> 
<polyline style="fill-rule:evenodd;"
points="67607,20343
68277,20343
68277,21130
67607,21130
67607,20343
" /> 
<polyline style="fill-rule:evenodd;"
points="74607,18768
75277,18768
75277,19556
74607,19556
74607,18768
" /> 
<polyline style="fill-rule:evenodd;"
points="74607,20343
75277,20343
75277,21130
74607,21130
74607,20343
" /> 
<polyline style="fill-rule:evenodd;"
points="66607,18768
67277,18768
67277,19556
66607,19556
66607,18768
" /> 
<polyline style="fill-rule:evenodd;"
points="66607,20343
67277,20343
67277,21130
66607,21130
66607,20343
" /> 
<polyline style="fill-rule:evenodd;"
points="73607,18768
74277,18768
74277,19556
73607,19556
73607,18768
" /> 
<polyline style="fill-rule:evenodd;"
points="73607,20343
74277,20343
74277,21130
73607,21130
73607,20343
" /> 
<polyline style="fill-rule:evenodd;"
points="65607,18768
66277,18768
66277,19556
65607,19556
65607,18768
" /> 
<polyline style="fill-rule:evenodd;"
points="65607,20343
66277,20343
66277,21130
65607,21130
65607,20343
" /> 
<polyline style="fill-rule:evenodd;"
points="63607,18768
64277,18768
64277,19556
63607,19556
63607,18768
" /> 
<polyline style="fill-rule:evenodd;"
points="63607,20343
64277,20343
64277,21130
63607,21130
63607,20343
" /> 
<polyline style="fill-rule:evenodd;"
points="62607,18768
63277,18768
63277,19556
62607,19556
62607,18768
" /> 
<polyline style="fill-rule:evenodd;"
points="62607,20343
63277,20343
63277,21130
62607,21130
62607,20343
" /> 
<polyline style="fill-rule:evenodd;"
points="52151,18756
52820,18756
52820,19543
52151,19543
52151,18756
" /> 
<polyline style="fill-rule:evenodd;"
points="52151,20331
52820,20331
52820,21118
52151,21118
52151,20331
" /> 
<polyline style="fill-rule:evenodd;"
points="61607,18768
62277,18768
62277,19556
61607,19556
61607,18768
" /> 
<polyline style="fill-rule:evenodd;"
points="61607,20343
62277,20343
62277,21130
61607,21130
61607,20343
" /> 
<polyline style="fill-rule:evenodd;"
points="51151,18756
51820,18756
51820,19543
51151,19543
51151,18756
" /> 
<polyline style="fill-rule:evenodd;"
points="51151,20331
51820,20331
51820,21118
51151,21118
51151,20331
" /> 
<polyline style="fill-rule:evenodd;"
points="60607,18768
61277,18768
61277,19556
60607,19556
60607,18768
" /> 
<polyline style="fill-rule:evenodd;"
points="60607,20343
61277,20343
61277,21130
60607,21130
60607,20343
" /> 
<polyline style="fill-rule:evenodd;"
points="50151,18756
50820,18756
50820,19543
50151,19543
50151,18756
" /> 
<polyline style="fill-rule:evenodd;"
points="50151,20331
50820,20331
50820,21118
50151,21118
50151,20331
" /> 
<polyline style="fill-rule:evenodd;"
points="48151,18756
48820,18756
48820,19543
48151,19543
48151,18756
" /> 
<polyline style="fill-rule:evenodd;"
points="48151,20331
48820,20331
48820,21118
48151,21118
48151,20331
" /> 
<polyline style="fill-rule:evenodd;"
points="49151,18756
49820,18756
49820,19543
49151,19543
49151,18756
" /> 
<polyline style="fill-rule:evenodd;"
points="49151,20331
49820,20331
49820,21118
49151,21118
49151,20331
" /> 
<polyline style="fill-rule:evenodd;"
points="47151,18756
47820,18756
47820,19543
47151,19543
47151,18756
" /> 
<polyline style="fill-rule:evenodd;"
points="47151,20331
47820,20331
47820,21118
47151,21118
47151,20331
" /> 
<polyline style="fill-rule:evenodd;"
points="46151,18756
46820,18756
46820,19543
46151,19543
46151,18756
" /> 
<polyline style="fill-rule:evenodd;"
points="46151,20331
46820,20331
46820,21118
46151,21118
46151,20331
" /> 
<polyline style="fill-rule:evenodd;"
points="57151,18756
57820,18756
57820,19543
57151,19543
57151,18756
" /> 
<polyline style="fill-rule:evenodd;"
points="57151,20331
57820,20331
57820,21118
57151,21118
57151,20331
" /> 
<polyline style="fill-rule:evenodd;"
points="56151,18756
56820,18756
56820,19543
56151,19543
56151,18756
" /> 
<polyline style="fill-rule:evenodd;"
points="56151,20331
56820,20331
56820,21118
56151,21118
56151,20331
" /> 
<polyline style="fill-rule:evenodd;"
points="55151,18756
55820,18756
55820,19543
55151,19543
55151,18756
" /> 
<polyline style="fill-rule:evenodd;"
points="55151,20331
55820,20331
55820,21118
55151,21118
55151,20331
" /> 
<polyline style="fill-rule:evenodd;"
points="54151,18756
54820,18756
54820,19543
54151,19543
54151,18756
" /> 
<polyline style="fill-rule:evenodd;"
points="54151,20331
54820,20331
54820,21118
54151,21118
54151,20331
" /> 
<polyline style="fill-rule:evenodd;"
points="31534,43781
30865,43781
30865,42993
31534,42993
31534,43781
" /> 
<polyline style="fill-rule:evenodd;"
points="31534,42206
30865,42206
30865,41418
31534,41418
31534,42206
" /> 
<polyline style="fill-rule:evenodd;"
points="37505,29108
36994,29108
36994,28517
37505,28517
37505,29108
" /> 
<polyline style="fill-rule:evenodd;"
points="37505,28045
36994,28045
36994,27454
37505,27454
37505,28045
" /> 
<polyline style="fill-rule:evenodd;"
points="37244,35141
37755,35141
37755,35732
37244,35732
37244,35141
" /> 
<polyline style="fill-rule:evenodd;"
points="37244,36204
37755,36204
37755,36795
37244,36795
37244,36204
" /> 
<polyline style="fill-rule:evenodd;"
points="36994,29391
37505,29391
37505,29982
36994,29982
36994,29391
" /> 
<polyline style="fill-rule:evenodd;"
points="36994,30454
37505,30454
37505,31045
36994,31045
36994,30454
" /> 
<polyline style="fill-rule:evenodd;"
points="37244,32641
37755,32641
37755,33232
37244,33232
37244,32641
" /> 
<polyline style="fill-rule:evenodd;"
points="37244,33704
37755,33704
37755,34295
37244,34295
37244,33704
" /> 
<polyline style="fill-rule:evenodd;"
points="80255,23058
79744,23058
79744,22467
80255,22467
80255,23058
" /> 
<polyline style="fill-rule:evenodd;"
points="80255,21995
79744,21995
79744,21404
80255,21404
80255,21995
" /> 
<polyline style="fill-rule:evenodd;"
points="72255,23058
71744,23058
71744,22467
72255,22467
72255,23058
" /> 
<polyline style="fill-rule:evenodd;"
points="72255,21995
71744,21995
71744,21404
72255,21404
72255,21995
" /> 
<polyline style="fill-rule:evenodd;"
points="79255,23058
78744,23058
78744,22467
79255,22467
79255,23058
" /> 
<polyline style="fill-rule:evenodd;"
points="79255,21995
78744,21995
78744,21404
79255,21404
79255,21995
" /> 
<polyline style="fill-rule:evenodd;"
points="71255,23058
70744,23058
70744,22467
71255,22467
71255,23058
" /> 
<polyline style="fill-rule:evenodd;"
points="71255,21995
70744,21995
70744,21404
71255,21404
71255,21995
" /> 
<polyline style="fill-rule:evenodd;"
points="78255,23058
77744,23058
77744,22467
78255,22467
78255,23058
" /> 
<polyline style="fill-rule:evenodd;"
points="78255,21995
77744,21995
77744,21404
78255,21404
78255,21995
" /> 
<polyline style="fill-rule:evenodd;"
points="70255,23058
69744,23058
69744,22467
70255,22467
70255,23058
" /> 
<polyline style="fill-rule:evenodd;"
points="70255,21995
69744,21995
69744,21404
70255,21404
70255,21995
" /> 
<polyline style="fill-rule:evenodd;"
points="77255,23058
76744,23058
76744,22467
77255,22467
77255,23058
" /> 
<polyline style="fill-rule:evenodd;"
points="77255,21995
76744,21995
76744,21404
77255,21404
77255,21995
" /> 
<polyline style="fill-rule:evenodd;"
points="69255,23058
68744,23058
68744,22467
69255,22467
69255,23058
" /> 
<polyline style="fill-rule:evenodd;"
points="69255,21995
68744,21995
68744,21404
69255,21404
69255,21995
" /> 
<polyline style="fill-rule:evenodd;"
points="76255,23058
75744,23058
75744,22467
76255,22467
76255,23058
" /> 
<polyline style="fill-rule:evenodd;"
points="76255,21995
75744,21995
75744,21404
76255,21404
76255,21995
" /> 
<polyline style="fill-rule:evenodd;"
points="68255,23058
67744,23058
67744,22467
68255,22467
68255,23058
" /> 
<polyline style="fill-rule:evenodd;"
points="68255,21995
67744,21995
67744,21404
68255,21404
68255,21995
" /> 
<polyline style="fill-rule:evenodd;"
points="75255,23058
74744,23058
74744,22467
75255,22467
75255,23058
" /> 
<polyline style="fill-rule:evenodd;"
points="75255,21995
74744,21995
74744,21404
75255,21404
75255,21995
" /> 
<polyline style="fill-rule:evenodd;"
points="67255,23058
66744,23058
66744,22467
67255,22467
67255,23058
" /> 
<polyline style="fill-rule:evenodd;"
points="67255,21995
66744,21995
66744,21404
67255,21404
67255,21995
" /> 
<polyline style="fill-rule:evenodd;"
points="74255,23058
73744,23058
73744,22467
74255,22467
74255,23058
" /> 
<polyline style="fill-rule:evenodd;"
points="74255,21995
73744,21995
73744,21404
74255,21404
74255,21995
" /> 
<polyline style="fill-rule:evenodd;"
points="66255,23058
65744,23058
65744,22467
66255,22467
66255,23058
" /> 
<polyline style="fill-rule:evenodd;"
points="66255,21995
65744,21995
65744,21404
66255,21404
66255,21995
" /> 
<polyline style="fill-rule:evenodd;"
points="73255,23058
72744,23058
72744,22467
73255,22467
73255,23058
" /> 
<polyline style="fill-rule:evenodd;"
points="73255,21995
72744,21995
72744,21404
73255,21404
73255,21995
" /> 
<polyline style="fill-rule:evenodd;"
points="65255,23058
64744,23058
64744,22467
65255,22467
65255,23058
" /> 
<polyline style="fill-rule:evenodd;"
points="65255,21995
64744,21995
64744,21404
65255,21404
65255,21995
" /> 
<polyline style="fill-rule:evenodd;"
points="64255,23058
63744,23058
63744,22467
64255,22467
64255,23058
" /> 
<polyline style="fill-rule:evenodd;"
points="64255,21995
63744,21995
63744,21404
64255,21404
64255,21995
" /> 
<polyline style="fill-rule:evenodd;"
points="53755,23058
53244,23058
53244,22467
53755,22467
53755,23058
" /> 
<polyline style="fill-rule:evenodd;"
points="53755,21995
53244,21995
53244,21404
53755,21404
53755,21995
" /> 
<polyline style="fill-rule:evenodd;"
points="63155,23058
62644,23058
62644,22467
63155,22467
63155,23058
" /> 
<polyline style="fill-rule:evenodd;"
points="63155,21995
62644,21995
62644,21404
63155,21404
63155,21995
" /> 
<polyline style="fill-rule:evenodd;"
points="52755,23058
52244,23058
52244,22467
52755,22467
52755,23058
" /> 
<polyline style="fill-rule:evenodd;"
points="52755,21995
52244,21995
52244,21404
52755,21404
52755,21995
" /> 
<polyline style="fill-rule:evenodd;"
points="62155,23058
61644,23058
61644,22467
62155,22467
62155,23058
" /> 
<polyline style="fill-rule:evenodd;"
points="62155,21995
61644,21995
61644,21404
62155,21404
62155,21995
" /> 
<polyline style="fill-rule:evenodd;"
points="51755,23058
51244,23058
51244,22467
51755,22467
51755,23058
" /> 
<polyline style="fill-rule:evenodd;"
points="51755,21995
51244,21995
51244,21404
51755,21404
51755,21995
" /> 
<polyline style="fill-rule:evenodd;"
points="61255,23058
60744,23058
60744,22467
61255,22467
61255,23058
" /> 
<polyline style="fill-rule:evenodd;"
points="61255,21995
60744,21995
60744,21404
61255,21404
61255,21995
" /> 
<polyline style="fill-rule:evenodd;"
points="50755,23058
50244,23058
50244,22467
50755,22467
50755,23058
" /> 
<polyline style="fill-rule:evenodd;"
points="50755,21995
50244,21995
50244,21404
50755,21404
50755,21995
" /> 
<polyline style="fill-rule:evenodd;"
points="48755,23058
48244,23058
48244,22467
48755,22467
48755,23058
" /> 
<polyline style="fill-rule:evenodd;"
points="48755,21995
48244,21995
48244,21404
48755,21404
48755,21995
" /> 
<polyline style="fill-rule:evenodd;"
points="49755,23058
49244,23058
49244,22467
49755,22467
49755,23058
" /> 
<polyline style="fill-rule:evenodd;"
points="49755,21995
49244,21995
49244,21404
49755,21404
49755,21995
" /> 
<polyline style="fill-rule:evenodd;"
points="47755,23058
47244,23058
47244,22467
47755,22467
47755,23058
" /> 
<polyline style="fill-rule:evenodd;"
points="47755,21995
47244,21995
47244,21404
47755,21404
47755,21995
" /> 
<polyline style="fill-rule:evenodd;"
points="46755,23058
46244,23058
46244,22467
46755,22467
46755,23058
" /> 
<polyline style="fill-rule:evenodd;"
points="46755,21995
46244,21995
46244,21404
46755,21404
46755,21995
" /> 
<polyline style="fill-rule:evenodd;"
points="57755,23058
57244,23058
57244,22467
57755,22467
57755,23058
" /> 
<polyline style="fill-rule:evenodd;"
points="57755,21995
57244,21995
57244,21404
57755,21404
57755,21995
" /> 
<polyline style="fill-rule:evenodd;"
points="56755,23058
56244,23058
56244,22467
56755,22467
56755,23058
" /> 
<polyline style="fill-rule:evenodd;"
points="56755,21995
56244,21995
56244,21404
56755,21404
56755,21995
" /> 
<polyline style="fill-rule:evenodd;"
points="55755,23058
55244,23058
55244,22467
55755,22467
55755,23058
" /> 
<polyline style="fill-rule:evenodd;"
points="55755,21995
55244,21995
55244,21404
55755,21404
55755,21995
" /> 
<polyline style="fill-rule:evenodd;"
points="54755,23058
54244,23058
54244,22467
54755,22467
54755,23058
" /> 
<polyline style="fill-rule:evenodd;"
points="54755,21995
54244,21995
54244,21404
54755,21404
54755,21995
" /> 
<polyline style="fill-rule:evenodd;"
points="31455,41158
30944,41158
30944,40567
31455,40567
31455,41158
" /> 
<polyline style="fill-rule:evenodd;"
points="31455,40095
30944,40095
30944,39504
31455,39504
31455,40095
" /> 
<polyline style="fill-rule:evenodd;"
points="35261,39916
35733,39916
35733,40783
35261,40783
35261,39916
" /> 
<polyline style="fill-rule:evenodd;"
points="34363,39916
34836,39916
34836,40783
34363,40783
34363,39916
" /> 
<polyline style="fill-rule:evenodd;"
points="33466,39916
33938,39916
33938,40783
33466,40783
33466,39916
" /> 
<polyline style="fill-rule:evenodd;"
points="33458,42889
34540,42889
34540,44090
33458,44090
33458,42889
" /> 
<polyline style="fill-rule:evenodd;"
points="34659,41570
35741,41570
35741,42771
34659,42771
34659,41570
" /> 
<polyline style="fill-rule:evenodd;"
points="34659,42889
35741,42889
35741,44090
34659,44090
34659,42889
" /> 
<polyline style="fill-rule:evenodd;"
points="33458,41570
34540,41570
34540,42771
33458,42771
33458,41570
" /> 
<polyline style="fill-rule:evenodd;"
points="34612,23643
34612,22856
37712,22856
37712,23643
34612,23643
" /> 
<polyline style="fill-rule:evenodd;"
points="39287,23643
39287,22856
42387,22856
42387,23643
39287,23643
" /> 
</g> 
</svg>
