<?xml version="1.0" standalone="no"?>
 <!DOCTYPE svg PUBLIC "-//W3C//DTD SVG 1.1//EN" 
 "http://www.w3.org/Graphics/SVG/1.1/DTD/svg11.dtd"> 
<svg xmlns="http://www.w3.org/2000/svg" version="1.1" 
    width="19.304cm" height="13.2715cm" viewBox="0 0 76000 52250 ">
<title>SVG Picture created as 8088-F.SilkS.svg date 2017/09/25 20:58:38 </title>
  <desc>Picture generated by PCBNEW </desc>
<g style="fill:#000000; fill-opacity:1;stroke:#000000; stroke-opacity:1;
stroke-linecap:round; stroke-linejoin:round; "
 transform="translate(0 0) scale(1 1)">
</g>
<g style="fill:#C2C200; fill-opacity:0.0; 
stroke:#C2C200; stroke-width:-0.000393701; stroke-opacity:1; 
stroke-linecap:round; stroke-linejoin:round;">
</g>
<g style="fill:#C2C200; fill-opacity:0.0; 
stroke:#C2C200; stroke-width:59.0551; stroke-opacity:1; 
stroke-linecap:round; stroke-linejoin:round;">
<path d="M5500 44700
L66500 44700
" />
<path d="M5500 44700
L5500 8700
" />
<path d="M66500 8700
L66500 44700
" />
<path d="M62500 8700
L66500 8700
" />
<path d="M5500 8700
L62500 8700
" />
<path d="M63500 10885
L63462 10867
L63406 10867
L63350 10885
L63312 10923
L63293 10960
L63275 11035
L63275 11092
L63293 11167
L63312 11204
L63350 11242
L63406 11260
L63443 11260
L63500 11242
L63518 11223
L63518 11092
L63443 11092
" />
<path d="M63687 11260
L63687 10867
L63912 11260
L63912 10867
" />
<path d="M64099 11260
L64099 10867
L64193 10867
L64249 10885
L64287 10923
L64306 10960
L64324 11035
L64324 11092
L64306 11167
L64287 11204
L64249 11242
L64193 11260
L64099 11260
" />
<path d="M61000 10885
L60962 10867
L60906 10867
L60850 10885
L60812 10923
L60793 10960
L60775 11035
L60775 11092
L60793 11167
L60812 11204
L60850 11242
L60906 11260
L60943 11260
L61000 11242
L61018 11223
L61018 11092
L60943 11092
" />
<path d="M61187 11260
L61187 10867
L61412 11260
L61412 10867
" />
<path d="M61599 11260
L61599 10867
L61693 10867
L61749 10885
L61787 10923
L61806 10960
L61824 11035
L61824 11092
L61806 11167
L61787 11204
L61749 11242
L61693 11260
L61599 11260
" />
<path d="M48508 11018
L48508 10830
" />
<path d="M48620 11055
L48227 10924
L48620 10793
" />
<path d="M48227 10699
L48227 10437
L48620 10605
" />
<path d="M40508 10705
L40508 10518
" />
<path d="M40620 10743
L40227 10612
L40620 10480
" />
<path d="M40620 10143
L40620 10368
" />
<path d="M40620 10255
L40227 10255
L40283 10293
L40320 10330
L40339 10368
" />
<path d="M40227 9787
L40227 9974
L40414 9993
L40395 9974
L40377 9937
L40377 9843
L40395 9805
L40414 9787
L40451 9768
L40545 9768
L40583 9787
L40601 9805
L40620 9843
L40620 9937
L40601 9974
L40583 9993
" />
<path d="M29055 10915
L29055 10728
" />
<path d="M29167 10953
L28774 10821
L29167 10690
" />
<path d="M29167 10559
L28774 10559
L28774 10465
L28792 10409
L28830 10371
L28867 10353
L28942 10334
L28999 10334
L29074 10353
L29111 10371
L29149 10409
L29167 10465
L29167 10559
" />
<path d="M28905 9996
L29167 9996
" />
<path d="M28755 10090
L29036 10184
L29036 9940
" />
<path d="M19900 16584
L19900 16903
L19918 16940
L19937 16959
L19975 16978
L20050 16978
L20087 16959
L20106 16940
L20125 16903
L20125 16584
" />
<path d="M20293 16621
L20312 16603
L20349 16584
L20443 16584
L20481 16603
L20499 16621
L20518 16659
L20518 16696
L20499 16753
L20274 16978
L20518 16978
" />
<path d="M11684 26390
L11665 26409
L11609 26428
L11571 26428
L11515 26409
L11478 26371
L11459 26334
L11440 26259
L11440 26203
L11459 26128
L11478 26090
L11515 26053
L11571 26034
L11609 26034
L11665 26053
L11684 26071
" />
<path d="M12059 26428
L11834 26428
" />
<path d="M11946 26428
L11946 26034
L11909 26090
L11871 26128
L11834 26146
" />
<path d="M11684 20640
L11665 20659
L11609 20678
L11571 20678
L11515 20659
L11478 20621
L11459 20584
L11440 20509
L11440 20453
L11459 20378
L11478 20340
L11515 20303
L11571 20284
L11609 20284
L11665 20303
L11684 20321
" />
<path d="M11834 20321
L11853 20303
L11890 20284
L11984 20284
L12021 20303
L12040 20321
L12059 20359
L12059 20396
L12040 20453
L11815 20678
L12059 20678
" />
<path d="M12034 15129
L12015 15148
L11959 15167
L11921 15167
L11865 15148
L11828 15110
L11809 15073
L11790 14998
L11790 14942
L11809 14867
L11828 14829
L11865 14792
L11921 14773
L11959 14773
L12015 14792
L12034 14810
" />
<path d="M12165 14773
L12409 14773
L12278 14923
L12334 14923
L12371 14942
L12390 14960
L12409 14998
L12409 15092
L12390 15129
L12371 15148
L12334 15167
L12221 15167
L12184 15148
L12165 15129
" />
<path d="M12729 33273
L12748 33292
L12767 33348
L12767 33385
L12748 33442
L12710 33479
L12673 33498
L12598 33517
L12542 33517
L12467 33498
L12429 33479
L12392 33442
L12373 33385
L12373 33348
L12392 33292
L12410 33273
" />
<path d="M12504 32936
L12767 32936
" />
<path d="M12354 33029
L12635 33123
L12635 32879
" />
<path d="M9634 30951
L9615 30970
L9559 30989
L9521 30989
L9465 30970
L9428 30932
L9409 30895
L9390 30820
L9390 30764
L9409 30689
L9428 30651
L9465 30614
L9521 30595
L9559 30595
L9615 30614
L9634 30632
" />
<path d="M9990 30595
L9803 30595
L9784 30782
L9803 30764
L9840 30745
L9934 30745
L9971 30764
L9990 30782
L10009 30820
L10009 30914
L9990 30951
L9971 30970
L9934 30989
L9840 30989
L9803 30970
L9784 30951
" />
<path d="M7650 38526
L7631 38545
L7575 38564
L7537 38564
L7481 38545
L7444 38508
L7425 38470
L7406 38395
L7406 38339
L7425 38264
L7444 38226
L7481 38189
L7537 38170
L7575 38170
L7631 38189
L7650 38208
" />
<path d="M7894 38170
L7968 38170
L8006 38189
L8043 38226
L8062 38301
L8062 38433
L8043 38508
L8006 38545
L7968 38564
L7894 38564
L7856 38545
L7819 38508
L7800 38433
L7800 38301
L7819 38226
L7856 38189
L7894 38170
" />
<path d="M8231 38564
L8231 38170
L8456 38564
L8456 38170
" />
<path d="M8850 38564
L8625 38564
" />
<path d="M8737 38564
L8737 38170
L8700 38226
L8662 38264
L8625 38283
" />
<path d="M18809 38678
L18809 38284
L18903 38284
L18959 38303
L18996 38340
L19015 38378
L19034 38453
L19034 38509
L19015 38584
L18996 38621
L18959 38659
L18903 38678
L18809 38678
" />
<path d="M19409 38678
L19184 38678
" />
<path d="M19296 38678
L19296 38284
L19259 38340
L19221 38378
L19184 38396
" />
<path d="M7809 31078
L7809 30684
L7903 30684
L7959 30703
L7996 30740
L8015 30778
L8034 30853
L8034 30909
L8015 30984
L7996 31021
L7959 31059
L7903 31078
L7809 31078
" />
<path d="M8184 30721
L8203 30703
L8240 30684
L8334 30684
L8371 30703
L8390 30721
L8409 30759
L8409 30796
L8390 30853
L8165 31078
L8409 31078
" />
<path d="M55508 11018
L55508 10830
" />
<path d="M55620 11055
L55227 10924
L55620 10793
" />
<path d="M55227 10587
L55227 10549
L55245 10512
L55264 10493
L55302 10474
L55377 10455
L55470 10455
L55545 10474
L55583 10493
L55601 10512
L55620 10549
L55620 10587
L55601 10624
L55583 10643
L55545 10662
L55470 10680
L55377 10680
L55302 10662
L55264 10643
L55245 10624
L55227 10587
" />
<path d="M47508 11018
L47508 10830
" />
<path d="M47620 11055
L47227 10924
L47620 10793
" />
<path d="M47395 10605
L47377 10643
L47358 10662
L47320 10680
L47302 10680
L47264 10662
L47245 10643
L47227 10605
L47227 10530
L47245 10493
L47264 10474
L47302 10455
L47320 10455
L47358 10474
L47377 10493
L47395 10530
L47395 10605
L47414 10643
L47433 10662
L47470 10680
L47545 10680
L47583 10662
L47601 10643
L47620 10605
L47620 10530
L47601 10493
L47583 10474
L47545 10455
L47470 10455
L47433 10474
L47414 10493
L47395 10530
" />
<path d="M54508 11018
L54508 10830
" />
<path d="M54620 11055
L54227 10924
L54620 10793
" />
<path d="M54620 10455
L54620 10680
" />
<path d="M54620 10568
L54227 10568
L54283 10605
L54320 10643
L54339 10680
" />
<path d="M46508 11018
L46508 10830
" />
<path d="M46620 11055
L46227 10924
L46620 10793
" />
<path d="M46620 10643
L46620 10568
L46601 10530
L46583 10512
L46526 10474
L46451 10455
L46302 10455
L46264 10474
L46245 10493
L46227 10530
L46227 10605
L46245 10643
L46264 10662
L46302 10680
L46395 10680
L46433 10662
L46451 10643
L46470 10605
L46470 10530
L46451 10493
L46433 10474
L46395 10455
" />
<path d="M53508 11018
L53508 10830
" />
<path d="M53620 11055
L53227 10924
L53620 10793
" />
<path d="M53264 10680
L53245 10662
L53227 10624
L53227 10530
L53245 10493
L53264 10474
L53302 10455
L53339 10455
L53395 10474
L53620 10699
L53620 10455
" />
<path d="M45508 10705
L45508 10518
" />
<path d="M45620 10743
L45227 10612
L45620 10480
" />
<path d="M45620 10143
L45620 10368
" />
<path d="M45620 10255
L45227 10255
L45283 10293
L45320 10330
L45339 10368
" />
<path d="M45227 9899
L45227 9862
L45245 9824
L45264 9805
L45302 9787
L45377 9768
L45470 9768
L45545 9787
L45583 9805
L45601 9824
L45620 9862
L45620 9899
L45601 9937
L45583 9955
L45545 9974
L45470 9993
L45377 9993
L45302 9974
L45264 9955
L45245 9937
L45227 9899
" />
<path d="M52508 11018
L52508 10830
" />
<path d="M52620 11055
L52227 10924
L52620 10793
" />
<path d="M52227 10699
L52227 10455
L52377 10587
L52377 10530
L52395 10493
L52414 10474
L52451 10455
L52545 10455
L52583 10474
L52601 10493
L52620 10530
L52620 10643
L52601 10680
L52583 10699
" />
<path d="M44508 10705
L44508 10518
" />
<path d="M44620 10743
L44227 10612
L44620 10480
" />
<path d="M44620 10143
L44620 10368
" />
<path d="M44620 10255
L44227 10255
L44283 10293
L44320 10330
L44339 10368
" />
<path d="M44620 9768
L44620 9993
" />
<path d="M44620 9880
L44227 9880
L44283 9918
L44320 9955
L44339 9993
" />
<path d="M51508 11018
L51508 10830
" />
<path d="M51620 11055
L51227 10924
L51620 10793
" />
<path d="M51358 10493
L51620 10493
" />
<path d="M51208 10587
L51489 10680
L51489 10437
" />
<path d="M43508 10705
L43508 10518
" />
<path d="M43620 10743
L43227 10612
L43620 10480
" />
<path d="M43620 10143
L43620 10368
" />
<path d="M43620 10255
L43227 10255
L43283 10293
L43320 10330
L43339 10368
" />
<path d="M43264 9993
L43245 9974
L43227 9937
L43227 9843
L43245 9805
L43264 9787
L43302 9768
L43339 9768
L43395 9787
L43620 10012
L43620 9768
" />
<path d="M50508 11018
L50508 10830
" />
<path d="M50620 11055
L50227 10924
L50620 10793
" />
<path d="M50227 10474
L50227 10662
L50414 10680
L50395 10662
L50377 10624
L50377 10530
L50395 10493
L50414 10474
L50451 10455
L50545 10455
L50583 10474
L50601 10493
L50620 10530
L50620 10624
L50601 10662
L50583 10680
" />
<path d="M42508 10705
L42508 10518
" />
<path d="M42620 10743
L42227 10612
L42620 10480
" />
<path d="M42620 10143
L42620 10368
" />
<path d="M42620 10255
L42227 10255
L42283 10293
L42320 10330
L42339 10368
" />
<path d="M42227 10012
L42227 9768
L42377 9899
L42377 9843
L42395 9805
L42414 9787
L42451 9768
L42545 9768
L42583 9787
L42601 9805
L42620 9843
L42620 9955
L42601 9993
L42583 10012
" />
<path d="M49508 11018
L49508 10830
" />
<path d="M49620 11055
L49227 10924
L49620 10793
" />
<path d="M49227 10493
L49227 10568
L49245 10605
L49264 10624
L49320 10662
L49395 10680
L49545 10680
L49583 10662
L49601 10643
L49620 10605
L49620 10530
L49601 10493
L49583 10474
L49545 10455
L49451 10455
L49414 10474
L49395 10493
L49377 10530
L49377 10605
L49395 10643
L49414 10662
L49451 10680
" />
<path d="M41508 10705
L41508 10518
" />
<path d="M41620 10743
L41227 10612
L41620 10480
" />
<path d="M41620 10143
L41620 10368
" />
<path d="M41620 10255
L41227 10255
L41283 10293
L41320 10330
L41339 10368
" />
<path d="M41358 9805
L41620 9805
" />
<path d="M41208 9899
L41489 9993
L41489 9749
" />
<path d="M39508 10705
L39508 10518
" />
<path d="M39620 10743
L39227 10612
L39620 10480
" />
<path d="M39620 10143
L39620 10368
" />
<path d="M39620 10255
L39227 10255
L39283 10293
L39320 10330
L39339 10368
" />
<path d="M39227 9805
L39227 9880
L39245 9918
L39264 9937
L39320 9974
L39395 9993
L39545 9993
L39583 9974
L39601 9955
L39620 9918
L39620 9843
L39601 9805
L39583 9787
L39545 9768
L39451 9768
L39414 9787
L39395 9805
L39377 9843
L39377 9918
L39395 9955
L39414 9974
L39451 9993
" />
<path d="M38508 10705
L38508 10518
" />
<path d="M38620 10743
L38227 10612
L38620 10480
" />
<path d="M38620 10143
L38620 10368
" />
<path d="M38620 10255
L38227 10255
L38283 10293
L38320 10330
L38339 10368
" />
<path d="M38227 10012
L38227 9749
L38620 9918
" />
<path d="M28051 10915
L28051 10728
" />
<path d="M28163 10953
L27770 10821
L28163 10690
" />
<path d="M28163 10559
L27770 10559
L27770 10465
L27789 10409
L27826 10371
L27864 10353
L27939 10334
L27995 10334
L28070 10353
L28107 10371
L28145 10409
L28163 10465
L28163 10559
" />
<path d="M27770 9978
L27770 10165
L27957 10184
L27939 10165
L27920 10128
L27920 10034
L27939 9996
L27957 9978
L27995 9959
L28089 9959
L28126 9978
L28145 9996
L28163 10034
L28163 10128
L28145 10165
L28126 10184
" />
<path d="M37508 10705
L37508 10518
" />
<path d="M37620 10743
L37227 10612
L37620 10480
" />
<path d="M37620 10143
L37620 10368
" />
<path d="M37620 10255
L37227 10255
L37283 10293
L37320 10330
L37339 10368
" />
<path d="M37395 9918
L37377 9955
L37358 9974
L37320 9993
L37302 9993
L37264 9974
L37245 9955
L37227 9918
L37227 9843
L37245 9805
L37264 9787
L37302 9768
L37320 9768
L37358 9787
L37377 9805
L37395 9843
L37395 9918
L37414 9955
L37433 9974
L37470 9993
L37545 9993
L37583 9974
L37601 9955
L37620 9918
L37620 9843
L37601 9805
L37583 9787
L37545 9768
L37470 9768
L37433 9787
L37414 9805
L37395 9843
" />
<path d="M27051 10915
L27051 10728
" />
<path d="M27163 10953
L26770 10821
L27163 10690
" />
<path d="M27163 10559
L26770 10559
L26770 10465
L26789 10409
L26826 10371
L26864 10353
L26939 10334
L26995 10334
L27070 10353
L27107 10371
L27145 10409
L27163 10465
L27163 10559
" />
<path d="M26770 9996
L26770 10071
L26789 10109
L26807 10128
L26864 10165
L26939 10184
L27089 10184
L27126 10165
L27145 10146
L27163 10109
L27163 10034
L27145 9996
L27126 9978
L27089 9959
L26995 9959
L26957 9978
L26939 9996
L26920 10034
L26920 10109
L26939 10146
L26957 10165
L26995 10184
" />
<path d="M36508 10705
L36508 10518
" />
<path d="M36620 10743
L36227 10612
L36620 10480
" />
<path d="M36620 10143
L36620 10368
" />
<path d="M36620 10255
L36227 10255
L36283 10293
L36320 10330
L36339 10368
" />
<path d="M36620 9955
L36620 9880
L36601 9843
L36583 9824
L36526 9787
L36451 9768
L36302 9768
L36264 9787
L36245 9805
L36227 9843
L36227 9918
L36245 9955
L36264 9974
L36302 9993
L36395 9993
L36433 9974
L36451 9955
L36470 9918
L36470 9843
L36451 9805
L36433 9787
L36395 9768
" />
<path d="M26051 10915
L26051 10728
" />
<path d="M26163 10953
L25770 10821
L26163 10690
" />
<path d="M26163 10559
L25770 10559
L25770 10465
L25789 10409
L25826 10371
L25864 10353
L25939 10334
L25995 10334
L26070 10353
L26107 10371
L26145 10409
L26163 10465
L26163 10559
" />
<path d="M25770 10203
L25770 9940
L26163 10109
" />
<path d="M24163 10924
L23770 10924
L23770 10831
L23789 10774
L23826 10737
L23864 10718
L23939 10699
L23995 10699
L24070 10718
L24107 10737
L24145 10774
L24163 10831
L24163 10924
" />
<path d="M23957 10531
L23957 10399
" />
<path d="M24163 10343
L24163 10531
L23770 10531
L23770 10343
" />
<path d="M24163 10174
L23770 10174
L24163 9950
L23770 9950
" />
<path d="M25163 11074
L24770 11074
" />
<path d="M24770 10812
L24770 10737
L24789 10699
L24826 10662
L24901 10643
L25032 10643
L25107 10662
L25145 10699
L25163 10737
L25163 10812
L25145 10849
L25107 10887
L25032 10906
L24901 10906
L24826 10887
L24789 10849
L24770 10812
" />
<path d="M24751 10193
L25257 10531
" />
<path d="M25163 10062
L24770 10062
L25051 9931
L24770 9800
L25163 9800
" />
<path d="M24702 10156
L24702 9706
" />
<path d="M23163 10512
L22976 10643
" />
<path d="M23163 10737
L22770 10737
L22770 10587
L22789 10549
L22807 10531
L22845 10512
L22901 10512
L22939 10531
L22957 10549
L22976 10587
L22976 10737
" />
<path d="M23163 10343
L22770 10343
L22770 10249
L22789 10193
L22826 10156
L22864 10137
L22939 10118
L22995 10118
L23070 10137
L23107 10156
L23145 10193
L23163 10249
L23163 10343
" />
<path d="M21770 10803
L22163 10709
L21882 10634
L22163 10559
L21770 10465
" />
<path d="M22163 10090
L21976 10221
" />
<path d="M22163 10315
L21770 10315
L21770 10165
L21789 10128
L21807 10109
L21845 10090
L21901 10090
L21939 10109
L21957 10128
L21976 10165
L21976 10315
" />
<path d="M33051 10915
L33051 10728
" />
<path d="M33163 10953
L32770 10821
L33163 10690
" />
<path d="M33163 10559
L32770 10559
L32770 10465
L32789 10409
L32826 10371
L32864 10353
L32939 10334
L32995 10334
L33070 10353
L33107 10371
L33145 10409
L33163 10465
L33163 10559
" />
<path d="M32770 10090
L32770 10053
L32789 10015
L32807 9996
L32845 9978
L32920 9959
L33014 9959
L33089 9978
L33126 9996
L33145 10015
L33163 10053
L33163 10090
L33145 10128
L33126 10146
L33089 10165
L33014 10184
L32920 10184
L32845 10165
L32807 10146
L32789 10128
L32770 10090
" />
<path d="M32051 10915
L32051 10728
" />
<path d="M32163 10953
L31770 10821
L32163 10690
" />
<path d="M32163 10559
L31770 10559
L31770 10465
L31789 10409
L31826 10371
L31864 10353
L31939 10334
L31995 10334
L32070 10353
L32107 10371
L32145 10409
L32163 10465
L32163 10559
" />
<path d="M32163 9959
L32163 10184
" />
<path d="M32163 10071
L31770 10071
L31826 10109
L31864 10146
L31882 10184
" />
<path d="M31051 10915
L31051 10728
" />
<path d="M31163 10953
L30770 10821
L31163 10690
" />
<path d="M31163 10559
L30770 10559
L30770 10465
L30789 10409
L30826 10371
L30864 10353
L30939 10334
L30995 10334
L31070 10353
L31107 10371
L31145 10409
L31163 10465
L31163 10559
" />
<path d="M30807 10184
L30789 10165
L30770 10128
L30770 10034
L30789 9996
L30807 9978
L30845 9959
L30882 9959
L30939 9978
L31163 10203
L31163 9959
" />
<path d="M30051 10915
L30051 10728
" />
<path d="M30163 10953
L29770 10821
L30163 10690
" />
<path d="M30163 10559
L29770 10559
L29770 10465
L29789 10409
L29826 10371
L29864 10353
L29939 10334
L29995 10334
L30070 10353
L30107 10371
L30145 10409
L30163 10465
L30163 10559
" />
<path d="M29770 10203
L29770 9959
L29920 10090
L29920 10034
L29939 9996
L29957 9978
L29995 9959
L30089 9959
L30126 9978
L30145 9996
L30163 10034
L30163 10146
L30145 10184
L30126 10203
" />
<path d="M6149 35624
L5756 35624
L5756 35474
L5774 35437
L5793 35418
L5831 35399
L5887 35399
L5924 35418
L5943 35437
L5962 35474
L5962 35624
" />
<path d="M5756 35268
L6149 35174
L5868 35099
L6149 35025
L5756 34931
" />
<path d="M6149 34556
L5962 34687
" />
<path d="M6149 34781
L5756 34781
L5756 34631
L5774 34593
L5793 34575
L5831 34556
L5887 34556
L5924 34575
L5943 34593
L5962 34631
L5962 34781
" />
<path d="M16840 37390
L16821 37409
L16765 37428
L16728 37428
L16672 37409
L16634 37371
L16615 37334
L16597 37259
L16597 37203
L16615 37128
L16634 37090
L16672 37053
L16728 37034
L16765 37034
L16821 37053
L16840 37071
" />
<path d="M17196 37428
L17009 37428
L17009 37034
" />
<path d="M17328 37428
L17328 37034
" />
<path d="M17553 37428
L17384 37203
" />
<path d="M17553 37034
L17328 37259
" />
<path d="M17628 37465
L17928 37465
" />
<path d="M18003 37409
L18059 37428
L18153 37428
L18190 37409
L18209 37390
L18228 37353
L18228 37315
L18209 37278
L18190 37259
L18153 37240
L18078 37221
L18040 37203
L18021 37184
L18003 37146
L18003 37109
L18021 37071
L18040 37053
L18078 37034
L18171 37034
L18228 37053
" />
<path d="M18396 37221
L18528 37221
" />
<path d="M18584 37428
L18396 37428
L18396 37034
L18584 37034
" />
<path d="M18940 37428
L18752 37428
L18752 37034
" />
<path d="M38834 35701
L38834 36020
L38853 36057
L38871 36076
L38909 36095
L38984 36095
L39021 36076
L39040 36057
L39059 36020
L39059 35701
" />
<path d="M39209 35701
L39453 35701
L39321 35851
L39378 35851
L39415 35870
L39434 35889
L39453 35926
L39453 36020
L39434 36057
L39415 36076
L39378 36095
L39265 36095
L39228 36076
L39209 36057
" />
<path d="M39621 36095
L39621 35701
L39771 35701
L39809 35720
L39828 35739
L39846 35776
L39846 35832
L39828 35870
L39809 35889
L39771 35907
L39621 35907
" />
<path d="M39996 35982
L40184 35982
" />
<path d="M39959 36095
L40090 35701
L40221 36095
" />
<path d="M29284 22121
L29603 22121
L29640 22102
L29659 22084
L29678 22046
L29678 21971
L29659 21934
L29640 21915
L29603 21896
L29284 21896
" />
<path d="M29284 21746
L29284 21502
L29434 21634
L29434 21577
L29453 21540
L29471 21521
L29509 21502
L29603 21502
L29640 21521
L29659 21540
L29678 21577
L29678 21690
L29659 21727
L29640 21746
" />
<path d="M29640 21109
L29659 21128
L29678 21184
L29678 21221
L29659 21278
L29621 21315
L29584 21334
L29509 21353
L29453 21353
L29378 21334
L29340 21315
L29303 21278
L29284 21221
L29284 21184
L29303 21128
L29321 21109
" />
<path d="M29678 20753
L29678 20940
L29284 20940
" />
<path d="M29678 20621
L29284 20621
" />
<path d="M29678 20396
L29453 20565
" />
<path d="M29284 20396
L29509 20621
" />
<path d="M29265 19946
L29771 20284
" />
<path d="M29678 19590
L29490 19721
" />
<path d="M29678 19815
L29284 19815
L29284 19665
L29303 19628
L29321 19609
L29359 19590
L29415 19590
L29453 19609
L29471 19628
L29490 19665
L29490 19815
" />
<path d="M29678 19422
L29284 19422
L29284 19328
L29303 19272
L29340 19234
L29378 19215
L29453 19197
L29509 19197
L29584 19215
L29621 19234
L29659 19272
L29678 19328
L29678 19422
" />
<path d="M29490 18953
L29678 18953
" />
<path d="M29284 19084
L29490 18953
L29284 18822
" />
<path d="M38806 26201
L38806 26520
L38825 26557
L38843 26576
L38881 26595
L38956 26595
L38993 26576
L39012 26557
L39031 26520
L39031 26201
" />
<path d="M39181 26201
L39425 26201
L39293 26351
L39350 26351
L39387 26370
L39406 26389
L39425 26426
L39425 26520
L39406 26557
L39387 26576
L39350 26595
L39237 26595
L39200 26576
L39181 26557
" />
<path d="M39593 26595
L39593 26201
L39743 26201
L39781 26220
L39799 26239
L39818 26276
L39818 26332
L39799 26370
L39781 26389
L39743 26407
L39593 26407
" />
<path d="M40118 26389
L40174 26407
L40193 26426
L40212 26464
L40212 26520
L40193 26557
L40174 26576
L40137 26595
L39987 26595
L39987 26201
L40118 26201
L40156 26220
L40174 26239
L40193 26276
L40193 26314
L40174 26351
L40156 26370
L40118 26389
L39987 26389
" />
<path d="M64640 27845
L64509 27657
" />
<path d="M64415 27845
L64415 27451
L64565 27451
L64603 27470
L64621 27489
L64640 27526
L64640 27582
L64621 27620
L64603 27639
L64565 27657
L64415 27657
" />
<path d="M64771 27451
L65034 27845
" />
<path d="M65034 27451
L64771 27845
" />
<path d="M65465 27432
L65128 27939
" />
<path d="M65540 27451
L65765 27451
" />
<path d="M65653 27845
L65653 27451
" />
<path d="M65859 27451
L66121 27845
" />
<path d="M66121 27451
L65859 27845
" />
<path d="M42806 24201
L42806 24520
L42825 24557
L42843 24576
L42881 24595
L42956 24595
L42993 24576
L43012 24557
L43031 24520
L43031 24201
" />
<path d="M43387 24332
L43387 24595
" />
<path d="M43293 24182
L43200 24464
L43443 24464
" />
<path d="M43593 24595
L43593 24201
L43743 24201
L43781 24220
L43799 24239
L43818 24276
L43818 24332
L43799 24370
L43781 24389
L43743 24407
L43593 24407
" />
<path d="M44212 24557
L44193 24576
L44137 24595
L44099 24595
L44043 24576
L44006 24539
L43987 24501
L43968 24426
L43968 24370
L43987 24295
L44006 24257
L44043 24220
L44099 24201
L44137 24201
L44193 24220
L44212 24239
" />
<path d="M51834 37201
L51834 37520
L51853 37557
L51871 37576
L51909 37595
L51984 37595
L52021 37576
L52040 37557
L52059 37520
L52059 37201
" />
<path d="M52415 37332
L52415 37595
" />
<path d="M52321 37182
L52228 37464
L52471 37464
" />
<path d="M52621 37595
L52621 37201
L52771 37201
L52809 37220
L52828 37239
L52846 37276
L52846 37332
L52828 37370
L52809 37389
L52771 37407
L52621 37407
" />
<path d="M52996 37482
L53184 37482
" />
<path d="M52959 37595
L53090 37201
L53221 37595
" />
<path d="M51806 27701
L51806 28020
L51825 28057
L51843 28076
L51881 28095
L51956 28095
L51993 28076
L52012 28057
L52031 28020
L52031 27701
" />
<path d="M52387 27832
L52387 28095
" />
<path d="M52293 27682
L52200 27964
L52443 27964
" />
<path d="M52593 28095
L52593 27701
L52743 27701
L52781 27720
L52799 27739
L52818 27776
L52818 27832
L52799 27870
L52781 27889
L52743 27907
L52593 27907
" />
<path d="M53118 27889
L53174 27907
L53193 27926
L53212 27964
L53212 28020
L53193 28057
L53174 28076
L53137 28095
L52987 28095
L52987 27701
L53118 27701
L53156 27720
L53174 27739
L53193 27776
L53193 27814
L53174 27851
L53156 27870
L53118 27889
L52987 27889
" />
<path d="M58450 10885
L58412 10867
L58356 10867
L58300 10885
L58262 10923
L58243 10960
L58225 11035
L58225 11092
L58243 11167
L58262 11204
L58300 11242
L58356 11260
L58393 11260
L58450 11242
L58468 11223
L58468 11092
L58393 11092
" />
<path d="M58637 11260
L58637 10867
L58862 11260
L58862 10867
" />
<path d="M59049 11260
L59049 10867
L59143 10867
L59199 10885
L59237 10923
L59256 10960
L59274 11035
L59274 11092
L59256 11167
L59237 11204
L59199 11242
L59143 11260
L59049 11260
" />
<path d="M12684 19678
L12553 19490
" />
<path d="M12459 19678
L12459 19284
L12609 19284
L12646 19303
L12665 19321
L12684 19359
L12684 19415
L12665 19453
L12646 19471
L12609 19490
L12459 19490
" />
<path d="M13059 19678
L12834 19678
" />
<path d="M12946 19678
L12946 19284
L12909 19340
L12871 19378
L12834 19396
" />
<path d="M13847 28534
L13659 28665
" />
<path d="M13847 28759
L13453 28759
L13453 28609
L13472 28571
L13491 28552
L13528 28534
L13584 28534
L13622 28552
L13641 28571
L13659 28609
L13659 28759
" />
<path d="M13491 28384
L13472 28365
L13453 28327
L13453 28234
L13472 28196
L13491 28177
L13528 28159
L13566 28159
L13622 28177
L13847 28402
L13847 28159
" />
<path d="M13597 22784
L13409 22915
" />
<path d="M13597 23009
L13203 23009
L13203 22859
L13222 22821
L13241 22802
L13278 22784
L13334 22784
L13372 22802
L13391 22821
L13409 22859
L13409 23009
" />
<path d="M13203 22652
L13203 22409
L13353 22540
L13353 22484
L13372 22446
L13391 22427
L13428 22409
L13522 22409
L13559 22427
L13578 22446
L13597 22484
L13597 22596
L13578 22634
L13559 22652
" />
<path d="M12934 27378
L12803 27190
" />
<path d="M12709 27378
L12709 26984
L12859 26984
L12896 27003
L12915 27021
L12934 27059
L12934 27115
L12915 27153
L12896 27171
L12859 27190
L12709 27190
" />
<path d="M13271 27115
L13271 27378
" />
<path d="M13178 26965
L13084 27246
L13328 27246
" />
<path d="M55678 16165
L55490 16296
" />
<path d="M55678 16390
L55284 16390
L55284 16240
L55303 16203
L55321 16184
L55359 16165
L55415 16165
L55453 16184
L55471 16203
L55490 16240
L55490 16390
" />
<path d="M55284 15809
L55284 15996
L55471 16015
L55453 15996
L55434 15959
L55434 15865
L55453 15828
L55471 15809
L55509 15790
L55603 15790
L55640 15809
L55659 15828
L55678 15865
L55678 15959
L55659 15996
L55640 16015
" />
<path d="M47678 16065
L47490 16196
" />
<path d="M47678 16290
L47284 16290
L47284 16140
L47303 16103
L47321 16084
L47359 16065
L47415 16065
L47453 16084
L47471 16103
L47490 16140
L47490 16290
" />
<path d="M47284 15728
L47284 15803
L47303 15840
L47321 15859
L47378 15896
L47453 15915
L47603 15915
L47640 15896
L47659 15878
L47678 15840
L47678 15765
L47659 15728
L47640 15709
L47603 15690
L47509 15690
L47471 15709
L47453 15728
L47434 15765
L47434 15840
L47453 15878
L47471 15896
L47509 15915
" />
<path d="M54678 16165
L54490 16296
" />
<path d="M54678 16390
L54284 16390
L54284 16240
L54303 16203
L54321 16184
L54359 16165
L54415 16165
L54453 16184
L54471 16203
L54490 16240
L54490 16390
" />
<path d="M54284 16034
L54284 15771
L54678 15940
" />
<path d="M46678 16065
L46490 16196
" />
<path d="M46678 16290
L46284 16290
L46284 16140
L46303 16103
L46321 16084
L46359 16065
L46415 16065
L46453 16084
L46471 16103
L46490 16140
L46490 16290
" />
<path d="M46453 15840
L46434 15878
L46415 15896
L46378 15915
L46359 15915
L46321 15896
L46303 15878
L46284 15840
L46284 15765
L46303 15728
L46321 15709
L46359 15690
L46378 15690
L46415 15709
L46434 15728
L46453 15765
L46453 15840
L46471 15878
L46490 15896
L46528 15915
L46603 15915
L46640 15896
L46659 15878
L46678 15840
L46678 15765
L46659 15728
L46640 15709
L46603 15690
L46528 15690
L46490 15709
L46471 15728
L46453 15765
" />
<path d="M53678 16165
L53490 16296
" />
<path d="M53678 16390
L53284 16390
L53284 16240
L53303 16203
L53321 16184
L53359 16165
L53415 16165
L53453 16184
L53471 16203
L53490 16240
L53490 16390
" />
<path d="M53678 15978
L53678 15903
L53659 15865
L53640 15846
L53584 15809
L53509 15790
L53359 15790
L53321 15809
L53303 15828
L53284 15865
L53284 15940
L53303 15978
L53321 15996
L53359 16015
L53453 16015
L53490 15996
L53509 15978
L53528 15940
L53528 15865
L53509 15828
L53490 15809
L53453 15790
" />
<path d="M45678 16453
L45490 16584
" />
<path d="M45678 16678
L45284 16678
L45284 16528
L45303 16490
L45321 16471
L45359 16453
L45415 16453
L45453 16471
L45471 16490
L45490 16528
L45490 16678
" />
<path d="M45678 16078
L45678 16303
" />
<path d="M45678 16190
L45284 16190
L45340 16228
L45378 16265
L45396 16303
" />
<path d="M45284 15834
L45284 15796
L45303 15759
L45321 15740
L45359 15721
L45434 15703
L45528 15703
L45603 15721
L45640 15740
L45659 15759
L45678 15796
L45678 15834
L45659 15871
L45640 15890
L45603 15909
L45528 15928
L45434 15928
L45359 15909
L45321 15890
L45303 15871
L45284 15834
" />
<path d="M52678 16453
L52490 16584
" />
<path d="M52678 16678
L52284 16678
L52284 16528
L52303 16490
L52321 16471
L52359 16453
L52415 16453
L52453 16471
L52471 16490
L52490 16528
L52490 16678
" />
<path d="M52678 16078
L52678 16303
" />
<path d="M52678 16190
L52284 16190
L52340 16228
L52378 16265
L52396 16303
" />
<path d="M52678 15703
L52678 15928
" />
<path d="M52678 15815
L52284 15815
L52340 15853
L52378 15890
L52396 15928
" />
<path d="M44678 16453
L44490 16584
" />
<path d="M44678 16678
L44284 16678
L44284 16528
L44303 16490
L44321 16471
L44359 16453
L44415 16453
L44453 16471
L44471 16490
L44490 16528
L44490 16678
" />
<path d="M44678 16078
L44678 16303
" />
<path d="M44678 16190
L44284 16190
L44340 16228
L44378 16265
L44396 16303
" />
<path d="M44321 15928
L44303 15909
L44284 15871
L44284 15778
L44303 15740
L44321 15721
L44359 15703
L44396 15703
L44453 15721
L44678 15946
L44678 15703
" />
<path d="M51678 16453
L51490 16584
" />
<path d="M51678 16678
L51284 16678
L51284 16528
L51303 16490
L51321 16471
L51359 16453
L51415 16453
L51453 16471
L51471 16490
L51490 16528
L51490 16678
" />
<path d="M51678 16078
L51678 16303
" />
<path d="M51678 16190
L51284 16190
L51340 16228
L51378 16265
L51396 16303
" />
<path d="M51284 15946
L51284 15703
L51434 15834
L51434 15778
L51453 15740
L51471 15721
L51509 15703
L51603 15703
L51640 15721
L51659 15740
L51678 15778
L51678 15890
L51659 15928
L51640 15946
" />
<path d="M43678 16453
L43490 16584
" />
<path d="M43678 16678
L43284 16678
L43284 16528
L43303 16490
L43321 16471
L43359 16453
L43415 16453
L43453 16471
L43471 16490
L43490 16528
L43490 16678
" />
<path d="M43678 16078
L43678 16303
" />
<path d="M43678 16190
L43284 16190
L43340 16228
L43378 16265
L43396 16303
" />
<path d="M43415 15740
L43678 15740
" />
<path d="M43265 15834
L43546 15928
L43546 15684
" />
<path d="M50678 16453
L50490 16584
" />
<path d="M50678 16678
L50284 16678
L50284 16528
L50303 16490
L50321 16471
L50359 16453
L50415 16453
L50453 16471
L50471 16490
L50490 16528
L50490 16678
" />
<path d="M50678 16078
L50678 16303
" />
<path d="M50678 16190
L50284 16190
L50340 16228
L50378 16265
L50396 16303
" />
<path d="M50284 15721
L50284 15909
L50471 15928
L50453 15909
L50434 15871
L50434 15778
L50453 15740
L50471 15721
L50509 15703
L50603 15703
L50640 15721
L50659 15740
L50678 15778
L50678 15871
L50659 15909
L50640 15928
" />
<path d="M42678 16453
L42490 16584
" />
<path d="M42678 16678
L42284 16678
L42284 16528
L42303 16490
L42321 16471
L42359 16453
L42415 16453
L42453 16471
L42471 16490
L42490 16528
L42490 16678
" />
<path d="M42678 16078
L42678 16303
" />
<path d="M42678 16190
L42284 16190
L42340 16228
L42378 16265
L42396 16303
" />
<path d="M42284 15740
L42284 15815
L42303 15853
L42321 15871
L42378 15909
L42453 15928
L42603 15928
L42640 15909
L42659 15890
L42678 15853
L42678 15778
L42659 15740
L42640 15721
L42603 15703
L42509 15703
L42471 15721
L42453 15740
L42434 15778
L42434 15853
L42453 15890
L42471 15909
L42509 15928
" />
<path d="M49778 16453
L49590 16584
" />
<path d="M49778 16678
L49384 16678
L49384 16528
L49403 16490
L49421 16471
L49459 16453
L49515 16453
L49553 16471
L49571 16490
L49590 16528
L49590 16678
" />
<path d="M49778 16078
L49778 16303
" />
<path d="M49778 16190
L49384 16190
L49440 16228
L49478 16265
L49496 16303
" />
<path d="M49384 15946
L49384 15684
L49778 15853
" />
<path d="M41678 16453
L41490 16584
" />
<path d="M41678 16678
L41284 16678
L41284 16528
L41303 16490
L41321 16471
L41359 16453
L41415 16453
L41453 16471
L41471 16490
L41490 16528
L41490 16678
" />
<path d="M41678 16078
L41678 16303
" />
<path d="M41678 16190
L41284 16190
L41340 16228
L41378 16265
L41396 16303
" />
<path d="M41453 15853
L41434 15890
L41415 15909
L41378 15928
L41359 15928
L41321 15909
L41303 15890
L41284 15853
L41284 15778
L41303 15740
L41321 15721
L41359 15703
L41378 15703
L41415 15721
L41434 15740
L41453 15778
L41453 15853
L41471 15890
L41490 15909
L41528 15928
L41603 15928
L41640 15909
L41659 15890
L41678 15853
L41678 15778
L41659 15740
L41640 15721
L41603 15703
L41528 15703
L41490 15721
L41471 15740
L41453 15778
" />
<path d="M48678 16453
L48490 16584
" />
<path d="M48678 16678
L48284 16678
L48284 16528
L48303 16490
L48321 16471
L48359 16453
L48415 16453
L48453 16471
L48471 16490
L48490 16528
L48490 16678
" />
<path d="M48678 16078
L48678 16303
" />
<path d="M48678 16190
L48284 16190
L48340 16228
L48378 16265
L48396 16303
" />
<path d="M48678 15890
L48678 15815
L48659 15778
L48640 15759
L48584 15721
L48509 15703
L48359 15703
L48321 15721
L48303 15740
L48284 15778
L48284 15853
L48303 15890
L48321 15909
L48359 15928
L48453 15928
L48490 15909
L48509 15890
L48528 15853
L48528 15778
L48509 15740
L48490 15721
L48453 15703
" />
<path d="M40678 16453
L40490 16584
" />
<path d="M40678 16678
L40284 16678
L40284 16528
L40303 16490
L40321 16471
L40359 16453
L40415 16453
L40453 16471
L40471 16490
L40490 16528
L40490 16678
" />
<path d="M40321 16303
L40303 16284
L40284 16246
L40284 16153
L40303 16115
L40321 16096
L40359 16078
L40396 16078
L40453 16096
L40678 16321
L40678 16078
" />
<path d="M40284 15834
L40284 15796
L40303 15759
L40321 15740
L40359 15721
L40434 15703
L40528 15703
L40603 15721
L40640 15740
L40659 15759
L40678 15796
L40678 15834
L40659 15871
L40640 15890
L40603 15909
L40528 15928
L40434 15928
L40359 15909
L40321 15890
L40303 15871
L40284 15834
" />
<path d="M39678 16453
L39490 16584
" />
<path d="M39678 16678
L39284 16678
L39284 16528
L39303 16490
L39321 16471
L39359 16453
L39415 16453
L39453 16471
L39471 16490
L39490 16528
L39490 16678
" />
<path d="M39321 16303
L39303 16284
L39284 16246
L39284 16153
L39303 16115
L39321 16096
L39359 16078
L39396 16078
L39453 16096
L39678 16321
L39678 16078
" />
<path d="M39678 15703
L39678 15928
" />
<path d="M39678 15815
L39284 15815
L39340 15853
L39378 15890
L39396 15928
" />
<path d="M29178 16453
L28990 16584
" />
<path d="M29178 16678
L28784 16678
L28784 16528
L28803 16490
L28821 16471
L28859 16453
L28915 16453
L28953 16471
L28971 16490
L28990 16528
L28990 16678
" />
<path d="M28821 16303
L28803 16284
L28784 16246
L28784 16153
L28803 16115
L28821 16096
L28859 16078
L28896 16078
L28953 16096
L29178 16321
L29178 16078
" />
<path d="M28821 15928
L28803 15909
L28784 15871
L28784 15778
L28803 15740
L28821 15721
L28859 15703
L28896 15703
L28953 15721
L29178 15946
L29178 15703
" />
<path d="M38578 16453
L38390 16584
" />
<path d="M38578 16678
L38184 16678
L38184 16528
L38203 16490
L38221 16471
L38259 16453
L38315 16453
L38353 16471
L38371 16490
L38390 16528
L38390 16678
" />
<path d="M38221 16303
L38203 16284
L38184 16246
L38184 16153
L38203 16115
L38221 16096
L38259 16078
L38296 16078
L38353 16096
L38578 16321
L38578 16078
" />
<path d="M38184 15946
L38184 15703
L38334 15834
L38334 15778
L38353 15740
L38371 15721
L38409 15703
L38503 15703
L38540 15721
L38559 15740
L38578 15778
L38578 15890
L38559 15928
L38540 15946
" />
<path d="M28178 16453
L27990 16584
" />
<path d="M28178 16678
L27784 16678
L27784 16528
L27803 16490
L27821 16471
L27859 16453
L27915 16453
L27953 16471
L27971 16490
L27990 16528
L27990 16678
" />
<path d="M27821 16303
L27803 16284
L27784 16246
L27784 16153
L27803 16115
L27821 16096
L27859 16078
L27896 16078
L27953 16096
L28178 16321
L28178 16078
" />
<path d="M27915 15740
L28178 15740
" />
<path d="M27765 15834
L28046 15928
L28046 15684
" />
<path d="M37578 16453
L37390 16584
" />
<path d="M37578 16678
L37184 16678
L37184 16528
L37203 16490
L37221 16471
L37259 16453
L37315 16453
L37353 16471
L37371 16490
L37390 16528
L37390 16678
" />
<path d="M37221 16303
L37203 16284
L37184 16246
L37184 16153
L37203 16115
L37221 16096
L37259 16078
L37296 16078
L37353 16096
L37578 16321
L37578 16078
" />
<path d="M37184 15721
L37184 15909
L37371 15928
L37353 15909
L37334 15871
L37334 15778
L37353 15740
L37371 15721
L37409 15703
L37503 15703
L37540 15721
L37559 15740
L37578 15778
L37578 15871
L37559 15909
L37540 15928
" />
<path d="M27178 16453
L26990 16584
" />
<path d="M27178 16678
L26784 16678
L26784 16528
L26803 16490
L26821 16471
L26859 16453
L26915 16453
L26953 16471
L26971 16490
L26990 16528
L26990 16678
" />
<path d="M26821 16303
L26803 16284
L26784 16246
L26784 16153
L26803 16115
L26821 16096
L26859 16078
L26896 16078
L26953 16096
L27178 16321
L27178 16078
" />
<path d="M26784 15740
L26784 15815
L26803 15853
L26821 15871
L26878 15909
L26953 15928
L27103 15928
L27140 15909
L27159 15890
L27178 15853
L27178 15778
L27159 15740
L27140 15721
L27103 15703
L27009 15703
L26971 15721
L26953 15740
L26934 15778
L26934 15853
L26953 15890
L26971 15909
L27009 15928
" />
<path d="M36678 16453
L36490 16584
" />
<path d="M36678 16678
L36284 16678
L36284 16528
L36303 16490
L36321 16471
L36359 16453
L36415 16453
L36453 16471
L36471 16490
L36490 16528
L36490 16678
" />
<path d="M36321 16303
L36303 16284
L36284 16246
L36284 16153
L36303 16115
L36321 16096
L36359 16078
L36396 16078
L36453 16096
L36678 16321
L36678 16078
" />
<path d="M36284 15946
L36284 15684
L36678 15853
" />
<path d="M26178 16453
L25990 16584
" />
<path d="M26178 16678
L25784 16678
L25784 16528
L25803 16490
L25821 16471
L25859 16453
L25915 16453
L25953 16471
L25971 16490
L25990 16528
L25990 16678
" />
<path d="M25821 16303
L25803 16284
L25784 16246
L25784 16153
L25803 16115
L25821 16096
L25859 16078
L25896 16078
L25953 16096
L26178 16321
L26178 16078
" />
<path d="M25953 15853
L25934 15890
L25915 15909
L25878 15928
L25859 15928
L25821 15909
L25803 15890
L25784 15853
L25784 15778
L25803 15740
L25821 15721
L25859 15703
L25878 15703
L25915 15721
L25934 15740
L25953 15778
L25953 15853
L25971 15890
L25990 15909
L26028 15928
L26103 15928
L26140 15909
L26159 15890
L26178 15853
L26178 15778
L26159 15740
L26140 15721
L26103 15703
L26028 15703
L25990 15721
L25971 15740
L25953 15778
" />
<path d="M24178 16453
L23990 16584
" />
<path d="M24178 16678
L23784 16678
L23784 16528
L23803 16490
L23821 16471
L23859 16453
L23915 16453
L23953 16471
L23971 16490
L23990 16528
L23990 16678
" />
<path d="M23821 16303
L23803 16284
L23784 16246
L23784 16153
L23803 16115
L23821 16096
L23859 16078
L23896 16078
L23953 16096
L24178 16321
L24178 16078
" />
<path d="M24178 15890
L24178 15815
L24159 15778
L24140 15759
L24084 15721
L24009 15703
L23859 15703
L23821 15721
L23803 15740
L23784 15778
L23784 15853
L23803 15890
L23821 15909
L23859 15928
L23953 15928
L23990 15909
L24009 15890
L24028 15853
L24028 15778
L24009 15740
L23990 15721
L23953 15703
" />
<path d="M25178 16453
L24990 16584
" />
<path d="M25178 16678
L24784 16678
L24784 16528
L24803 16490
L24821 16471
L24859 16453
L24915 16453
L24953 16471
L24971 16490
L24990 16528
L24990 16678
" />
<path d="M24784 16321
L24784 16078
L24934 16209
L24934 16153
L24953 16115
L24971 16096
L25009 16078
L25103 16078
L25140 16096
L25159 16115
L25178 16153
L25178 16265
L25159 16303
L25140 16321
" />
<path d="M24784 15834
L24784 15796
L24803 15759
L24821 15740
L24859 15721
L24934 15703
L25028 15703
L25103 15721
L25140 15740
L25159 15759
L25178 15796
L25178 15834
L25159 15871
L25140 15890
L25103 15909
L25028 15928
L24934 15928
L24859 15909
L24821 15890
L24803 15871
L24784 15834
" />
<path d="M23178 16453
L22990 16584
" />
<path d="M23178 16678
L22784 16678
L22784 16528
L22803 16490
L22821 16471
L22859 16453
L22915 16453
L22953 16471
L22971 16490
L22990 16528
L22990 16678
" />
<path d="M22784 16321
L22784 16078
L22934 16209
L22934 16153
L22953 16115
L22971 16096
L23009 16078
L23103 16078
L23140 16096
L23159 16115
L23178 16153
L23178 16265
L23159 16303
L23140 16321
" />
<path d="M23178 15703
L23178 15928
" />
<path d="M23178 15815
L22784 15815
L22840 15853
L22878 15890
L22896 15928
" />
<path d="M22178 16453
L21990 16584
" />
<path d="M22178 16678
L21784 16678
L21784 16528
L21803 16490
L21821 16471
L21859 16453
L21915 16453
L21953 16471
L21971 16490
L21990 16528
L21990 16678
" />
<path d="M21784 16321
L21784 16078
L21934 16209
L21934 16153
L21953 16115
L21971 16096
L22009 16078
L22103 16078
L22140 16096
L22159 16115
L22178 16153
L22178 16265
L22159 16303
L22140 16321
" />
<path d="M21821 15928
L21803 15909
L21784 15871
L21784 15778
L21803 15740
L21821 15721
L21859 15703
L21896 15703
L21953 15721
L22178 15946
L22178 15703
" />
<path d="M33178 16453
L32990 16584
" />
<path d="M33178 16678
L32784 16678
L32784 16528
L32803 16490
L32821 16471
L32859 16453
L32915 16453
L32953 16471
L32971 16490
L32990 16528
L32990 16678
" />
<path d="M32784 16321
L32784 16078
L32934 16209
L32934 16153
L32953 16115
L32971 16096
L33009 16078
L33103 16078
L33140 16096
L33159 16115
L33178 16153
L33178 16265
L33159 16303
L33140 16321
" />
<path d="M32784 15946
L32784 15703
L32934 15834
L32934 15778
L32953 15740
L32971 15721
L33009 15703
L33103 15703
L33140 15721
L33159 15740
L33178 15778
L33178 15890
L33159 15928
L33140 15946
" />
<path d="M32178 16453
L31990 16584
" />
<path d="M32178 16678
L31784 16678
L31784 16528
L31803 16490
L31821 16471
L31859 16453
L31915 16453
L31953 16471
L31971 16490
L31990 16528
L31990 16678
" />
<path d="M31784 16321
L31784 16078
L31934 16209
L31934 16153
L31953 16115
L31971 16096
L32009 16078
L32103 16078
L32140 16096
L32159 16115
L32178 16153
L32178 16265
L32159 16303
L32140 16321
" />
<path d="M31915 15740
L32178 15740
" />
<path d="M31765 15834
L32046 15928
L32046 15684
" />
<path d="M31178 16453
L30990 16584
" />
<path d="M31178 16678
L30784 16678
L30784 16528
L30803 16490
L30821 16471
L30859 16453
L30915 16453
L30953 16471
L30971 16490
L30990 16528
L30990 16678
" />
<path d="M30784 16321
L30784 16078
L30934 16209
L30934 16153
L30953 16115
L30971 16096
L31009 16078
L31103 16078
L31140 16096
L31159 16115
L31178 16153
L31178 16265
L31159 16303
L31140 16321
" />
<path d="M30784 15721
L30784 15909
L30971 15928
L30953 15909
L30934 15871
L30934 15778
L30953 15740
L30971 15721
L31009 15703
L31103 15703
L31140 15721
L31159 15740
L31178 15778
L31178 15871
L31159 15909
L31140 15928
" />
<path d="M30178 16453
L29990 16584
" />
<path d="M30178 16678
L29784 16678
L29784 16528
L29803 16490
L29821 16471
L29859 16453
L29915 16453
L29953 16471
L29971 16490
L29990 16528
L29990 16678
" />
<path d="M29784 16321
L29784 16078
L29934 16209
L29934 16153
L29953 16115
L29971 16096
L30009 16078
L30103 16078
L30140 16096
L30159 16115
L30178 16153
L30178 16265
L30159 16303
L30140 16321
" />
<path d="M29784 15740
L29784 15815
L29803 15853
L29821 15871
L29878 15909
L29953 15928
L30103 15928
L30140 15909
L30159 15890
L30178 15853
L30178 15778
L30159 15740
L30140 15721
L30103 15703
L30009 15703
L29971 15721
L29953 15740
L29934 15778
L29934 15853
L29953 15890
L29971 15909
L30009 15928
" />
<path d="M6208 33084
L6021 33215
" />
<path d="M6208 33309
L5815 33309
L5815 33159
L5833 33122
L5852 33103
L5890 33084
L5946 33084
L5983 33103
L6002 33122
L6021 33159
L6021 33309
" />
<path d="M5815 32953
L5815 32709
L5965 32840
L5965 32784
L5983 32747
L6002 32728
L6040 32709
L6133 32709
L6171 32728
L6190 32747
L6208 32784
L6208 32897
L6190 32934
L6171 32953
" />
<path d="M5815 32578
L5815 32315
L6208 32484
" />
<path d="M6434 30577
L6416 30596
L6359 30615
L6322 30615
L6266 30596
L6228 30558
L6209 30521
L6191 30446
L6191 30390
L6209 30315
L6228 30277
L6266 30240
L6322 30221
L6359 30221
L6416 30240
L6434 30258
" />
<path d="M6791 30615
L6603 30615
L6603 30221
" />
<path d="M6922 30615
L6922 30221
" />
<path d="M7147 30615
L6978 30390
" />
<path d="M7147 30221
L6922 30446
" />
<path d="M6453 24615
L6322 24427
" />
<path d="M6228 24615
L6228 24221
L6378 24221
L6416 24240
L6434 24258
L6453 24296
L6453 24352
L6434 24390
L6416 24408
L6378 24427
L6228 24427
" />
<path d="M6603 24596
L6659 24615
L6753 24615
L6791 24596
L6809 24577
L6828 24540
L6828 24502
L6809 24465
L6791 24446
L6753 24427
L6678 24408
L6641 24390
L6622 24371
L6603 24333
L6603 24296
L6622 24258
L6641 24240
L6678 24221
L6772 24221
L6828 24240
" />
<path d="M6941 24221
L7166 24221
" />
<path d="M7053 24615
L7053 24221
" />
<path d="M14870 41613
L14870 41140
L15050 41140
L15095 41163
L15117 41185
L15140 41230
L15140 41298
L15117 41343
L15095 41365
L15050 41388
L14870 41388
" />
<path d="M15297 41140
L15410 41613
L15500 41275
L15589 41613
L15702 41140
" />
<path d="M16152 41613
L15994 41388
" />
<path d="M15882 41613
L15882 41140
L16062 41140
L16107 41163
L16129 41185
L16152 41230
L16152 41298
L16129 41343
L16107 41365
L16062 41388
L15882 41388
" />
<path d="M15700 16617
L15700 16935
L15718 16973
L15737 16992
L15775 17010
L15850 17010
L15887 16992
L15906 16973
L15925 16935
L15925 16617
" />
<path d="M16318 17010
L16093 17010
" />
<path d="M16206 17010
L16206 16617
L16168 16673
L16131 16710
L16093 16729
" />
<path d="M34700 16617
L34700 16935
L34718 16973
L34737 16992
L34775 17010
L34850 17010
L34887 16992
L34906 16973
L34925 16935
L34925 16617
" />
<path d="M35074 16617
L35318 16617
L35187 16767
L35243 16767
L35281 16785
L35299 16804
L35318 16842
L35318 16935
L35299 16973
L35281 16992
L35243 17010
L35131 17010
L35093 16992
L35074 16973
" />
<path d="M44500 37484
L44500 37803
L44518 37840
L44537 37859
L44575 37878
L44650 37878
L44687 37859
L44706 37840
L44725 37803
L44725 37484
" />
<path d="M45081 37615
L45081 37878
" />
<path d="M44987 37465
L44893 37746
L45137 37746
" />
<path d="M60200 16617
L60200 16935
L60218 16973
L60237 16992
L60275 17010
L60350 17010
L60387 16992
L60406 16973
L60425 16935
L60425 16617
" />
<path d="M60799 16617
L60612 16617
L60593 16804
L60612 16785
L60649 16767
L60743 16767
L60781 16785
L60799 16804
L60818 16842
L60818 16935
L60799 16973
L60781 16992
L60743 17010
L60649 17010
L60612 16992
L60593 16973
" />
<path d="M51701 42049
L52020 42049
L52057 42031
L52076 42012
L52095 41974
L52095 41899
L52076 41862
L52057 41843
L52020 41824
L51701 41824
" />
<path d="M51701 41468
L51701 41543
L51720 41581
L51739 41600
L51795 41637
L51870 41656
L52020 41656
L52057 41637
L52076 41618
L52095 41581
L52095 41506
L52076 41468
L52057 41450
L52020 41431
L51926 41431
L51889 41450
L51870 41468
L51851 41506
L51851 41581
L51870 41618
L51889 41637
L51926 41656
" />
<path d="M28201 42049
L28520 42049
L28557 42031
L28576 42012
L28595 41974
L28595 41899
L28576 41862
L28557 41843
L28520 41824
L28201 41824
" />
<path d="M28201 41675
L28201 41412
L28595 41581
" />
<path d="M53367 40549
L53685 40549
L53723 40531
L53742 40512
L53760 40474
L53760 40399
L53742 40362
L53723 40343
L53685 40324
L53367 40324
" />
<path d="M53760 40118
L53760 40043
L53742 40006
L53723 39987
L53667 39950
L53592 39931
L53442 39931
L53404 39950
L53385 39968
L53367 40006
L53367 40081
L53385 40118
L53404 40137
L53442 40156
L53535 40156
L53573 40137
L53592 40118
L53610 40081
L53610 40006
L53592 39968
L53573 39950
L53535 39931
" />
<path d="M53367 36237
L53685 36237
L53723 36218
L53742 36199
L53760 36162
L53760 36087
L53742 36049
L53723 36031
L53685 36012
L53367 36012
" />
<path d="M53760 35618
L53760 35843
" />
<path d="M53760 35731
L53367 35731
L53423 35768
L53460 35806
L53479 35843
" />
<path d="M53367 35375
L53367 35337
L53385 35300
L53404 35281
L53442 35262
L53517 35243
L53610 35243
L53685 35262
L53723 35281
L53742 35300
L53760 35337
L53760 35375
L53742 35412
L53723 35431
L53685 35450
L53610 35468
L53517 35468
L53442 35450
L53404 35431
L53385 35412
L53367 35375
" />
<path d="M15512 35451
L15512 35770
L15531 35807
L15550 35826
L15587 35845
L15662 35845
L15700 35826
L15718 35807
L15737 35770
L15737 35451
" />
<path d="M16131 35845
L15906 35845
" />
<path d="M16018 35845
L16018 35451
L15981 35507
L15943 35545
L15906 35564
" />
<path d="M16281 35489
L16299 35470
L16337 35451
L16431 35451
L16468 35470
L16487 35489
L16506 35526
L16506 35564
L16487 35620
L16262 35845
L16506 35845
" />
<path d="M11656 35387
L11974 35387
L12012 35368
L12031 35349
L12049 35312
L12049 35237
L12031 35199
L12012 35181
L11974 35162
L11656 35162
" />
<path d="M12049 34768
L12049 34993
" />
<path d="M12049 34881
L11656 34881
L11712 34918
L11749 34956
L11768 34993
" />
<path d="M11656 34431
L11656 34506
L11674 34543
L11693 34562
L11749 34600
L11824 34618
L11974 34618
L12012 34600
L12031 34581
L12049 34543
L12049 34468
L12031 34431
L12012 34412
L11974 34393
L11881 34393
L11843 34412
L11824 34431
L11806 34468
L11806 34543
L11824 34581
L11843 34600
L11881 34618
" />
<path d="M13812 14342
L13812 14530
" />
<path d="M13681 14136
L13812 14342
L13943 14136
" />
<path d="M14281 14530
L14056 14530
" />
<path d="M14168 14530
L14168 14136
L14131 14193
L14093 14230
L14056 14249
" />
</g>
<g style="fill:#008484; fill-opacity:0.0; 
stroke:#008484; stroke-width:59.0551; stroke-opacity:1; 
stroke-linecap:round; stroke-linejoin:round;">
</g>
<g style="fill:#008484; fill-opacity:0.0; 
stroke:#008484; stroke-width:47.2441; stroke-opacity:1; 
stroke-linecap:round; stroke-linejoin:round;">
<path d="M62776 13523
L64823 13523
" />
<path d="M62776 12500
L62776 13523
" />
<path d="M64823 11476
L64823 13523
" />
<path d="M62776 12500
L63800 12500
" />
<path d="M63800 12500
L63800 11476
" />
<path d="M63800 11476
L64823 11476
" />
<path d="M62776 12000
L62776 11476
" />
<path d="M62776 11476
L63300 11476
" />
<path d="M60276 13523
L62323 13523
" />
<path d="M60276 12500
L60276 13523
" />
<path d="M62323 11476
L62323 13523
" />
<path d="M60276 12500
L61300 12500
" />
<path d="M61300 12500
L61300 11476
" />
<path d="M61300 11476
L62323 11476
" />
<path d="M60276 12000
L60276 11476
" />
<path d="M60276 11476
L60800 11476
" />
<path d="M48816 11229
L48068 11229
" />
<path d="M48068 11229
L48068 13079
" />
<path d="M48816 11229
L48816 13079
" />
<path d="M40816 11229
L40068 11229
" />
<path d="M40068 11229
L40068 13079
" />
<path d="M40816 11229
L40816 13079
" />
<path d="M29359 11216
L28611 11216
" />
<path d="M28611 11216
L28611 13067
" />
<path d="M29359 11216
L29359 13067
" />
<path d="M23106.3 17226.4 A393.701 393.701 0.0 0 0 23893.7 17226.4 " />
<path d="M23106 17226
L20956 17226
" />
<path d="M20956 17226
L20956 37273
" />
<path d="M20956 37273
L26043 37273
" />
<path d="M26043 37273
L26043 17226
" />
<path d="M26043 17226
L23893 17226
" />
<path d="M19976 17202
L19976 37297
" />
<path d="M19976 37297
L27023 37297
" />
<path d="M27023 37297
L27023 17202
" />
<path d="M27023 17202
L19976 17202
" />
<path d="M11365 27303
L11365 27696
" />
<path d="M12034 27696
L12034 27303
" />
<path d="M11365 21503
L11365 21896
" />
<path d="M12034 21896
L12034 21503
" />
<path d="M11903 14634
L12296 14634
" />
<path d="M12296 13965
L11903 13965
" />
<path d="M12234 33404
L12234 33011
" />
<path d="M11565 33011
L11565 33404
" />
<path d="M9896 31165
L9503 31165
" />
<path d="M9503 31834
L9896 31834
" />
<path d="M11711 43228
L11711 44626
" />
<path d="M11711 44626
L8088 44626
" />
<path d="M8088 44626
L8088 43228
" />
<path d="M8088 40590
L8088 39626
" />
<path d="M8088 39626
L8246 39626
" />
<path d="M8246 39626
L8246 38838
" />
<path d="M8246 38838
L9427 38838
" />
<path d="M10923 38838
L11553 38838
" />
<path d="M11553 38838
L11553 39626
" />
<path d="M11553 39626
L11711 39626
" />
<path d="M11711 39626
L11711 40590
" />
<path d="M9431 38090
L9431 37405
" />
<path d="M9431 37405
L10116 37405
" />
<path d="M18900 39801
L18900 39733
" />
<path d="M19285 39750
L19635 39750
" />
<path d="M19460 39750
L19285 39516
" />
<path d="M19285 39516
L19635 39516
" />
<path d="M19635 39516
L19460 39750
" />
<circle cx="18900" cy="40300" r="498.571" /> 
<path d="M7900 32201
L7900 32133
" />
<path d="M8285 32150
L8635 32150
" />
<path d="M8460 32150
L8285 31916
" />
<path d="M8285 31916
L8635 31916
" />
<path d="M8635 31916
L8460 32150
" />
<circle cx="7900" cy="32700" r="498.571" /> 
<path d="M55816 11229
L55068 11229
" />
<path d="M55068 11229
L55068 13079
" />
<path d="M55816 11229
L55816 13079
" />
<path d="M47816 11229
L47068 11229
" />
<path d="M47068 11229
L47068 13079
" />
<path d="M47816 11229
L47816 13079
" />
<path d="M54816 11229
L54068 11229
" />
<path d="M54068 11229
L54068 13079
" />
<path d="M54816 11229
L54816 13079
" />
<path d="M46816 11229
L46068 11229
" />
<path d="M46068 11229
L46068 13079
" />
<path d="M46816 11229
L46816 13079
" />
<path d="M53816 11229
L53068 11229
" />
<path d="M53068 11229
L53068 13079
" />
<path d="M53816 11229
L53816 13079
" />
<path d="M45816 11229
L45068 11229
" />
<path d="M45068 11229
L45068 13079
" />
<path d="M45816 11229
L45816 13079
" />
<path d="M52816 11229
L52068 11229
" />
<path d="M52068 11229
L52068 13079
" />
<path d="M52816 11229
L52816 13079
" />
<path d="M44816 11229
L44068 11229
" />
<path d="M44068 11229
L44068 13079
" />
<path d="M44816 11229
L44816 13079
" />
<path d="M51816 11229
L51068 11229
" />
<path d="M51068 11229
L51068 13079
" />
<path d="M51816 11229
L51816 13079
" />
<path d="M43816 11229
L43068 11229
" />
<path d="M43068 11229
L43068 13079
" />
<path d="M43816 11229
L43816 13079
" />
<path d="M50816 11229
L50068 11229
" />
<path d="M50068 11229
L50068 13079
" />
<path d="M50816 11229
L50816 13079
" />
<path d="M42816 11229
L42068 11229
" />
<path d="M42068 11229
L42068 13079
" />
<path d="M42816 11229
L42816 13079
" />
<path d="M49816 11229
L49068 11229
" />
<path d="M49068 11229
L49068 13079
" />
<path d="M49816 11229
L49816 13079
" />
<path d="M41816 11229
L41068 11229
" />
<path d="M41068 11229
L41068 13079
" />
<path d="M41816 11229
L41816 13079
" />
<path d="M39816 11229
L39068 11229
" />
<path d="M39068 11229
L39068 13079
" />
<path d="M39816 11229
L39816 13079
" />
<path d="M38816 11229
L38068 11229
" />
<path d="M38068 11229
L38068 13079
" />
<path d="M38816 11229
L38816 13079
" />
<path d="M28359 11216
L27611 11216
" />
<path d="M27611 11216
L27611 13067
" />
<path d="M28359 11216
L28359 13067
" />
<path d="M37816 11229
L37068 11229
" />
<path d="M37068 11229
L37068 13079
" />
<path d="M37816 11229
L37816 13079
" />
<path d="M27359 11216
L26611 11216
" />
<path d="M26611 11216
L26611 13067
" />
<path d="M27359 11216
L27359 13067
" />
<path d="M36816 11229
L36068 11229
" />
<path d="M36068 11229
L36068 13079
" />
<path d="M36816 11229
L36816 13079
" />
<path d="M26359 11216
L25611 11216
" />
<path d="M25611 11216
L25611 13067
" />
<path d="M26359 11216
L26359 13067
" />
<path d="M24359 11216
L23611 11216
" />
<path d="M23611 11216
L23611 13067
" />
<path d="M24359 11216
L24359 13067
" />
<path d="M25359 11216
L24611 11216
" />
<path d="M24611 11216
L24611 13067
" />
<path d="M25359 11216
L25359 13067
" />
<path d="M23359 11216
L22611 11216
" />
<path d="M22611 11216
L22611 13067
" />
<path d="M23359 11216
L23359 13067
" />
<path d="M22359 11216
L21611 11216
" />
<path d="M21611 11216
L21611 13067
" />
<path d="M22359 11216
L22359 13067
" />
<path d="M33359 11216
L32611 11216
" />
<path d="M32611 11216
L32611 13067
" />
<path d="M33359 11216
L33359 13067
" />
<path d="M32359 11216
L31611 11216
" />
<path d="M31611 11216
L31611 13067
" />
<path d="M32359 11216
L32359 13067
" />
<path d="M31359 11216
L30611 11216
" />
<path d="M30611 11216
L30611 13067
" />
<path d="M31359 11216
L31359 13067
" />
<path d="M30359 11216
L29611 11216
" />
<path d="M29611 11216
L29611 13067
" />
<path d="M30359 11216
L30359 13067
" />
<path d="M6325 36320
L7074 36320
" />
<path d="M7074 36320
L7074 34470
" />
<path d="M6325 36320
L6325 34470
" />
<path d="M19523 38773
L19523 37726
" />
<path d="M17500 38773
L19523 38773
" />
<path d="M17500 37726
L19523 37726
" />
<path d="M17500 38773
L17500 37726
" />
<path d="M17000 38773
L16476 38773
" />
<path d="M16476 38773
L16476 38250
" />
<path d="M40023 27476
L38976 27476
" />
<path d="M40023 34500
L40023 27476
" />
<path d="M38976 34500
L38976 27476
" />
<path d="M40023 34500
L38976 34500
" />
<path d="M40023 35000
L40023 35523
" />
<path d="M40023 35523
L39500 35523
" />
<path d="M29976 21523
L31023 21523
" />
<path d="M29976 20500
L29976 21523
" />
<path d="M31023 20500
L31023 21523
" />
<path d="M29976 20500
L31023 20500
" />
<path d="M29976 20000
L29976 19476
" />
<path d="M29976 19476
L30500 19476
" />
<path d="M40023 17976
L38976 17976
" />
<path d="M40023 25000
L40023 17976
" />
<path d="M38976 25000
L38976 17976
" />
<path d="M40023 25000
L38976 25000
" />
<path d="M40023 25500
L40023 26023
" />
<path d="M40023 26023
L39500 26023
" />
<path d="M66023 25226
L64976 25226
" />
<path d="M66023 26250
L66023 25226
" />
<path d="M64976 26250
L64976 25226
" />
<path d="M66023 26250
L64976 26250
" />
<path d="M66023 26750
L66023 27273
" />
<path d="M66023 27273
L65500 27273
" />
<path d="M44023 17976
L42976 17976
" />
<path d="M44023 23000
L44023 17976
" />
<path d="M42976 23000
L42976 17976
" />
<path d="M44023 23000
L42976 23000
" />
<path d="M44023 23500
L44023 24023
" />
<path d="M44023 24023
L43500 24023
" />
<path d="M53023 28976
L51976 28976
" />
<path d="M53023 36000
L53023 28976
" />
<path d="M51976 36000
L51976 28976
" />
<path d="M53023 36000
L51976 36000
" />
<path d="M53023 36500
L53023 37023
" />
<path d="M53023 37023
L52500 37023
" />
<path d="M53023 19476
L51976 19476
" />
<path d="M53023 26500
L53023 19476
" />
<path d="M51976 26500
L51976 19476
" />
<path d="M53023 26500
L51976 26500
" />
<path d="M53023 27000
L53023 27523
" />
<path d="M53023 27523
L52500 27523
" />
<path d="M57726 13523
L59773 13523
" />
<path d="M57726 12500
L57726 13523
" />
<path d="M59773 11476
L59773 13523
" />
<path d="M57726 12500
L58750 12500
" />
<path d="M58750 12500
L58750 11476
" />
<path d="M58750 11476
L59773 11476
" />
<path d="M57726 12000
L57726 11476
" />
<path d="M57726 11476
L58250 11476
" />
<path d="M13096 20545
L13096 21017
" />
<path d="M12403 21017
L12403 20545
" />
<path d="M12653 28704
L12653 28232
" />
<path d="M13346 28232
L13346 28704
" />
<path d="M12403 22954
L12403 22482
" />
<path d="M13096 22482
L13096 22954
" />
<path d="M12653 26204
L12653 25732
" />
<path d="M13346 25732
L13346 26204
" />
<path d="M55846 14495
L55846 14967
" />
<path d="M55153 14967
L55153 14495
" />
<path d="M47846 14495
L47846 14967
" />
<path d="M47153 14967
L47153 14495
" />
<path d="M54846 14495
L54846 14967
" />
<path d="M54153 14967
L54153 14495
" />
<path d="M46846 14495
L46846 14967
" />
<path d="M46153 14967
L46153 14495
" />
<path d="M53846 14495
L53846 14967
" />
<path d="M53153 14967
L53153 14495
" />
<path d="M45846 14495
L45846 14967
" />
<path d="M45153 14967
L45153 14495
" />
<path d="M52846 14495
L52846 14967
" />
<path d="M52153 14967
L52153 14495
" />
<path d="M44846 14495
L44846 14967
" />
<path d="M44153 14967
L44153 14495
" />
<path d="M51846 14495
L51846 14967
" />
<path d="M51153 14967
L51153 14495
" />
<path d="M43846 14495
L43846 14967
" />
<path d="M43153 14967
L43153 14495
" />
<path d="M50846 14495
L50846 14967
" />
<path d="M50153 14967
L50153 14495
" />
<path d="M42846 14495
L42846 14967
" />
<path d="M42153 14967
L42153 14495
" />
<path d="M49846 14495
L49846 14967
" />
<path d="M49153 14967
L49153 14495
" />
<path d="M41846 14495
L41846 14967
" />
<path d="M41153 14967
L41153 14495
" />
<path d="M48846 14495
L48846 14967
" />
<path d="M48153 14967
L48153 14495
" />
<path d="M40846 14495
L40846 14967
" />
<path d="M40153 14967
L40153 14495
" />
<path d="M39846 14495
L39846 14967
" />
<path d="M39153 14967
L39153 14495
" />
<path d="M29346 14495
L29346 14967
" />
<path d="M28653 14967
L28653 14495
" />
<path d="M38746 14495
L38746 14967
" />
<path d="M38053 14967
L38053 14495
" />
<path d="M28346 14495
L28346 14967
" />
<path d="M27653 14967
L27653 14495
" />
<path d="M37746 14495
L37746 14967
" />
<path d="M37053 14967
L37053 14495
" />
<path d="M27346 14495
L27346 14967
" />
<path d="M26653 14967
L26653 14495
" />
<path d="M36846 14495
L36846 14967
" />
<path d="M36153 14967
L36153 14495
" />
<path d="M26346 14495
L26346 14967
" />
<path d="M25653 14967
L25653 14495
" />
<path d="M24346 14495
L24346 14967
" />
<path d="M23653 14967
L23653 14495
" />
<path d="M25346 14495
L25346 14967
" />
<path d="M24653 14967
L24653 14495
" />
<path d="M23346 14495
L23346 14967
" />
<path d="M22653 14967
L22653 14495
" />
<path d="M22346 14495
L22346 14967
" />
<path d="M21653 14967
L21653 14495
" />
<path d="M33346 14495
L33346 14967
" />
<path d="M32653 14967
L32653 14495
" />
<path d="M32346 14495
L32346 14967
" />
<path d="M31653 14967
L31653 14495
" />
<path d="M31346 14495
L31346 14967
" />
<path d="M30653 14967
L30653 14495
" />
<path d="M30346 14495
L30346 14967
" />
<path d="M29653 14967
L29653 14495
" />
<path d="M7046 32595
L7046 33067
" />
<path d="M6353 33067
L6353 32595
" />
</g>
<g style="fill:#008484; fill-opacity:0.0; 
stroke:#008484; stroke-width:118.11; stroke-opacity:1; 
stroke-linecap:round; stroke-linejoin:round;">
<path d="M5881 30043
L5881 24925
" />
<path d="M11000 24925
L5881 24925
" />
<path d="M11000 30043
L5881 30043
" />
<path d="M11000 24925
L11000 30043
" />
<path d="M5881 24043
L5881 18925
" />
<path d="M11000 18925
L5881 18925
" />
<path d="M11000 24043
L5881 24043
" />
<path d="M11000 18925
L11000 24043
" />
</g>
<g style="fill:#008484; fill-opacity:0.0; 
stroke:#008484; stroke-width:59.0551; stroke-opacity:1; 
stroke-linecap:round; stroke-linejoin:round;">
<path d="M14316 44279
L17183 44279
" />
<path d="M17183 44279
L17183 41720
" />
<path d="M17183 41720
L14316 41720
" />
<path d="M14316 41720
L14316 42573
" />
<path d="M14316 42573
L14316 43426
" />
<path d="M14316 43426
L14316 44279
" />
</g>
<g style="fill:#008484; fill-opacity:0.0; 
stroke:#008484; stroke-width:47.2441; stroke-opacity:1; 
stroke-linecap:round; stroke-linejoin:round;">
<path d="M15606.3 17226.4 A393.701 393.701 0.0 0 0 16393.7 17226.4 " />
<path d="M15606 17226
L14956 17226
" />
<path d="M14956 17226
L14956 26273
" />
<path d="M14956 26273
L17043 26273
" />
<path d="M17043 26273
L17043 17226
" />
<path d="M17043 17226
L16393 17226
" />
<path d="M13976 17202
L13976 26297
" />
<path d="M13976 26297
L18023 26297
" />
<path d="M18023 26297
L18023 17202
" />
<path d="M18023 17202
L13976 17202
" />
<path d="M34606.3 17226.4 A393.701 393.701 0.0 0 0 35393.7 17226.4 " />
<path d="M34606 17226
L32456 17226
" />
<path d="M32456 17226
L32456 37273
" />
<path d="M32456 37273
L37543 37273
" />
<path d="M37543 37273
L37543 17226
" />
<path d="M37543 17226
L35393 17226
" />
<path d="M31476 17202
L31476 37297
" />
<path d="M31476 37297
L38523 37297
" />
<path d="M38523 37297
L38523 17202
" />
<path d="M38523 17202
L31476 17202
" />
<path d="M47606.3 17226.4 A393.701 393.701 0.0 0 0 48393.7 17226.4 " />
<path d="M47606 17226
L45456 17226
" />
<path d="M45456 17226
L45456 37273
" />
<path d="M45456 37273
L50543 37273
" />
<path d="M50543 37273
L50543 17226
" />
<path d="M50543 17226
L48393 17226
" />
<path d="M44476 17202
L44476 37297
" />
<path d="M44476 37297
L51523 37297
" />
<path d="M51523 37297
L51523 17202
" />
<path d="M51523 17202
L44476 17202
" />
<path d="M60106.3 17226.4 A393.701 393.701 0.0 0 0 60893.7 17226.4 " />
<path d="M60106 17226
L57956 17226
" />
<path d="M57956 17226
L57956 31273
" />
<path d="M57956 31273
L63043 31273
" />
<path d="M63043 31273
L63043 17226
" />
<path d="M63043 17226
L60893 17226
" />
<path d="M56976 17202
L56976 31297
" />
<path d="M56976 31297
L64023 31297
" />
<path d="M64023 31297
L64023 17202
" />
<path d="M64023 17202
L56976 17202
" />
<path d="M51523.6 41356.3 A393.701 393.701 0.0 0 0 51523.6 42143.7 " />
<path d="M51523 41356
L51523 40706
" />
<path d="M51523 40706
L44476 40706
" />
<path d="M44476 40706
L44476 42793
" />
<path d="M44476 42793
L51523 42793
" />
<path d="M51523 42793
L51523 42143
" />
<path d="M51547 39726
L44452 39726
" />
<path d="M44452 39726
L44452 43773
" />
<path d="M44452 43773
L51547 43773
" />
<path d="M51547 43773
L51547 39726
" />
<path d="M28023.6 41356.3 A393.701 393.701 0.0 0 0 28023.6 42143.7 " />
<path d="M28023 41356
L28023 40706
" />
<path d="M28023 40706
L19976 40706
" />
<path d="M19976 40706
L19976 42793
" />
<path d="M19976 42793
L28023 42793
" />
<path d="M28023 42793
L28023 42143
" />
<path d="M28047 39726
L19952 39726
" />
<path d="M19952 39726
L19952 43773
" />
<path d="M19952 43773
L28047 43773
" />
<path d="M28047 43773
L28047 39726
" />
<path d="M53976.4 40643.7 A393.701 393.701 0.0 0 0 53976.4 39856.3 " />
<path d="M53976 40643
L53976 41293
" />
<path d="M53976 41293
L63023 41293
" />
<path d="M63023 41293
L63023 39206
" />
<path d="M63023 39206
L53976 39206
" />
<path d="M53976 39206
L53976 39856
" />
<path d="M53952 42273
L63047 42273
" />
<path d="M63047 42273
L63047 38226
" />
<path d="M63047 38226
L53952 38226
" />
<path d="M53952 38226
L53952 42273
" />
<path d="M53976.4 36143.7 A393.701 393.701 0.0 0 0 53976.4 35356.3 " />
<path d="M53976 36143
L53976 36793
" />
<path d="M53976 36793
L63023 36793
" />
<path d="M63023 36793
L63023 34706
" />
<path d="M63023 34706
L53976 34706
" />
<path d="M53976 34706
L53976 35356
" />
<path d="M53952 37773
L63047 37773
" />
<path d="M63047 37773
L63047 33726
" />
<path d="M63047 33726
L53952 33726
" />
<path d="M53952 33726
L53952 37773
" />
<path d="M16393.7 35273.6 A393.701 393.701 0.0 0 0 15606.3 35273.6 " />
<path d="M16393 35273
L17043 35273
" />
<path d="M17043 35273
L17043 28226
" />
<path d="M17043 28226
L14956 28226
" />
<path d="M14956 28226
L14956 35273
" />
<path d="M14956 35273
L15606 35273
" />
<path d="M18023 35297
L18023 28202
" />
<path d="M18023 28202
L13976 28202
" />
<path d="M13976 28202
L13976 35297
" />
<path d="M13976 35297
L18023 35297
" />
<path d="M11458 34121
L11458 33531
" />
<path d="M11458 33531
L11351 33531
" />
<path d="M11351 33531
L11351 32416
" />
<path d="M8741 34121
L8741 33531
" />
<path d="M8741 33531
L8848 33531
" />
<path d="M8848 33531
L8848 33098
" />
<path d="M16322 14746
L10033 14746
" />
<path d="M10033 14746
L10033 16753
" />
<path d="M10033 16753
L16322 16753
" />
</g> 
</svg>
