<?xml version="1.0" standalone="no"?>
 <!DOCTYPE svg PUBLIC "-//W3C//DTD SVG 1.1//EN" 
 "http://www.w3.org/Graphics/SVG/1.1/DTD/svg11.dtd"> 
<svg xmlns="http://www.w3.org/2000/svg" version="1.1" 
    width="19.304cm" height="13.2715cm" viewBox="0 0 76000 52250 ">
<title>SVG Picture created as 8088-B.SilkS.svg date 2017/09/25 20:58:38 </title>
  <desc>Picture generated by PCBNEW </desc>
<g style="fill:#000000; fill-opacity:1;stroke:#000000; stroke-opacity:1;
stroke-linecap:round; stroke-linejoin:round; "
 transform="translate(0 0) scale(1 1)">
</g>
<g style="fill:#C2C200; fill-opacity:0.0; 
stroke:#C2C200; stroke-width:-0.000393701; stroke-opacity:1; 
stroke-linecap:round; stroke-linejoin:round;">
</g>
<g style="fill:#C2C200; fill-opacity:0.0; 
stroke:#C2C200; stroke-width:59.0551; stroke-opacity:1; 
stroke-linecap:round; stroke-linejoin:round;">
<path d="M5500 44700
L66500 44700
" />
<path d="M5500 44700
L5500 8700
" />
<path d="M66500 8700
L66500 44700
" />
<path d="M62500 8700
L66500 8700
" />
<path d="M5500 8700
L62500 8700
" />
</g>
<g style="fill:#840000; fill-opacity:0.0; 
stroke:#840000; stroke-width:59.0551; stroke-opacity:1; 
stroke-linecap:round; stroke-linejoin:round;">
<path d="M54433 11249
L54752 11249
L54789 11268
L54808 11287
L54827 11324
L54827 11399
L54808 11437
L54789 11455
L54752 11474
L54433 11474
" />
<path d="M54827 11868
L54827 11643
" />
<path d="M54827 11755
L54433 11755
L54489 11718
L54527 11680
L54546 11643
" />
<path d="M54827 12243
L54827 12018
" />
<path d="M54827 12130
L54433 12130
L54489 12093
L54527 12055
L54546 12018
" />
<path d="M46933 11249
L47252 11249
L47289 11268
L47308 11287
L47327 11324
L47327 11399
L47308 11437
L47289 11455
L47252 11474
L46933 11474
" />
<path d="M47327 11868
L47327 11643
" />
<path d="M47327 11755
L46933 11755
L46989 11718
L47027 11680
L47046 11643
" />
<path d="M46933 11999
L46933 12243
L47083 12112
L47083 12168
L47102 12205
L47121 12224
L47158 12243
L47252 12243
L47289 12224
L47308 12205
L47327 12168
L47327 12055
L47308 12018
L47289 11999
" />
<path d="M38933 11399
L39252 11399
L39289 11418
L39308 11436
L39327 11474
L39327 11549
L39308 11586
L39289 11605
L39252 11624
L38933 11624
" />
<path d="M39327 12017
L39327 11792
" />
<path d="M39327 11905
L38933 11905
L38989 11867
L39027 11830
L39046 11792
" />
<path d="M39064 12355
L39327 12355
" />
<path d="M38914 12261
L39196 12167
L39196 12411
" />
<path d="M27976 11262
L28295 11262
L28333 11281
L28351 11300
L28370 11337
L28370 11412
L28351 11450
L28333 11468
L28295 11487
L27976 11487
" />
<path d="M28370 11881
L28370 11656
" />
<path d="M28370 11768
L27976 11768
L28033 11731
L28070 11693
L28089 11656
" />
<path d="M27976 12237
L27976 12049
L28164 12031
L28145 12049
L28126 12087
L28126 12181
L28145 12218
L28164 12237
L28201 12256
L28295 12256
L28333 12237
L28351 12218
L28370 12181
L28370 12087
L28351 12049
L28333 12031
" />
</g>
<g style="fill:#840084; fill-opacity:0.0; 
stroke:#840084; stroke-width:59.0551; stroke-opacity:1; 
stroke-linecap:round; stroke-linejoin:round;">
<path d="M54285 13262
L54186 13262
" />
<path d="M54285 10211
L54149 10211
" />
<path d="M49600 10211
L49735 10211
" />
<path d="M49600 13262
L49735 13262
" />
<path d="M54285 13262
L54285 10211
" />
<path d="M49600 13262
L49600 10211
" />
<path d="M54186 13262
L54186 13981
" />
<path d="M46785 13262
L46686 13262
" />
<path d="M46785 10211
L46649 10211
" />
<path d="M42100 10211
L42235 10211
" />
<path d="M42100 13262
L42235 13262
" />
<path d="M46785 13262
L46785 10211
" />
<path d="M42100 13262
L42100 10211
" />
<path d="M46686 13262
L46686 13981
" />
<path d="M38785 13412
L38686 13412
" />
<path d="M38785 10361
L38649 10361
" />
<path d="M34100 10361
L34235 10361
" />
<path d="M34100 13412
L34235 13412
" />
<path d="M38785 13412
L38785 10361
" />
<path d="M34100 13412
L34100 10361
" />
<path d="M38686 13412
L38686 14130
" />
<path d="M27828 13275
L27729 13275
" />
<path d="M27828 10224
L27692 10224
" />
<path d="M23143 10224
L23279 10224
" />
<path d="M23143 13275
L23279 13275
" />
<path d="M27828 13275
L27828 10224
" />
<path d="M23143 13275
L23143 10224
" />
<path d="M27729 13275
L27729 13994
" />
</g> 
</svg>
